<?xml version="1.0" encoding="UTF-8"?>
<svg width="240px" height="32px" viewBox="0 0 240 32" version="1.1" xmlns="http://www.w3.org/2000/svg" xmlns:xlink="http://www.w3.org/1999/xlink">
    <!-- Generator: Sketch 45.2 (43514) - http://www.bohemiancoding.com/sketch -->
    <title>dell_technologies</title>
    <desc>Created with Sketch.</desc>
    <defs></defs>
    <g id="Page-1" stroke="none" stroke-width="1" fill="none" fill-rule="evenodd">
        <g id="dell_technologies" fill-rule="nonzero" fill="#FFFFFF">
            <path d="M239.543333,20.2786667 C239.543333,17.334 237.939333,16.0253333 234.732667,15.37 C231.527333,14.7166667 229.604,14.388 229.604,12.0986667 C229.604,10.4626667 230.886667,9.48133333 233.131333,9.48133333 C236.016667,9.48133333 236.978667,10.79 236.978667,12.426 L237.299333,12.7526667 L238.582,12.7526667 L238.903333,12.426 C238.903333,9.15466667 236.336667,7.84466667 233.131333,7.84466667 C229.604,7.84466667 227.681333,9.80866667 227.681333,12.0993333 C227.681333,14.7166667 229.604667,16.026 232.81,16.6793333 C236.016667,17.3346667 237.62,17.6613333 237.62,20.2786667 C237.62,21.914 236.659333,23.2233333 233.452,23.2233333 C230.566667,23.2233333 229.284667,21.5866667 229.284667,19.624 L228.964667,19.2973333 L227.682,19.2973333 L227.362,19.624 C227.362,22.5686667 229.605333,24.8593333 233.452667,24.8593333 C237.619333,24.8586667 239.543333,22.896 239.543333,20.2786667 L239.543333,20.2786667 Z M225.758,17.0073333 L226.076667,16.6793333 L226.076667,15.6986667 C226.076667,11.1173333 223.512,7.84466667 219.024,7.84466667 C214.536,7.84466667 211.971333,11.1173333 211.971333,15.6986667 L211.971333,16.3526667 C211.971333,20.9326667 214.216,24.8593333 219.346,24.8593333 C223.834,24.8593333 225.436667,21.9146667 225.758667,19.9513333 L225.436667,19.6246667 L224.154,19.6246667 L223.834,19.9513333 C223.192,21.9153333 221.909333,23.224 219.346,23.224 C215.177333,23.224 213.894667,19.2973333 213.894667,17.3353333 L214.216,17.0086667 L225.758,17.0086667 L225.758,17.0073333 Z M223.834,15.37 L214.216,15.37 L213.894667,15.0433333 C213.894667,12.7526667 215.177333,9.48133333 219.024667,9.48133333 C222.872,9.48133333 224.154667,12.7526667 224.154667,15.0433333 L223.834,15.37 Z M209.726667,24.2046667 L209.726667,8.498 L209.406667,8.17133333 L208.124,8.17133333 L207.803333,8.498 L207.803333,24.2053333 L208.124,24.532 L209.406667,24.532 L209.726667,24.2046667 Z M209.726667,5.22666667 L209.726667,3.264 L209.406667,2.93733333 L208.124,2.93733333 L207.803333,3.264 L207.803333,5.22666667 L208.124,5.55466667 L209.406667,5.55466667 L209.726667,5.22666667 Z M197.545333,23.2233333 C194.338667,23.2233333 192.414,20.9326667 192.414,16.3526667 C192.414,11.7706667 194.338667,9.48133333 197.545333,9.48133333 C200.749333,9.48133333 202.674,11.7706667 202.674,16.3526667 C202.674,20.932 200.749333,23.2233333 197.545333,23.2233333 L197.545333,23.2233333 Z M202.674,22.2413333 C202.674,26.4946667 201.711333,29.7673333 197.864,29.7673333 C194.978667,29.7673333 194.016667,28.4586667 193.696667,26.8226667 L193.376,26.4946667 L192.093333,26.4946667 L191.773333,26.8226667 C192.093333,29.44 194.016667,31.4026667 197.864,31.4026667 C202.032667,31.4026667 204.596667,28.7853333 204.596667,22.2413333 L204.596667,8.498 L204.276667,8.17133333 L203.314667,8.17133333 L202.994667,8.498 L202.674667,10.4633333 L202.353333,10.4633333 C201.712667,9.15466667 200.11,7.84466667 197.223333,7.84466667 C192.735333,7.84466667 190.490667,11.444 190.490667,16.3526667 C190.490667,21.2593333 192.735333,24.8593333 197.223333,24.8593333 C200.11,24.8593333 201.712667,23.552 202.353333,22.242 L202.674,22.242 L202.674,22.2413333 Z M181.835333,9.48133333 C185.040667,9.48133333 187.284,12.0986667 187.284,16.3526667 C187.284,20.606 185.040667,23.2233333 181.835333,23.2233333 C178.628667,23.2233333 176.384,20.606 176.384,16.3526667 C176.384,12.0986667 178.628667,9.48133333 181.835333,9.48133333 L181.835333,9.48133333 Z M181.835333,24.8586667 C186.003333,24.8586667 189.208667,21.914 189.208667,16.352 C189.208667,10.79 186.003333,7.844 181.835333,7.844 C177.666667,7.844 174.460667,10.79 174.460667,16.352 C174.460667,21.914 177.666667,24.8586667 181.835333,24.8586667 L181.835333,24.8586667 Z M172.216,24.2046667 L172.216,1.95533333 L171.896,1.62866667 L170.613333,1.62866667 L170.292,1.95533333 L170.292,24.2053333 L170.613333,24.532 L171.896,24.532 L172.216,24.2046667 Z M160.675333,9.48133333 C163.880667,9.48133333 166.125333,12.0986667 166.125333,16.3526667 C166.125333,20.606 163.880667,23.2233333 160.675333,23.2233333 C157.468667,23.2233333 155.224,20.606 155.224,16.3526667 C155.224,12.0986667 157.468667,9.48133333 160.675333,9.48133333 L160.675333,9.48133333 Z M160.675333,24.8586667 C164.843333,24.8586667 168.05,21.914 168.05,16.352 C168.05,10.79 164.843333,7.844 160.675333,7.844 C156.508,7.844 153.300667,10.79 153.300667,16.352 C153.301333,21.914 156.508,24.8586667 160.675333,24.8586667 L160.675333,24.8586667 Z M151.378,24.2046667 L151.378,14.388 C151.378,10.1346667 149.134667,7.844 145.607333,7.844 C143.362667,7.844 141.438667,8.82733333 140.477333,10.4626667 L140.156,10.4626667 L139.837333,8.49733333 L139.516,8.17066667 L138.554,8.17066667 L138.233333,8.49733333 L138.233333,24.2046667 L138.554,24.5313333 L139.838,24.5313333 L140.156667,24.2046667 L140.156667,15.37 C140.156667,11.7706667 141.760667,9.48133333 145.286667,9.48133333 C147.851333,9.48133333 149.454,11.1173333 149.454,14.3886667 L149.454,24.2053333 L149.775333,24.532 L151.058,24.532 L151.378,24.2046667 Z M135.026,24.2046667 L135.026,14.388 C135.026,10.1346667 132.781333,7.844 129.255333,7.844 C127.010667,7.844 125.088,8.82733333 124.125333,10.4626667 L123.805333,10.4626667 L123.805333,1.95533333 L123.484667,1.62866667 L122.202,1.62866667 L121.880667,1.95533333 L121.880667,24.2053333 L122.202,24.532 L123.484667,24.532 L123.805333,24.2053333 L123.805333,15.37 C123.805333,11.7706667 125.409333,9.48133333 128.935333,9.48133333 C131.5,9.48133333 133.103333,11.1173333 133.103333,14.3886667 L133.103333,24.2053333 L133.423333,24.532 L134.707333,24.532 L135.026,24.2046667 Z M107.455333,16.352 C107.455333,11.77 109.698667,9.48066667 112.905333,9.48066667 C116.110667,9.48066667 117.393333,11.4433333 117.713333,13.406 L118.033333,13.734 L119.317333,13.734 L119.637333,13.406 C119.317333,10.1346667 116.750667,7.844 112.904667,7.844 C108.736667,7.844 105.531333,10.4626667 105.531333,16.352 C105.531333,22.2406667 108.736667,24.8586667 112.904667,24.8586667 C116.750667,24.8586667 119.316667,22.568 119.637333,19.2966667 L119.317333,18.97 L118.033333,18.97 L117.713333,19.2966667 C117.392667,21.2593333 116.110667,23.2233333 112.905333,23.2233333 C109.698667,23.2233333 107.455333,20.932 107.455333,16.352 L107.455333,16.352 Z M103.928667,17.0073333 L104.25,16.6793333 L104.25,15.6986667 C104.25,11.1173333 101.683333,7.84466667 97.1946667,7.84466667 C92.708,7.84466667 90.142,11.1173333 90.142,15.6986667 L90.142,16.3526667 C90.142,20.9326667 92.3866667,24.8593333 97.5166667,24.8593333 C102.004667,24.8593333 103.607333,21.9146667 103.928667,19.9513333 L103.607333,19.6246667 L102.326,19.6246667 L102.004667,19.9513333 C101.364,21.9153333 100.081333,23.224 97.5166667,23.224 C93.3486667,23.224 92.0666667,19.2973333 92.0666667,17.3353333 L92.3866667,17.0086667 L103.928667,17.0086667 L103.928667,17.0073333 Z M102.004,15.37 L92.386,15.37 L92.066,15.0433333 C92.066,12.7526667 93.3486667,9.48133333 97.1946667,9.48133333 C101.043333,9.48133333 102.326,12.7526667 102.326,15.0433333 L102.004,15.37 Z M93.3653333,2.93733333 L93.3653333,1.95533333 L93.0453333,1.62866667 L76.3733333,1.62866667 L76.052,1.95533333 L76.052,2.93733333 L76.3733333,3.264 L83.426,3.264 L83.746,3.59066667 L83.746,24.2046667 L84.0673333,24.5313333 L85.35,24.5313333 L85.67,24.2046667 L85.67,3.59066667 L85.9906667,3.264 L93.0446667,3.264 L93.3653333,2.93733333 Z" id="Shape"></path>
            <path d="M76.0506667,19.98 L76.0506667,24.532 L61.5733333,24.532 L61.5733333,1.62866667 L66.6706667,1.62866667 L66.6706667,19.98 L76.0506667,19.98 Z M9.11266667,24.532 C14.3346667,24.532 18.7233333,20.892 19.9753333,15.962 L32.672,26.0853333 L45.3606667,15.968 L45.3606667,24.5313333 L59.8386667,24.5313333 L59.8386667,19.98 L50.458,19.98 L50.458,1.62866667 L45.3606667,1.62866667 L45.3606667,10.192 L33.1893333,19.896 L30.4673333,17.726 L36.294,13.08 L42.638,8.02133333 L39.0153333,5.13333333 L26.8453333,14.838 L24.1233333,12.668 L36.2946667,2.96333333 L32.6726667,0.0753333333 L19.976,10.198 C18.724,5.268 14.3353333,1.628 9.11333333,1.628 L0.0153333333,1.628 L0.0153333333,24.5313333 L9.11266667,24.5313333 L9.11266667,24.532 Z M5.11266667,19.98 L5.11266667,6.18 L9.11266667,6.18 C12.4946667,6.18 15.2366667,9.26933333 15.2366667,13.08 C15.2366667,16.8906667 12.4946667,19.98 9.11266667,19.98 L5.11266667,19.98 L5.11266667,19.98 Z" id="Shape"></path>
        </g>
    </g>
</svg>