<?xml version="1.0" encoding="UTF-8"?>
<svg width="124px" height="21px" viewBox="0 0 124 21" version="1.1" xmlns="http://www.w3.org/2000/svg" xmlns:xlink="http://www.w3.org/1999/xlink">
    <!-- Generator: Sketch 46.2 (44496) - http://www.bohemiancoding.com/sketch -->
    <title>DELLEMC</title>
    <desc>Created with Sketch.</desc>
    <defs></defs>
    <g id="Page-1" stroke="none" stroke-width="1" fill="none" fill-rule="evenodd">
        <g id="DELLEMC" fill-rule="nonzero" fill="#FFFFFF">
            <path d="M116.644153,19.8136601 C120.469758,19.8136601 123.472782,17.9840523 124.017137,14.0638693 L123.747984,13.8000653 L122.65625,13.8000653 L122.381048,14.0638693 C121.836694,16.9373464 119.922379,18.5088235 116.644153,18.5088235 C112.546371,18.5088235 109.537298,15.6296731 109.537298,10.401817 C109.537298,5.17112418 112.543347,2.29481046 116.644153,2.29481046 C119.922379,2.29481046 121.836694,3.86345098 122.381048,6.47879739 L122.65625,6.73976471 L123.747984,6.73976471 L124.017137,6.47879739 C123.472782,2.8167451 120.469758,0.987137251 116.644153,0.987137251 C111.995968,0.987137251 107.90121,4.1244183 107.90121,10.401817 C107.90121,16.676379 111.995968,19.8136601 116.644153,19.8136601 L116.644153,19.8136601 Z M104.61996,19.2917254 L104.61996,1.50907189 L104.350806,1.24810458 L102.436492,1.24810458 L102.167339,1.50907189 L95.0604839,17.4621176 L94.7852823,17.4621176 L87.6844758,1.50907189 L87.4153226,1.24810458 L85.5010081,1.24810458 L85.2258065,1.50907189 L85.2258065,19.2917254 L85.5010081,19.5526928 L86.5927419,19.5526928 L86.8679435,19.2917254 L86.8679435,4.1244183 L87.1431452,4.1244183 L93.9717742,19.2917254 L94.2469758,19.5526928 L95.6139113,19.5526928 L95.8891129,19.2917254 L102.717742,4.1244183 L102.992944,4.1244183 L102.992944,19.2917254 L103.268145,19.5526928 L104.359879,19.5526928 L104.61996,19.2917254 Z M81.672379,19.2917254 L81.672379,18.5088235 L81.4032258,18.2478563 L71.2933468,18.2478563 L71.0181452,17.9868889 L71.0181452,11.1903922 L71.2933468,10.9265882 L80.8528226,10.9265882 L81.1280242,10.665621 L81.1280242,9.88271895 L80.8528226,9.61891504 L71.2933468,9.61891504 L71.0181452,9.35794771 L71.0181452,2.8195817 L71.2933468,2.55861437 L81.4032258,2.55861437 L81.672379,2.29764706 L81.672379,1.51190849 L81.4032258,1.25094118 L69.6542339,1.25094118 L69.3850806,1.51190849 L69.3850806,19.2945621 L69.6542339,19.5555294 L81.4032258,19.5555294 L81.672379,19.2917254 Z" id="Shape"></path>
            <path d="M65.0393145,15.9161699 L65.0393145,19.5526928 L52.7006048,19.5526928 L52.7006048,1.24810458 L57.0433468,1.24810458 L57.0433468,15.9161699 L65.0393145,15.9161699 Z M52.703629,1.25094118 L57.046371,1.25094118 L52.703629,1.25094118 Z M8,19.5555294 C12.4485887,19.5555294 16.1895161,16.648013 17.2570565,12.7051372 L28.0745968,20.7951242 L38.8860887,12.7108105 L38.8860887,19.5555294 L51.2247984,19.5555294 L51.2247984,15.9190065 L43.2318548,15.9190065 L43.2318548,1.25094118 L38.8891129,1.25094118 L38.8891129,8.09566013 L28.5221774,15.8537647 L26.202621,14.1206013 L31.1683468,10.4074902 L36.5725806,6.36533334 L33.4879032,4.05633987 L23.1149194,11.8144445 L20.7953629,10.081281 L31.1683468,2.32317647 L28.0806452,0.0141830051 L17.2631048,8.10700653 C16.1955645,4.16696731 12.4546371,1.25661437 8.00604839,1.25661437 L0.255040323,1.25661437 L0.255040323,19.5612026 L8,19.5612026 L8,19.5555294 Z M4.59173387,15.9161699 L4.59173387,4.88746405 L8,4.88746405 C10.8820565,4.88746405 13.2167339,7.35530719 13.2167339,10.401817 C13.2167339,13.4483269 10.8820565,15.9161699 8,15.9161699 L4.59173387,15.9161699 L4.59173387,15.9161699 Z" id="Shape"></path>
        </g>
    </g>
</svg>