<?xml version="1.0" encoding="UTF-8"?>
<svg width="75px" height="72px" viewBox="0 0 75 72" version="1.1" xmlns="http://www.w3.org/2000/svg" xmlns:xlink="http://www.w3.org/1999/xlink">
    <!-- Generator: Sketch 46.2 (44496) - http://www.bohemiancoding.com/sketch -->
    <title>DELL</title>
    <desc>Created with Sketch.</desc>
    <defs></defs>
    <g id="Page-1" stroke="none" stroke-width="1" fill="none" fill-rule="evenodd">
        <g id="DELL" fill-rule="nonzero" fill="#FFFFFF">
            <path d="M37.4761501,0.362169447 C16.813596,0.362169447 0.0622053809,16.3577313 0.0622053809,36.0848636 C0.0622053809,55.8144204 16.813596,71.8075576 37.4761501,71.8075576 C58.1412959,71.8075576 74.8926866,55.8144204 74.8926866,36.0848636 C74.8926866,16.3577313 58.1412959,0.362169447 37.4761501,0.362169447 Z M37.4761501,68.2360156 C18.8793331,68.2360156 3.80230391,53.843162 3.80230391,36.0848636 C3.80230391,18.3289898 18.8793331,3.93371145 37.4761501,3.93371145 C56.075559,3.93371145 71.1525881,18.326565 71.1525881,36.0848636 C71.1499962,53.8407373 56.072967,68.2360156 37.4761501,68.2360156 Z M66.6582493,40.8226728 L66.6582493,43.9504998 L56.0340887,43.9504998 L56.0340887,28.2216519 L59.7767791,28.2216519 L59.7767791,40.8250975 L66.6582493,40.8250975 L66.6582493,40.8226728 Z M17.5237741,43.9504998 C21.3597726,43.9504998 24.5789011,41.4482382 25.4990223,38.0633959 L34.8194619,45.0149309 L44.1321258,38.07067 L44.1321258,43.9504998 L54.7588783,43.9504998 L54.7588783,40.8226728 L47.8722243,40.8226728 L47.8722243,28.2192272 L44.1295339,28.2192272 L44.1295339,34.0990571 L35.1952861,40.7644807 L33.1969383,39.2733074 L37.4709663,36.0848636 L42.131186,32.6103084 L39.471906,30.6293513 L30.5376582,37.2923502 L28.5367185,35.8011769 L37.4709663,29.138178 L34.81687,27.1572209 L25.4964305,34.1063311 C24.5763092,30.7214888 21.3571807,28.2192272 17.5211823,28.2192272 L10.8444714,28.2192272 L10.8444714,43.9480752 L17.5237741,43.9480752 L17.5237741,43.9504998 Z M14.5897537,40.8226728 L14.5897537,31.3470542 L17.5237741,31.3470542 C20.0093975,31.3470542 22.0207048,33.4686424 22.0207048,36.0848636 C22.0207048,38.7010847 20.0093975,40.8226728 17.5237741,40.8226728 L14.5897537,40.8226728 Z" id="Shape"></path>
        </g>
    </g>
</svg>