<?xml version="1.0" encoding="UTF-8"?>
<svg width="95px" height="91px" viewBox="0 0 95 91" version="1.1" xmlns="http://www.w3.org/2000/svg" xmlns:xlink="http://www.w3.org/1999/xlink">
    <!-- Generator: Sketch 46.1 (44463) - http://www.bohemiancoding.com/sketch -->
    <title>Group 8</title>
    <desc>Created with Sketch.</desc>
    <defs></defs>
    <g id="Page-1" stroke="none" stroke-width="1" fill="none" fill-rule="evenodd">
        <g id="Group-8" transform="translate(0.000000, -2.000000)" fill-rule="nonzero" fill="#FFFFFF">
            <path d="M47.3656897,2.45774194 C21.2505172,2.45774194 0.0786206897,22.6743548 0.0786206897,47.6072581 C0.0786206897,72.5432258 21.2505172,92.7567742 47.3656897,92.7567742 C73.4841379,92.7567742 94.6560345,72.5432258 94.6560345,47.6072581 C94.6560345,22.6743548 73.4841379,2.45774194 47.3656897,2.45774194 Z M47.3656897,88.2427419 C23.8613793,88.2427419 4.80568966,70.0517742 4.80568966,47.6072581 C4.80568966,25.1658065 23.8613793,6.97177419 47.3656897,6.97177419 C70.8732759,6.97177419 89.9289655,25.1627419 89.9289655,47.6072581 C89.9256897,70.0487097 70.87,88.2427419 47.3656897,88.2427419 Z M84.2486207,53.5953226 L84.2486207,57.5485484 L70.8208621,57.5485484 L70.8208621,37.6690323 L75.5512069,37.6690323 L75.5512069,53.5983871 L84.2486207,53.5983871 L84.2486207,53.5953226 Z M22.1481034,57.5485484 C26.9963793,57.5485484 31.065,54.3859677 32.227931,50.1079032 L44.007931,58.893871 L55.7781034,50.1170968 L55.7781034,57.5485484 L69.2091379,57.5485484 L69.2091379,53.5953226 L60.5051724,53.5953226 L60.5051724,37.6659677 L55.7748276,37.6659677 L55.7748276,45.0974194 L44.482931,53.5217742 L41.9572414,51.6370968 L47.3591379,47.6072581 L53.2491379,43.2158065 L49.8881034,40.7120968 L38.5962069,49.1333871 L36.0672414,47.2487097 L47.3591379,38.8274194 L44.0046552,36.3237097 L32.2246552,45.1066129 C31.0617241,40.8285484 26.9931034,37.6659677 22.1448276,37.6659677 L13.7062069,37.6659677 L13.7062069,57.5454839 L22.1481034,57.5454839 L22.1481034,57.5485484 Z M18.4398276,53.5953226 L18.4398276,41.6191935 L22.1481034,41.6191935 C25.2896552,41.6191935 27.8317241,44.3006452 27.8317241,47.6072581 C27.8317241,50.913871 25.2896552,53.5953226 22.1481034,53.5953226 L18.4398276,53.5953226 Z" id="Shape"></path>
        </g>
    </g>
</svg>