<?xml version="1.0" encoding="UTF-8"?>
<svg width="123px" height="17px" viewBox="0 0 123 17" version="1.1" xmlns="http://www.w3.org/2000/svg" xmlns:xlink="http://www.w3.org/1999/xlink">
    <!-- Generator: Sketch 46.1 (44463) - http://www.bohemiancoding.com/sketch -->
    <title>Group 7</title>
    <desc>Created with Sketch.</desc>
    <defs></defs>
    <g id="Page-1" stroke="none" stroke-width="1" fill="none" fill-rule="evenodd">
        <g id="Group-7" transform="translate(-2.000000, -2.000000)" fill-rule="nonzero" fill="#FFFFFF">
            <path d="M117.711,17.5222222 C121.506,17.5222222 124.485,16.0888889 125.025,13.0177778 L124.758,12.8111111 L123.675,12.8111111 L123.402,13.0177778 C122.862,15.2688889 120.963,16.5 117.711,16.5 C113.646,16.5 110.661,14.2444444 110.661,10.1488889 C110.661,6.05111111 113.643,3.79777778 117.711,3.79777778 C120.963,3.79777778 122.862,5.02666667 123.402,7.07555556 L123.675,7.28 L124.758,7.28 L125.025,7.07555556 C124.485,4.20666667 121.506,2.77333333 117.711,2.77333333 C113.1,2.77333333 109.038,5.23111111 109.038,10.1488889 C109.038,15.0644444 113.1,17.5222222 117.711,17.5222222 L117.711,17.5222222 Z M105.783,17.1133333 L105.783,3.18222222 L105.516,2.97777778 L103.617,2.97777778 L103.35,3.18222222 L96.3,15.68 L96.027,15.68 L88.983,3.18222222 L88.716,2.97777778 L86.817,2.97777778 L86.544,3.18222222 L86.544,17.1133333 L86.817,17.3177778 L87.9,17.3177778 L88.173,17.1133333 L88.173,5.23111111 L88.446,5.23111111 L95.22,17.1133333 L95.493,17.3177778 L96.849,17.3177778 L97.122,17.1133333 L103.896,5.23111111 L104.169,5.23111111 L104.169,17.1133333 L104.442,17.3177778 L105.525,17.3177778 L105.783,17.1133333 Z M83.019,17.1133333 L83.019,16.5 L82.752,16.2955556 L72.723,16.2955556 L72.45,16.0911111 L72.45,10.7666667 L72.723,10.56 L82.206,10.56 L82.479,10.3555556 L82.479,9.74222222 L82.206,9.53555556 L72.723,9.53555556 L72.45,9.33111111 L72.45,4.20888889 L72.723,4.00444444 L82.752,4.00444444 L83.019,3.8 L83.019,3.18444444 L82.752,2.98 L71.097,2.98 L70.83,3.18444444 L70.83,17.1155556 L71.097,17.32 L82.752,17.32 L83.019,17.1133333 Z" id="Shape"></path>
            <path d="M66.519,14.4688889 L66.519,17.3177778 L54.279,17.3177778 L54.279,2.97777778 L58.587,2.97777778 L58.587,14.4688889 L66.519,14.4688889 Z M54.282,2.98 L58.59,2.98 L54.282,2.98 Z M9.936,17.32 C14.349,17.32 18.06,15.0422222 19.119,11.9533333 L29.85,18.2911111 L40.575,11.9577778 L40.575,17.32 L52.815,17.32 L52.815,14.4711111 L44.886,14.4711111 L44.886,2.98 L40.578,2.98 L40.578,8.34222222 L30.294,14.42 L27.993,13.0622222 L32.919,10.1533333 L38.28,6.98666667 L35.22,5.17777778 L24.93,11.2555556 L22.629,9.89777778 L32.919,3.82 L29.856,2.01111111 L19.125,8.35111111 C18.066,5.26444444 14.355,2.98444444 9.942,2.98444444 L2.253,2.98444444 L2.253,17.3244444 L9.936,17.3244444 L9.936,17.32 Z M6.555,14.4688889 L6.555,5.82888889 L9.936,5.82888889 C12.795,5.82888889 15.111,7.76222222 15.111,10.1488889 C15.111,12.5355556 12.795,14.4688889 9.936,14.4688889 L6.555,14.4688889 L6.555,14.4688889 Z" id="Shape"></path>
        </g>
    </g>
</svg>