<?xml version="1.0" encoding="UTF-8"?>
<svg width="101px" height="17px" viewBox="0 0 101 17" version="1.1" xmlns="http://www.w3.org/2000/svg" xmlns:xlink="http://www.w3.org/1999/xlink">
    <!-- Generator: Sketch 46.2 (44496) - http://www.bohemiancoding.com/sketch -->
    <title>DELLEMC</title>
    <desc>Created with Sketch.</desc>
    <defs></defs>
    <g id="Page-1" stroke="none" stroke-width="1" fill="none" fill-rule="evenodd">
        <g id="DELLEMC" fill-rule="nonzero" fill="#FFFFFF">
            <path d="M94.4262191,16.0396296 C97.5231374,16.0396296 99.9541569,14.5585185 100.394825,11.3850371 L100.176939,11.1714814 L99.2931548,11.1714814 L99.0703722,11.3850371 C98.6297047,13.7111852 97.0800211,14.9833333 94.4262191,14.9833333 C91.108967,14.9833333 88.6730508,12.6525925 88.6730508,8.42051852 C88.6730508,4.18614815 91.106519,1.85770371 94.4262191,1.85770371 C97.0800211,1.85770371 98.6297047,3.12755556 99.0703722,5.24474074 L99.2931548,5.456 L100.176939,5.456 L100.394825,5.24474074 C99.9541569,2.28022222 97.5231374,0.799111108 94.4262191,0.799111108 C90.6634027,0.799111108 87.3485986,3.33881481 87.3485986,8.42051852 C87.3485986,13.4999259 90.6634027,16.0396296 94.4262191,16.0396296 L94.4262191,16.0396296 Z M84.6923486,15.617111 L84.6923486,1.22162963 L84.474462,1.01037037 L82.9247792,1.01037037 L82.7068935,1.22162963 L76.9537251,14.136 L76.7309428,14.136 L70.9826709,1.22162963 L70.764785,1.01037037 L69.2151018,1.01037037 L68.9923195,1.22162963 L68.9923195,15.617111 L69.2151018,15.8283704 L70.0988863,15.8283704 L70.3216685,15.617111 L70.3216685,3.33881481 L70.5444509,3.33881481 L76.0723886,15.617111 L76.2951709,15.8283704 L77.4017377,15.8283704 L77.62452,15.617111 L83.1524578,3.33881481 L83.3752404,3.33881481 L83.3752404,15.617111 L83.5980221,15.8283704 L84.4818068,15.8283704 L84.6923486,15.617111 Z M66.1157354,15.617111 L66.1157354,14.9833333 L65.8978495,14.7720741 L57.7136617,14.7720741 L57.4908794,14.5608148 L57.4908794,9.05888892 L57.7136617,8.8453333 L65.452285,8.8453333 L65.6750672,8.63407414 L65.6750672,8.00029629 L65.452285,7.78674075 L57.7136617,7.78674075 L57.4908794,7.57548148 L57.4908794,2.28251852 L57.7136617,2.07125925 L65.8978495,2.07125925 L66.1157354,1.86 L66.1157354,1.22392592 L65.8978495,1.01266667 L56.3867608,1.01266667 L56.1688748,1.22392592 L56.1688748,15.6194074 L56.3867608,15.8306667 L65.8978495,15.8306667 L66.1157354,15.617111 Z" id="Shape"></path>
            <path d="M52.6508736,12.8845185 L52.6508736,15.8283704 L42.6623944,15.8283704 L42.6623944,1.01037037 L46.1779474,1.01037037 L46.1779474,12.8845185 L52.6508736,12.8845185 Z M42.6648425,1.01266667 L46.1803956,1.01266667 L42.6648425,1.01266667 Z M6.47619048,15.8306667 C10.0774289,15.8306667 13.1057987,13.4769629 13.9699981,10.2851111 L22.7270546,16.8341482 L31.4792147,10.2897037 L31.4792147,15.8306667 L41.4676939,15.8306667 L41.4676939,12.8868148 L34.9972158,12.8868148 L34.9972158,1.01266667 L31.4816628,1.01266667 L31.4816628,6.55362963 L23.0893817,12.834 L21.2116456,11.430963 L25.2315188,8.42511111 L29.6063748,5.15288889 L27.109255,3.2837037 L18.7120776,9.56407412 L16.8343414,8.161037 L25.2315188,1.88066667 L22.7319509,0.0114814803 L13.9748944,6.56281481 C13.1106951,3.37325925 10.0823253,1.01725925 6.48108679,1.01725925 L0.206461214,1.01725925 L0.206461214,15.8352592 L6.47619048,15.8352592 L6.47619048,15.8306667 Z M3.71711789,12.8845185 L3.71711789,3.95651852 L6.47619048,3.95651852 C8.80928383,3.95651852 10.6992608,5.9542963 10.6992608,8.42051852 C10.6992608,10.8867408 8.80928383,12.8845185 6.47619048,12.8845185 L3.71711789,12.8845185 L3.71711789,12.8845185 Z" id="Shape"></path>
        </g>
    </g>
</svg>