<?xml version="1.0" encoding="UTF-8"?>
<svg width="80px" height="68px" viewBox="0 0 80 68" version="1.1" xmlns="http://www.w3.org/2000/svg" xmlns:xlink="http://www.w3.org/1999/xlink">
    <!-- Generator: Sketch 45.2 (43514) - http://www.bohemiancoding.com/sketch -->
    <title>desktop</title>
    <desc>Created with Sketch.</desc>
    <defs></defs>
    <g id="Page-1" stroke="none" stroke-width="1" fill="none" fill-rule="evenodd">
        <g id="desktop">
            <path d="M39.9670217,54.5397423 C38.4878895,54.5397423 37.2845759,53.3318416 37.2845759,51.8470709 C37.2845759,50.3623002 38.4878895,49.1543995 39.9670217,49.1543995 C41.4461538,49.1543995 42.6494675,50.3623002 42.6494675,51.8470709 C42.6494675,53.3318416 41.4461538,54.5397423 39.9670217,54.5397423 Z M39.9670217,50.2631466 C39.0969625,50.2631466 38.3891124,50.973695 38.3891124,51.8470709 C38.3891124,52.7204468 39.0969625,53.4309953 39.9670217,53.4309953 C40.8370809,53.4309953 41.544931,52.7204468 41.544931,51.8470709 C41.544931,50.973695 40.8369231,50.2631466 39.9670217,50.2631466 Z" id="Shape" fill="#4D4D4F" fill-rule="nonzero"></path>
            <path d="M76.1374359,57.3380615 L3.7964497,57.3380615 C1.72844181,57.3380615 0.0457593688,55.6491229 0.0457593688,53.5730733 L0.0457593688,3.76498818 C0.0457593688,1.68909693 1.72828402,0 3.7964497,0 L76.1374359,0 C78.2054438,0 79.8881262,1.68893853 79.8881262,3.76498818 L79.8881262,53.5730733 C79.8881262,55.6491229 78.2056016,57.3380615 76.1374359,57.3380615 Z M3.7964497,1.26713948 C2.42445759,1.26713948 1.30808679,2.38760757 1.30808679,3.76498818 L1.30808679,53.5730733 C1.30808679,54.9502955 2.4242998,56.070922 3.7964497,56.070922 L76.1374359,56.070922 C77.509428,56.070922 78.6257988,54.9504539 78.6257988,53.5730733 L78.6257988,3.76498818 C78.6257988,2.38776596 77.5095858,1.26713948 76.1374359,1.26713948 L3.7964497,1.26713948 Z" id="Shape" fill="#4D4D4F" fill-rule="nonzero"></path>
            <path d="M72.8063116,48.1657139 L7.12773176,48.1657139 C5.19984221,48.1657139 3.63140039,46.5914515 3.63140039,44.6562128 L3.63140039,6.30370213 C3.63140039,4.36846336 5.19984221,2.79404255 7.12773176,2.79404255 L72.8063116,2.79404255 C74.7342012,2.79404255 76.3024852,4.36846336 76.3024852,6.30370213 L76.3024852,44.6560544 C76.3024852,46.5912931 74.7342012,48.1657139 72.8063116,48.1657139 Z M7.12773176,4.06134043 C5.89585799,4.06134043 4.89372781,5.06729078 4.89372781,6.30386052 L4.89372781,44.6562128 C4.89372781,45.8927825 5.89601578,46.8985745 7.12773176,46.8985745 L72.8063116,46.8985745 C74.0381854,46.8985745 75.0401578,45.8926241 75.0401578,44.6562128 L75.0401578,6.30370213 C75.0401578,5.06713239 74.0380276,4.06118203 72.8063116,4.06118203 L7.12773176,4.06118203 L7.12773176,4.06134043 Z" id="Shape" fill="#4D4D4F" fill-rule="nonzero"></path>
            <rect id="Rectangle-path" stroke="#4D4D4F" x="28.8432347" y="56.7130449" width="22.2474162" height="8.51992908"></rect>
            <path d="M57.2945168,66.928565 L22.6393688,66.928565 C22.2131755,66.928565 21.8676134,66.5816856 21.8676134,66.1538676 L21.8676134,66.0114728 C21.8676134,65.5836548 22.2131755,65.2367754 22.6393688,65.2367754 L57.2945168,65.2367754 C57.7207101,65.2367754 58.0662722,65.5836548 58.0662722,66.0114728 L58.0662722,66.1538676 C58.0662722,66.5816856 57.7207101,66.928565 57.2945168,66.928565 Z" id="Shape" stroke="#4D4D4F"></path>
        </g>
    </g>
</svg>