<?xml version="1.0" encoding="UTF-8"?>
<svg width="30px" height="30px" viewBox="0 0 30 30" version="1.1" xmlns="http://www.w3.org/2000/svg" xmlns:xlink="http://www.w3.org/1999/xlink">
    <!-- Generator: Sketch 45.2 (43514) - http://www.bohemiancoding.com/sketch -->
    <title>White</title>
    <desc>Created with Sketch.</desc>
    <defs></defs>
    <g id="Page-1" stroke="none" stroke-width="1" fill="none" fill-rule="evenodd">
        <g id="FB-fLogo_2016" transform="translate(-635.000000, -112.000000)" fill-rule="nonzero" fill="#FFFFFF">
            <g id="White" transform="translate(635.000000, 112.000000)">
                <path d="M28.2892164,0.0619029851 L1.71078358,0.0619029851 C0.799925373,0.0619029851 0.0617910448,0.800037313 0.0617910448,1.71089552 L0.0617910448,28.2893284 C0.0617910448,29.1999627 0.799925373,29.938209 1.71078358,29.938209 L16.0196642,29.938209 L16.0196642,18.3685075 L12.1262687,18.3685075 L12.1262687,13.8595522 L16.0196642,13.8595522 L16.0196642,10.5343657 C16.0196642,6.67544776 18.3765672,4.57421642 21.8189552,4.57421642 C23.4678358,4.57421642 24.8851119,4.69701493 25.2980597,4.75186567 L25.2980597,8.78462687 L22.910597,8.78574627 C21.0383955,8.78574627 20.6759328,9.67533582 20.6759328,10.9807836 L20.6759328,13.8595522 L25.1408955,13.8595522 L24.5595896,18.3685075 L20.6760448,18.3685075 L20.6760448,29.938097 L28.2893284,29.938097 C29.1999627,29.938097 29.938209,29.1997388 29.938209,28.2892164 L29.938209,1.71078358 C29.938097,0.799925373 29.1998507,0.0619029851 28.2892164,0.0619029851 Z" id="White_2_"></path>
            </g>
        </g>
    </g>
</svg>