<?xml version="1.0" encoding="UTF-8"?>
<svg width="196px" height="58px" viewBox="0 0 196 58" version="1.1" xmlns="http://www.w3.org/2000/svg" xmlns:xlink="http://www.w3.org/1999/xlink">
    <!-- Generator: Sketch 45.2 (43514) - http://www.bohemiancoding.com/sketch -->
    <title>google-play-badge</title>
    <desc>Created with Sketch.</desc>
    <defs>
        <linearGradient x1="91.5031719%" y1="4.96470025%" x2="-38.3312703%" y2="71.9041921%" id="linearGradient-1">
            <stop stop-color="#00A0FF" offset="0%"></stop>
            <stop stop-color="#00A1FF" offset="0.66%"></stop>
            <stop stop-color="#00BEFF" offset="26.01%"></stop>
            <stop stop-color="#00D2FF" offset="51.22%"></stop>
            <stop stop-color="#00DFFF" offset="76.04%"></stop>
            <stop stop-color="#00E3FF" offset="100%"></stop>
        </linearGradient>
        <linearGradient x1="107.584239%" y1="49.9988308%" x2="-130.468788%" y2="49.9988308%" id="linearGradient-2">
            <stop stop-color="#FFE000" offset="0%"></stop>
            <stop stop-color="#FFBD00" offset="40.87%"></stop>
            <stop stop-color="#FFA500" offset="77.54%"></stop>
            <stop stop-color="#FF9C00" offset="100%"></stop>
        </linearGradient>
        <linearGradient x1="86.2467789%" y1="17.8460774%" x2="-50.1366333%" y2="194.808468%" id="linearGradient-3">
            <stop stop-color="#FF3A44" offset="0%"></stop>
            <stop stop-color="#C31162" offset="100%"></stop>
        </linearGradient>
        <linearGradient x1="-18.81038%" y1="-54.1564869%" x2="42.0945703%" y2="24.8665195%" id="linearGradient-4">
            <stop stop-color="#32A071" offset="0%"></stop>
            <stop stop-color="#2DA771" offset="6.85%"></stop>
            <stop stop-color="#15CF74" offset="47.62%"></stop>
            <stop stop-color="#06E775" offset="80.09%"></stop>
            <stop stop-color="#00F076" offset="100%"></stop>
        </linearGradient>
    </defs>
    <g id="Page-1" stroke="none" stroke-width="1" fill="none" fill-rule="evenodd">
        <g id="google-play-badge" fill-rule="nonzero">
            <path d="M188.740741,58 L7.25925926,58 C3.26666667,58 0,54.7375 0,50.75 L0,7.25 C0,3.2625 3.26666667,0 7.25925926,0 L188.740741,0 C192.733333,0 196,3.2625 196,7.25 L196,50.75 C196,54.7375 192.733333,58 188.740741,58 Z" id="Shape" fill="#000000"></path>
            <path d="M188.740741,1.16 C192.10323,1.16 194.838519,3.8918 194.838519,7.25 L194.838519,50.75 C194.838519,54.1082 192.10323,56.84 188.740741,56.84 L7.25925926,56.84 C3.89677037,56.84 1.16148148,54.1082 1.16148148,50.75 L1.16148148,7.25 C1.16148148,3.8918 3.89677037,1.16 7.25925926,1.16 L188.740741,1.16 L188.740741,1.16 Z M188.740741,0 L7.25925926,0 C3.26666667,0 0,3.2625 0,7.25 L0,50.75 C0,54.7375 3.26666667,58 7.25925926,58 L188.740741,58 C192.733333,58 196,54.7375 196,50.75 L196,7.25 C196,3.2625 192.733333,0 188.740741,0 L188.740741,0 Z" id="Shape" fill="#A6A6A6"></path>
            <g id="Group" transform="translate(59.525926, 8.700000)" stroke="#FFFFFF" stroke-width="0.2" fill="#FFFFFF">
                <path d="M9.31798519,6.15235 C9.31798519,7.36745 8.95792593,8.3346 8.23635556,9.0567 C7.41751111,9.9151 6.34894815,10.3443 5.03647407,10.3443 C3.77917037,10.3443 2.70915556,9.9093 1.83078519,9.0393 C0.950962963,8.16785 0.511051852,7.08905 0.511051852,5.80145 C0.511051852,4.5124 0.950962963,3.4336 1.83078519,2.5636 C2.70915556,1.69215 3.77917037,1.25715 5.03647407,1.25715 C5.66077037,1.25715 6.25748148,1.37895 6.8237037,1.62255 C7.39137778,1.86615 7.84580741,2.1895 8.18554074,2.59405 L7.42041481,3.35965 C6.84402963,2.6709 6.04986667,2.32725 5.03502222,2.32725 C4.11745185,2.32725 3.32474074,2.64915 2.65543704,3.29295 C1.98613333,3.93675 1.65220741,4.7734 1.65220741,5.80145 C1.65220741,6.8295 1.98613333,7.66615 2.65543704,8.30995 C3.32474074,8.95375 4.11745185,9.27565 5.03502222,9.27565 C6.00776296,9.27565 6.81934815,8.9523 7.46832593,8.30415 C7.88936296,7.8822 8.13327407,7.29495 8.19860741,6.5424 L5.03502222,6.5424 L5.03502222,5.49695 L9.25555556,5.49695 C9.29911111,5.72315 9.31798519,5.9421 9.31798519,6.15235 Z" id="Shape"></path>
                <polygon id="Shape" points="16.0110222 2.51865 12.044563 2.51865 12.044563 5.27655 15.6219259 5.27655 15.6219259 6.322 12.044563 6.322 12.044563 9.0799 16.0110222 9.0799 16.0110222 10.15 10.9251852 10.15 10.9251852 1.45 16.0110222 1.45"></polygon>
                <polygon id="Shape" points="20.7309926 10.15 19.6116148 10.15 19.6116148 2.51865 17.1783111 2.51865 17.1783111 1.45 23.1642963 1.45 23.1642963 2.51865 20.7309926 2.51865"></polygon>
                <polygon id="Shape" points="27.4951704 10.15 27.4951704 1.45 28.6145481 1.45 28.6145481 10.15"></polygon>
                <polygon id="Shape" points="33.5784296 10.15 32.4590519 10.15 32.4590519 2.51865 30.0257481 2.51865 30.0257481 1.45 36.0117333 1.45 36.0117333 2.51865 33.5784296 2.51865"></polygon>
                <path d="M47.343437,9.02625 C46.4868444,9.9064 45.422637,10.3443 44.149363,10.3443 C42.8760889,10.3443 41.8118815,9.90495 40.9567407,9.02625 C40.1001481,8.14755 39.6733037,7.07165 39.6733037,5.8 C39.6733037,4.52835 40.1001481,3.45245 40.9567407,2.57375 C41.8118815,1.6936 42.8760889,1.25425 44.149363,1.25425 C45.4153778,1.25425 46.4781333,1.6965 47.3376296,2.57955 C48.1971259,3.4626 48.6268741,4.5356 48.6268741,5.8 C48.6268741,7.07165 48.1985778,8.14755 47.343437,9.02625 Z M41.7828444,8.2969 C42.4274667,8.9494 43.2158222,9.2742 44.149363,9.2742 C45.0829037,9.2742 45.8727111,8.94795 46.5158815,8.2969 C47.1605037,7.6444 47.4842667,6.8121 47.4842667,5.8 C47.4842667,4.7879 47.1605037,3.9556 46.5158815,3.3031 C45.8727111,2.6506 45.0829037,2.3258 44.149363,2.3258 C43.2158222,2.3258 42.4274667,2.65205 41.7828444,3.3031 C41.1396741,3.9556 40.8159111,4.7879 40.8159111,5.8 C40.8159111,6.8121 41.1396741,7.6444 41.7828444,8.2969 Z" id="Shape"></path>
                <polygon id="Shape" points="50.1977778 10.15 50.1977778 1.45 51.5596148 1.45 55.7932148 8.21715 55.8411259 8.21715 55.7932148 6.54095 55.7932148 1.45 56.9125926 1.45 56.9125926 10.15 55.7438519 10.15 51.3142519 3.0537 51.2663407 3.0537 51.3142519 4.7299 51.3142519 10.15"></polygon>
            </g>
            <path d="M98.9233778,31.5404 C95.5086222,31.5404 92.7254222,34.133 92.7254222,37.70725 C92.7254222,41.2583 95.5086222,43.8741 98.9233778,43.8741 C102.338133,43.8741 105.121333,41.2583 105.121333,37.70725 C105.121333,34.133 102.338133,31.5404 98.9233778,31.5404 Z M98.9233778,41.4439 C97.0519407,41.4439 95.4374815,39.90255 95.4374815,37.7058 C95.4374815,35.4873 97.0519407,33.9677 98.9233778,33.9677 C100.794815,33.9677 102.407822,35.48585 102.407822,37.7058 C102.407822,39.90255 100.794815,41.4439 98.9233778,41.4439 Z M85.4022815,31.5404 C81.9875259,31.5404 79.2043259,34.133 79.2043259,37.70725 C79.2043259,41.2583 81.9875259,43.8741 85.4022815,43.8741 C88.817037,43.8741 91.600237,41.2583 91.600237,37.70725 C91.600237,34.133 88.817037,31.5404 85.4022815,31.5404 Z M85.4022815,41.4439 C83.5308444,41.4439 81.9163852,39.90255 81.9163852,37.7058 C81.9163852,35.4873 83.5308444,33.9677 85.4022815,33.9677 C87.2737185,33.9677 88.8867259,35.48585 88.8867259,37.7058 C88.8867259,39.90255 87.2722667,41.4439 85.4022815,41.4439 Z M69.3172148,33.43265 L69.3172148,36.04845 L75.5863111,36.04845 C75.3990222,37.5202 74.9082963,38.59465 74.1591407,39.34285 C73.2473778,40.25345 71.8202074,41.2583 69.3172148,41.2583 C65.4581926,41.2583 62.4412444,38.15095 62.4412444,34.29685 C62.4412444,30.44275 65.4581926,27.3354 69.3172148,27.3354 C71.3991704,27.3354 72.9192593,28.1532 74.0415407,29.20445 L75.8897481,27.3586 C74.3232,25.86365 72.2412444,24.7196 69.3172148,24.7196 C64.0310222,24.7196 59.5869037,29.0174 59.5869037,34.29685 C59.5869037,39.5763 64.0310222,43.8741 69.3172148,43.8741 C72.1715556,43.8741 74.3232,42.9403 76.0073481,41.18725 C77.7379556,39.45885 78.2765926,37.02865 78.2765926,35.0668 C78.2765926,34.45925 78.2301333,33.8981 78.135763,33.4312 L69.3172148,33.4312 L69.3172148,33.43265 Z M135.097719,35.4641 C134.583763,34.08515 133.015763,31.5404 129.811526,31.5404 C126.630519,31.5404 123.988148,34.0402 123.988148,37.70725 C123.988148,41.16405 126.607289,43.8741 130.116415,43.8741 C132.946074,43.8741 134.583763,42.1457 135.261778,41.14085 L133.156593,39.7387 C132.455348,40.76675 131.495674,41.4439 130.116415,41.4439 C128.735704,41.4439 127.754252,40.81315 127.122696,39.57485 L135.379378,36.16445 L135.097719,35.4641 Z M126.676978,37.5202 C126.607289,35.13785 128.525185,33.92275 129.904444,33.92275 C130.980267,33.92275 131.89203,34.45925 132.196919,35.23065 L126.676978,37.5202 Z M119.965067,43.5 L122.678578,43.5 L122.678578,25.37355 L119.965067,25.37355 L119.965067,43.5 Z M115.519496,32.9179 L115.426578,32.9179 C114.818252,32.19435 113.649511,31.5404 112.175881,31.5404 C109.087793,31.5404 106.258133,34.25045 106.258133,37.73045 C106.258133,41.18725 109.087793,43.8741 112.175881,43.8741 C113.649511,43.8741 114.818252,43.22015 115.426578,42.47195 L115.519496,42.47195 L115.519496,43.35935 C115.519496,45.7185 114.256385,46.98 112.220889,46.98 C110.55997,46.98 109.530607,45.7881 109.10957,44.7847 L106.747407,45.76635 C107.425422,47.40195 109.22717,49.4102 112.220889,49.4102 C115.401896,49.4102 118.092178,47.54115 118.092178,42.9867 L118.092178,31.9145 L115.519496,31.9145 L115.519496,32.9179 L115.519496,32.9179 Z M112.40963,41.4439 C110.538193,41.4439 108.971644,39.87935 108.971644,37.729 C108.971644,35.5569 110.538193,33.9677 112.40963,33.9677 C114.257837,33.9677 115.708237,35.55545 115.708237,37.729 C115.706785,39.87935 114.257837,41.4439 112.40963,41.4439 Z M147.80723,25.37355 L141.316,25.37355 L141.316,43.5 L144.025156,43.5 L144.025156,36.6328 L147.808681,36.6328 C150.811111,36.6328 153.762726,34.46215 153.762726,31.0039 C153.762726,27.54565 150.809659,25.37355 147.80723,25.37355 Z M147.876919,34.1098 L144.023704,34.1098 L144.023704,27.89655 L147.876919,27.89655 C149.902252,27.89655 151.052119,29.5713 151.052119,31.0039 C151.052119,32.4075 149.902252,34.1098 147.876919,34.1098 Z M164.619674,31.50705 C162.658222,31.50705 160.627081,32.3698 159.786459,34.28235 L162.192178,35.28575 C162.706133,34.28235 163.662904,33.9561 164.667585,33.9561 C166.068622,33.9561 167.492889,34.79565 167.516119,36.2877 L167.516119,36.47475 C167.025393,36.1949 165.974252,35.7744 164.690815,35.7744 C162.099259,35.7744 159.459793,37.19685 159.459793,39.85615 C159.459793,42.282 161.585304,43.84365 163.966341,43.84365 C165.788415,43.84365 166.791644,43.0273 167.421748,42.07175 L167.514667,42.07175 L167.514667,43.471 L170.129452,43.471 L170.129452,36.52115 C170.129452,33.30215 167.725185,31.50705 164.619674,31.50705 Z M164.293007,41.441 C163.405926,41.441 162.167496,40.9973 162.167496,39.9011 C162.167496,38.50185 163.709363,37.96535 165.039259,37.96535 C166.229778,37.96535 166.790193,38.222 167.514667,38.57145 C167.304148,40.252 165.856652,41.441 164.293007,41.441 Z M179.656504,31.9029 L176.550993,39.7619 L176.458074,39.7619 L173.236415,31.9029 L170.318193,31.9029 L175.151407,42.88665 L172.395793,48.99695 L175.221096,48.99695 L182.670548,31.9029 L179.656504,31.9029 Z M155.25523,43.5 L157.964385,43.5 L157.964385,25.37355 L155.25523,25.37355 L155.25523,43.5 Z" id="Shape" fill="#FFFFFF"></path>
            <g id="Group" transform="translate(13.066667, 10.150000)">
                <path d="M2.08340741,0.7801 C1.66091852,1.2267 1.4112,1.9198 1.4112,2.81735 L1.4112,34.88555 C1.4112,35.78455 1.66091852,36.4762 2.08340741,36.9228 L2.19084444,37.0272 L20.177837,19.06315 L20.177837,18.85145 L20.177837,18.63975 L2.19084444,0.67425 L2.08340741,0.7801 Z" id="Shape" fill="url(#linearGradient-1)"></path>
                <path d="M26.1739852,25.0531 L20.1792889,19.06315 L20.1792889,18.85145 L20.1792889,18.63975 L26.175437,12.65125 L26.3104593,12.7281 L33.4143704,16.7591 C35.4440593,17.9104 35.4440593,19.79395 33.4143704,20.9467 L26.3104593,24.9777 L26.1739852,25.0531 Z" id="Shape" fill="url(#linearGradient-2)"></path>
                <path d="M26.3104593,24.97625 L20.1792889,18.85145 L2.08340741,36.9228 C2.75271111,37.6304 3.85611852,37.7174 5.10035556,37.01125 L26.3104593,24.97625" id="Shape" fill="url(#linearGradient-3)"></path>
                <path d="M26.3104593,12.72665 L5.10180741,0.69165 C3.85757037,-0.0145 2.75416296,0.07395 2.08485926,0.7801 L20.1792889,18.85145 L26.3104593,12.72665 Z" id="Shape" fill="url(#linearGradient-4)"></path>
                <g transform="translate(0.000000, 24.650000)" id="Shape" fill="#000000">
                    <path d="M26.175437,0.1914 L5.10180741,12.14955 C3.9229037,12.818 2.86885926,12.7745 2.1922963,12.1655 L2.1922963,12.1655 L2.08485926,12.27425 L2.08485926,12.27425 L2.1922963,12.37865 L2.1922963,12.37865 C2.86885926,12.98765 3.9229037,13.0326 5.10180741,12.3627 L26.3104593,0.3277 L26.175437,0.1914 Z" opacity="0.2"></path>
                    <path d="M2.08340741,12.0611 C1.66091852,11.6145 1.4112,10.9214 1.4112,10.02385 L1.4112,10.23555 C1.4112,11.1331 1.66091852,11.8262 2.08340741,12.2728 L2.19084444,12.16405 L2.08340741,12.0611 Z" opacity="0.12"></path>
                </g>
                <path d="M33.4143704,20.73355 L26.175437,24.8414 L26.3104593,24.97625 L33.4143704,20.94525 C34.4292148,20.3696 34.9359111,19.61125 34.9359111,18.8529 L34.9359111,18.8529 C34.8502519,19.53875 34.3333926,20.21155 33.4143704,20.73355 Z" id="Shape" fill="#000000" opacity="0.12"></path>
                <path d="M5.10180741,0.90335 L33.4143704,16.96935 C34.3348444,17.49135 34.8502519,18.16415 34.9359111,18.85145 L34.9359111,18.85145 C34.9359111,18.0931 34.4292148,17.3333 33.4143704,16.75765 L5.10180741,0.69165 C3.07211852,-0.45965 1.41265185,0.4959 1.41265185,2.81735 L1.41265185,3.02905 C1.41265185,0.70905 3.07211852,-0.24795 5.10180741,0.90335 Z" id="Shape" fill="#FFFFFF" opacity="0.25"></path>
            </g>
        </g>
    </g>
</svg>