<?xml version="1.0" encoding="UTF-8"?>
<svg width="166px" height="58px" viewBox="0 0 166 58" version="1.1" xmlns="http://www.w3.org/2000/svg" xmlns:xlink="http://www.w3.org/1999/xlink">
    <!-- Generator: Sketch 46.1 (44463) - http://www.bohemiancoding.com/sketch -->
    <title>How-to-Headset</title>
    <desc>Created with Sketch.</desc>
    <defs></defs>
    <g id="Page-1" stroke="none" stroke-width="1" fill="none" fill-rule="evenodd">
        <g id="How-to-Headset" fill-rule="nonzero" fill="#4D4D4F">
            <g id="Group" transform="translate(109.478528, 16.522255)">
                <g transform="translate(50.920245, 12.391691)" id="Shape">
                    <path d="M0.882617587,8.46765579 C0.62801636,8.46765579 0.407361963,8.2611276 0.407361963,7.98575668 L0.407361963,0.860534125 C0.407361963,0.602373887 0.611042945,0.378635015 0.882617587,0.378635015 C1.15419223,0.378635015 1.35787321,0.585163205 1.35787321,0.860534125 L1.35787321,7.98575668 C1.35787321,8.24391691 1.13721881,8.46765579 0.882617587,8.46765579 Z"></path>
                    <path d="M0.882617587,8.72581602 C0.492229039,8.72581602 0.152760736,8.39881306 0.152760736,7.98575668 L0.152760736,0.860534125 C0.152760736,0.447477745 0.475255624,0.120474777 0.882617587,0.120474777 C1.28997955,0.120474777 1.61247444,0.447477745 1.61247444,0.860534125 L1.61247444,7.98575668 C1.61247444,8.38160237 1.28997955,8.72581602 0.882617587,8.72581602 Z M0.882617587,0.636795252 C0.763803681,0.636795252 0.66196319,0.740059347 0.66196319,0.860534125 L0.66196319,7.98575668 C0.66196319,8.10623145 0.763803681,8.20949555 0.882617587,8.20949555 C1.00143149,8.20949555 1.10327198,8.10623145 1.10327198,7.98575668 L1.10327198,0.860534125 C1.10327198,0.740059347 1.00143149,0.636795252 0.882617587,0.636795252 Z"></path>
                </g>
                <g>
                    <g id="Shape">
                        <path d="M56.1820041,4.28545994 L56.1820041,29.3614243 C56.1820041,31.5127596 54.4676892,33.2510386 52.3460123,33.2510386 L4.09059305,33.2510386 C1.96891616,33.2510386 0.254601227,31.5127596 0.254601227,29.3614243 L0.254601227,4.28545994 C0.254601227,2.13412463 1.96891616,0.395845697 4.09059305,0.395845697 L52.3460123,0.395845697 C54.4676892,0.395845697 56.1820041,2.13412463 56.1820041,4.28545994 Z M1.18813906,29.3442136 C1.18813906,30.9620178 2.49509202,32.2872404 4.09059305,32.2872404 L52.3460123,32.2872404 C53.9415133,32.2872404 55.2484663,30.9620178 55.2484663,29.3442136 L55.2484663,4.28545994 C55.2484663,2.66765579 53.9415133,1.34243323 52.3460123,1.34243323 L4.09059305,1.34243323 C2.49509202,1.34243323 1.18813906,2.66765579 1.18813906,4.28545994 L1.18813906,29.3442136 Z"></path>
                        <path d="M52.3460123,33.4919881 L4.09059305,33.4919881 C1.83312883,33.4919881 0,31.6332344 0,29.3442136 L0,4.28545994 C0,1.99643917 1.83312883,0.13768546 4.09059305,0.13768546 L52.3460123,0.13768546 C54.6034765,0.13768546 56.4366053,1.99643917 56.4366053,4.28545994 L56.4366053,29.3614243 C56.4366053,31.6332344 54.6034765,33.4919881 52.3460123,33.4919881 Z M4.09059305,0.654005935 C2.12167689,0.654005935 0.509202454,2.28902077 0.509202454,4.28545994 L0.509202454,29.3614243 C0.509202454,31.3578635 2.12167689,32.9928783 4.09059305,32.9928783 L52.3460123,32.9928783 C54.3149284,32.9928783 55.9274029,31.3578635 55.9274029,29.3614243 L55.9274029,4.28545994 C55.9274029,2.28902077 54.3149284,0.654005935 52.3460123,0.654005935 L4.09059305,0.654005935 Z M52.3460123,32.5454006 L4.09059305,32.5454006 C2.3593047,32.5454006 0.933537832,31.1169139 0.933537832,29.3442136 L0.933537832,4.28545994 C0.933537832,2.52997033 2.34233129,1.084273 4.09059305,1.084273 L52.3460123,1.084273 C54.0773006,1.084273 55.5030675,2.51275964 55.5030675,4.28545994 L55.5030675,29.3614243 C55.5030675,31.1169139 54.094274,32.5454006 52.3460123,32.5454006 Z M4.09059305,1.60059347 C2.63087935,1.60059347 1.44274029,2.80534125 1.44274029,4.28545994 L1.44274029,29.3614243 C1.44274029,30.841543 2.63087935,32.0462908 4.09059305,32.0462908 L52.3460123,32.0462908 C53.805726,32.0462908 54.993865,30.841543 54.993865,29.3614243 L54.993865,4.28545994 C54.993865,2.80534125 53.805726,1.60059347 52.3460123,1.60059347 L4.09059305,1.60059347 Z"></path>
                    </g>
                    <g transform="translate(4.243354, 0.516320)">
                        <rect id="Rectangle-path" x="0.356441718" y="0.378635015" width="1" height="31.8397626"></rect>
                        <path d="M1.54458078,32.4765579 L0.101840491,32.4765579 L0.101840491,0.120474777 L1.54458078,0.120474777 L1.54458078,32.4765579 Z M0.611042945,31.9602374 L1.03537832,31.9602374 L1.03537832,0.636795252 L0.611042945,0.636795252 L0.611042945,31.9602374 Z" id="Shape"></path>
                    </g>
                    <g transform="translate(48.034765, 0.516320)">
                        <rect id="Rectangle-path" x="0.254601227" y="0.378635015" width="1" height="31.8397626"></rect>
                        <path d="M1.44274029,32.4765579 L0,32.4765579 L0,0.120474777 L1.44274029,0.120474777 L1.44274029,32.4765579 Z M0.509202454,31.9602374 L0.933537832,31.9602374 L0.933537832,0.636795252 L0.509202454,0.636795252 L0.509202454,31.9602374 Z" id="Shape"></path>
                    </g>
                </g>
            </g>
            <path d="M27.9552147,46.021365 C21.4883436,46.021365 16.2096115,40.6860534 16.2096115,34.1115727 C16.2096115,27.537092 21.4713701,22.2017804 27.9552147,22.2017804 C34.4390593,22.2017804 39.700818,27.537092 39.700818,34.1115727 C39.700818,40.6860534 34.4220859,46.021365 27.9552147,46.021365 Z M27.9552147,23.578635 C22.2351738,23.578635 17.5674847,28.3115727 17.5674847,34.1115727 C17.5674847,39.9115727 22.2182004,44.6445104 27.9552147,44.6445104 C33.6752556,44.6445104 38.3429448,39.9115727 38.3429448,34.1115727 C38.3259714,28.294362 33.6752556,23.578635 27.9552147,23.578635 Z" id="Shape"></path>
            <path d="M29.4488753,47.8456973 C22.1503067,47.8456973 16.2096115,41.8219585 16.2096115,34.421365 C16.2096115,27.0207715 22.1503067,20.9970326 29.4488753,20.9970326 C36.7474438,20.9970326 42.6881391,27.0207715 42.6881391,34.421365 C42.6881391,41.8219585 36.7474438,47.8456973 29.4488753,47.8456973 Z M29.4488753,22.3738872 C22.897137,22.3738872 17.5674847,27.7780415 17.5674847,34.421365 C17.5674847,41.0646884 22.897137,46.4688427 29.4488753,46.4688427 C36.0006135,46.4688427 41.3302658,41.0646884 41.3302658,34.421365 C41.3302658,27.7780415 36.0006135,22.3738872 29.4488753,22.3738872 Z" id="Shape"></path>
            <path d="M67.3335378,46.6409496 C60.8666667,46.6409496 55.5879346,41.305638 55.5879346,34.7311573 C55.5879346,28.1566766 60.8496933,22.821365 67.3335378,22.821365 C73.8173824,22.821365 79.0791411,28.1566766 79.0791411,34.7311573 C79.0791411,41.305638 73.800409,46.6409496 67.3335378,46.6409496 Z M67.3335378,24.2154303 C61.6134969,24.2154303 56.9458078,28.948368 56.9458078,34.748368 C56.9458078,40.548368 61.6134969,45.264095 67.3335378,45.264095 C73.0535787,45.264095 77.7212679,40.5311573 77.7212679,34.7311573 C77.7212679,28.9311573 73.0535787,24.2154303 67.3335378,24.2154303 Z" id="Shape"></path>
            <path d="M65.8398773,47.8456973 C58.5413088,47.8456973 52.6006135,41.8219585 52.6006135,34.421365 C52.6006135,27.0207715 58.5413088,20.9970326 65.8398773,20.9970326 C73.1384458,20.9970326 79.0791411,27.0207715 79.0791411,34.421365 C79.0791411,41.8219585 73.1384458,47.8456973 65.8398773,47.8456973 Z M65.8398773,22.3738872 C59.2881391,22.3738872 53.9584867,27.7780415 53.9584867,34.421365 C53.9584867,41.0646884 59.2881391,46.4688427 65.8398773,46.4688427 C72.3916155,46.4688427 77.7212679,41.0646884 77.7212679,34.421365 C77.7212679,27.7780415 72.3916155,22.3738872 65.8398773,22.3738872 Z" id="Shape"></path>
            <path d="M126.112474,52.7679525 L81.8797546,52.7679525 L81.8797546,51.2189911 L126.112474,51.2189911 C127.249693,51.2189911 128.166258,50.2896142 128.166258,49.1364985 L129.693865,49.1364985 C129.693865,51.1329377 128.081391,52.7679525 126.112474,52.7679525 Z" id="Shape"></path>
            <path d="M126.231288,55.1774481 L79.1809816,55.1774481 L79.1809816,53.6284866 L126.197342,53.6284866 C128.692434,53.5424332 130.287935,51.0468843 130.287935,50.0142433 L131.815542,50.0142433 C131.815542,52.0106825 129.473211,55.074184 126.231288,55.1774481 L126.231288,55.1774481 Z" id="Shape"></path>
            <path d="M129.693865,17.8130564 L128.166258,17.8130564 C128.166258,16.6599407 127.249693,15.7305638 126.112474,15.7305638 L82.5247444,15.7305638 L82.5247444,14.1816024 L126.112474,14.1816024 C128.081391,14.1988131 129.693865,15.8166172 129.693865,17.8130564 Z" id="Shape"></path>
            <path d="M17.0752556,12.35727 L75.599591,12.35727 L75.599591,11.1697329 C75.599591,10.0854599 74.7339468,9.19050445 73.6646217,9.19050445 L19.0102249,9.19050445 C17.9408998,9.19050445 17.0752556,10.0682493 17.0752556,11.1697329 L17.0752556,12.35727 Z M3.46257669,20.325816 C2.39325153,20.325816 1.52760736,21.2035608 1.52760736,22.3050445 L1.52760736,26.8142433 C1.52760736,27.8985163 2.39325153,28.7934718 3.46257669,28.7934718 L4.75255624,28.7934718 L4.49795501,25.8504451 C4.27730061,23.9744807 4.49795501,22.0813056 5.12597137,20.3430267 L3.46257669,20.3430267 L3.46257669,20.325816 Z M87.9222904,28.7762611 L89.1952965,28.7762611 C90.2646217,28.7762611 91.1302658,27.8985163 91.1302658,26.7970326 L91.1302658,22.2878338 C91.1302658,21.2035608 90.2646217,20.3086053 89.1952965,20.3086053 L87.5319018,20.3086053 C88.1599182,22.064095 88.3805726,23.95727 88.1599182,25.8504451 L87.9222904,28.7762611 Z M41.0586912,53.9727003 L51.6161554,53.9727003 C51.395501,52.7851632 50.3601227,51.872997 49.1380368,51.872997 L43.5198364,51.872997 C42.2977505,51.872997 41.2623722,52.7679525 41.0586912,53.9727003 L41.0586912,53.9727003 Z M43.5198364,50.410089 L49.1380368,50.410089 C51.2087935,50.410089 52.9400818,52.0623145 53.0758691,54.1620178 C53.1607362,55.504451 54.2640082,56.5543027 55.5879346,56.5543027 L69.7607362,56.5543027 C77.6873211,56.5543027 84.3748466,50.5133531 85.3253579,42.5275964 L86.7511247,25.7127596 C87.1075665,22.6664688 86.1740286,19.6373887 84.1881391,17.3655786 C82.2022495,15.0937685 79.3507157,13.8029674 76.3803681,13.8029674 L16.3114519,13.8029674 C13.3241309,13.8029674 10.4725971,15.0937685 8.50368098,17.3655786 C6.51779141,19.6373887 5.58425358,22.6664688 5.9406953,25.6783383 L7.36646217,42.5275964 C8.3,50.4961424 14.9875256,56.537092 22.9310838,56.537092 L37.1038855,56.537092 C38.4278119,56.537092 39.5310838,55.4872404 39.6159509,54.1448071 C39.7177914,52.0623145 41.4490798,50.410089 43.5198364,50.410089 L43.5198364,50.410089 Z M69.7607362,58 L55.5879346,58 C53.9075665,58 52.4648262,56.9329377 51.9047035,55.4183976 L40.7701431,55.4183976 C40.193047,56.9329377 38.7503067,58 37.0869121,58 L22.9141104,58 C14.2576687,58 6.9591002,51.4083086 5.92372188,42.6824926 L4.87137014,30.2219585 L3.46257669,30.2219585 C1.59550102,30.2219585 0.0848670757,28.6902077 0.0848670757,26.7970326 L0.0848670757,22.2878338 C0.0848670757,20.3946588 1.59550102,18.862908 3.46257669,18.862908 L5.75398773,18.862908 C6.21226994,17.9851632 6.75541922,17.1590504 7.41738241,16.4017804 C9.52208589,13.9922849 12.4924335,12.5465875 15.6325153,12.3744807 L15.6325153,11.1697329 C15.6325153,9.27655786 17.1431493,7.74480712 19.0102249,7.74480712 L73.6476483,7.74480712 C75.5147239,7.74480712 77.0253579,9.27655786 77.0253579,11.1697329 L77.0253579,12.3744807 C80.1654397,12.5637982 83.1357873,14.0094955 85.2404908,16.4017804 C85.902454,17.1590504 86.4625767,17.9851632 86.9038855,18.862908 L89.1952965,18.862908 C91.0623722,18.862908 92.5730061,20.3946588 92.5730061,22.2878338 L92.5730061,26.7970326 C92.5730061,28.6902077 91.0623722,30.2219585 89.1952965,30.2219585 L87.8034765,30.2219585 L86.7511247,42.6652819 C85.7157464,51.4255193 78.4171779,58 69.7607362,58 L69.7607362,58 Z" id="Shape"></path>
            <g id="Group" transform="translate(113.382413, 0.000000)">
                <path d="M6.07648262,0 C6.33108384,0 6.58568507,0.120474777 6.73844581,0.327002967 C7.02699387,0.705637982 6.9591002,1.23916914 6.58568507,1.53175074 L2.17259714,5.02551929 L6.07648262,9.19050445 C6.39897751,9.5347181 6.38200409,10.0854599 6.04253579,10.4124629 C5.70306748,10.7394659 5.1599182,10.7222552 4.83742331,10.3780415 L0.288548057,5.52462908 C0.118813906,5.35252226 0.0339468303,5.1115727 0.0509202454,4.87062315 C0.0678936605,4.62967359 0.186707566,4.40593472 0.373415133,4.25103858 L5.51635992,0.172106825 C5.70306748,0.06884273 5.88977505,0 6.07648262,0 Z" id="Shape"></path>
                <g transform="translate(0.509202, 4.130564)" id="Shape">
                    <path d="M22.1163599,1.9620178 L1.06932515,1.9620178 C0.560122699,1.9620178 0.135787321,1.53175074 0.135787321,1.01543027 C0.135787321,0.499109792 0.560122699,0.06884273 1.06932515,0.06884273 L22.1163599,0.06884273 C22.6255624,0.06884273 23.0498978,0.499109792 23.0498978,1.01543027 C23.0498978,1.53175074 22.6255624,1.9620178 22.1163599,1.9620178 Z"></path>
                </g>
            </g>
        </g>
    </g>
</svg>