<?xml version="1.0" encoding="UTF-8"?>
<svg width="168px" height="88px" viewBox="0 0 168 88" version="1.1" xmlns="http://www.w3.org/2000/svg" xmlns:xlink="http://www.w3.org/1999/xlink">
    <!-- Generator: Sketch 46.1 (44463) - http://www.bohemiancoding.com/sketch -->
    <title>How-to-Mobile</title>
    <desc>Created with Sketch.</desc>
    <defs></defs>
    <g id="Page-1" stroke="none" stroke-width="1" fill="none" fill-rule="evenodd">
        <g id="How-to-Mobile" fill-rule="nonzero" fill="#4D4D4F">
            <g id="Group">
                <g transform="translate(31.582245, 12.100000)">
                    <path d="M8.31227154,37.994 C7.82976501,37.994 7.43498695,37.598 7.43498695,37.114 L7.43498695,23.914 C7.43498695,23.43 7.82976501,23.034 8.31227154,23.034 C8.79477807,23.034 9.18955614,23.43 9.18955614,23.914 L9.18955614,37.114 C9.18955614,37.598 8.79477807,37.994 8.31227154,37.994 Z" id="Shape"></path>
                    <g>
                        <path d="M0.109660574,53.724 L0.109660574,7.304 C0.109660574,3.344 3.33368146,0.11 7.28146214,0.11 L97.6417755,0.11 C101.611488,0.11 104.813577,3.344 104.813577,7.304 L104.813577,53.724 C104.813577,57.684 101.589556,60.918 97.6417755,60.918 L7.28146214,60.918 C3.33368146,60.918 0.109660574,57.684 0.109660574,53.724 Z M103.08094,7.304 C103.08094,4.312 100.646475,1.87 97.6637076,1.87 L7.30339426,1.87 C4.32062663,1.87 1.88616188,4.312 1.88616188,7.304 L1.88616188,53.724 C1.88616188,56.716 4.32062663,59.158 7.30339426,59.158 L97.6637076,59.158 C100.646475,59.158 103.08094,56.716 103.08094,53.724 L103.08094,7.304 Z" id="Shape"></path>
                        <rect id="Rectangle-path" x="94.9441253" y="1.034" width="1.75456919" height="58.96"></rect>
                        <rect id="Rectangle-path" x="13.1373368" y="1.034" width="1.75456919" height="58.96"></rect>
                    </g>
                </g>
                <path d="M75.3806789,35.662 C75.3587467,35.662 75.3368146,35.662 75.2929504,35.662 C74.9859008,35.64 74.7007833,35.486 74.5033943,35.244 L69.3274151,28.578 C68.9545692,28.094 69.0422977,27.412 69.5248042,27.038 C70.0073107,26.664 70.6872063,26.752 71.0600522,27.236 L75.5122715,32.956 L80.8198433,27.896 C81.2584856,27.478 81.9603133,27.5 82.3770235,27.94 C82.7937337,28.38 82.7718016,29.084 82.3331593,29.502 L76.1483029,35.398 C75.9289817,35.552 75.6657963,35.662 75.3806789,35.662 Z" id="Shape"></path>
                <path d="M75.4464752,34.254 C75.402611,34.254 75.3806789,34.254 75.3368146,34.254 C74.7446475,34.188 74.2840731,33.66 74.3498695,33.044 C75.2490862,23.936 77.310705,15.686 80.1618799,9.812 C83.232376,3.476 87.0266319,0.11 91.1498695,0.11 C95.2511749,0.11 99.0673629,3.454 102.137859,9.79 C102.401044,10.34 102.181723,11 101.63342,11.264 C101.085117,11.528 100.427154,11.308 100.163969,10.758 C97.5321149,5.302 94.3300261,2.31 91.1498695,2.31 C84.4605744,2.31 78.3195822,15.312 76.5430809,33.242 C76.4772846,33.814 75.9947781,34.254 75.4464752,34.254 Z" id="Shape"></path>
                <path d="M91.1279373,87.89 C87.1362924,87.89 83.4078329,84.7 80.381201,78.672 C77.5519582,73.018 75.5122715,65.362 74.5033943,56.496 C74.4375979,55.902 74.8762402,55.352 75.4684073,55.286 C76.0825065,55.22 76.6088773,55.66 76.6746736,56.254 C77.6396867,64.746 79.6574413,72.358 82.3331593,77.704 C83.6490862,80.322 85.0966057,82.346 86.6099217,83.71 C88.0793734,85.03 89.5926893,85.712 91.1279373,85.712 C94.7028721,85.712 98.2120104,82.016 101.019321,75.328 C101.260574,74.778 101.896606,74.514 102.444909,74.734 C102.993211,74.976 103.256397,75.614 103.037076,76.164 C99.8788512,83.732 95.645953,87.89 91.1279373,87.89 Z" id="Shape"></path>
                <path d="M91.3472585,47.718 C90.7550914,47.718 90.2506527,47.234 90.2506527,46.64 C90.2506527,46.024 90.7331593,45.54 91.3253264,45.518 C111.853786,45.276 130.86893,43.956 144.861619,41.844 C151.704439,40.81 157.033943,39.622 160.718538,38.346 C165.587467,36.652 165.828721,35.354 165.828721,35.112 C165.828721,34.32 164.052219,32.846 159.051697,31.35 C154.336292,29.92 147.318016,28.622 138.786423,27.566 C138.194256,27.5 137.755614,26.95 137.82141,26.334 C137.887206,25.74 138.435509,25.3 139.049608,25.366 C147.822454,26.444 154.774935,27.742 159.665796,29.238 C165.346214,30.954 168,32.824 168,35.112 C168,37.158 165.916449,38.852 161.398433,40.414 C157.582245,41.756 152.121149,42.966 145.146736,44.022 C131.110183,46.156 111.985379,47.454 91.3472585,47.718 C91.3691906,47.718 91.3472585,47.718 91.3472585,47.718 Z" id="Shape"></path>
                <path d="M71.6083551,47.63 C71.6083551,47.63 71.586423,47.63 71.586423,47.63 C52.110705,47.212 34.2360313,45.848 21.2522193,43.758 C14.7822454,42.724 9.69399478,41.536 6.1848564,40.238 C2.01775457,38.72 0.0657963446,37.07 0.0657963446,35.09 C0.0657963446,32.89 2.47832898,31.108 7.67624021,29.436 C12.1284595,28.006 18.4668407,26.752 26.5159269,25.674 C27.108094,25.586 27.678329,26.026 27.7441253,26.62 C27.8318538,27.214 27.3932115,27.786 26.8010444,27.852 C18.8835509,28.908 12.6767624,30.14 8.33420366,31.526 C3.8381201,32.956 2.23707572,34.342 2.23707572,35.09 C2.23707572,35.31 2.45639687,36.542 6.90861619,38.17 C10.308094,39.402 15.2428198,40.568 21.581201,41.58 C34.4772846,43.648 52.2422977,45.012 71.6083551,45.43 C72.2224543,45.452 72.7049608,45.936 72.6830287,46.552 C72.7049608,47.146 72.2224543,47.63 71.6083551,47.63 Z" id="Shape"></path>
            </g>
            <path d="M67.0684073,52.866 C66.7394256,52.866 66.4104439,52.712 66.2130548,52.448 C65.8402089,51.964 65.9279373,51.282 66.4104439,50.908 L72.1127937,46.442 L67.0684073,41.118 C66.6516971,40.678 66.6736292,39.974 67.1122715,39.556 C67.5509138,39.138 68.2527415,39.16 68.6694517,39.6 L74.5472585,45.804 C74.7665796,46.024 74.8762402,46.332 74.8543081,46.64 C74.832376,46.948 74.6788512,47.234 74.4375979,47.432 L67.7921671,52.624 C67.5289817,52.778 67.3096606,52.866 67.0684073,52.866 Z" id="Shape"></path>
            <g id="Group" transform="translate(75.446475, 43.560000)">
                <g id="Shape">
                    <path d="M3.5310705,3.3 C3.5310705,3.52 3.48720627,3.718 3.42140992,3.916 C3.35561358,4.114 3.245953,4.29 3.0924282,4.422 C2.93890339,4.576 2.76344648,4.686 2.54412533,4.774 C2.32480418,4.862 2.08355091,4.906 1.79843342,4.906 C1.53524804,4.906 1.29399478,4.862 1.09660574,4.796 C0.89921671,4.73 0.723759791,4.62 0.592167102,4.488 C0.460574413,4.356 0.350913838,4.224 0.285117493,4.07 C0.219321149,3.916 0.175456919,3.74 0.175456919,3.586 L0.241253264,3.52 L1.05274151,3.52 L1.11853786,3.586 C1.11853786,3.718 1.16240209,3.85 1.27206266,3.96 C1.38172324,4.07 1.55718016,4.136 1.77650131,4.136 C2.03968668,4.136 2.23707572,4.07 2.36866841,3.916 C2.5002611,3.762 2.56605744,3.564 2.56605744,3.322 C2.56605744,3.058 2.5002611,2.86 2.39060052,2.728 C2.28093995,2.596 2.10548303,2.53 1.90809399,2.53 C1.84229765,2.53 1.77650131,2.53 1.73263708,2.552 C1.68877285,2.574 1.64490862,2.574 1.60104439,2.596 C1.55718016,2.618 1.51331593,2.64 1.49138381,2.662 L1.16240209,2.662 L1.09660574,2.596 L1.09660574,2.002 L2.03968668,1.056 L2.03968668,0.99 L0.438642298,0.99 L0.372845953,0.924 L0.372845953,0.264 L0.438642298,0.198 L3.18015666,0.198 L3.245953,0.264 L3.245953,0.924 L3.18015666,1.056 L2.30287206,1.87 L2.30287206,1.936 C2.45639687,1.936 2.60992167,1.958 2.74151436,2.024 C2.87310705,2.09 3.00469974,2.178 3.13629243,2.31 C3.245953,2.42 3.33368146,2.574 3.39947781,2.75 C3.50913838,2.904 3.5310705,3.08 3.5310705,3.3 Z"></path>
                    <path d="M5.87780679,0.902 C5.70234987,0.902 5.57075718,0.946 5.48302872,1.012 C5.39530026,1.1 5.3075718,1.188 5.26370757,1.298 C5.21984334,1.408 5.17597911,1.54 5.17597911,1.65 C5.154047,1.76 5.154047,1.87 5.154047,1.958 L5.21984334,1.958 C5.26370757,1.914 5.3075718,1.87 5.39530026,1.826 C5.46109661,1.782 5.54882507,1.76 5.63655352,1.738 C5.7462141,1.716 5.85587467,1.694 6.00939948,1.694 C6.20678851,1.694 6.40417755,1.738 6.57963446,1.804 C6.75509138,1.87 6.90861619,1.98 7.04020888,2.112 C7.17180157,2.244 7.28146214,2.398 7.34725849,2.596 C7.43498695,2.794 7.45691906,2.992 7.45691906,3.234 C7.45691906,3.476 7.41305483,3.718 7.34725849,3.916 C7.25953003,4.114 7.14986945,4.29 7.01827676,4.444 C6.88668407,4.598 6.71122715,4.708 6.51383812,4.796 C6.31644909,4.884 6.09712794,4.906 5.87780679,4.906 C5.57075718,4.906 5.28563969,4.862 5.06631854,4.752 C4.84699739,4.642 4.67154047,4.51 4.51801567,4.29 C4.36449086,4.07 4.2767624,3.828 4.21096606,3.542 C4.14516971,3.234 4.1232376,2.882 4.1232376,2.486 C4.1232376,2.112 4.16710183,1.782 4.23289817,1.496 C4.29869452,1.188 4.40835509,0.946 4.53994778,0.726 C4.67154047,0.528 4.8689295,0.352 5.08825065,0.242 C5.3075718,0.132 5.57075718,0.066 5.87780679,0.066 C6.36031332,0.066 6.71122715,0.176 6.97441253,0.374 C7.23759791,0.594 7.3691906,0.858 7.41305483,1.188 L7.34725849,1.254 L6.53577023,1.254 L6.46997389,1.188 C6.42610966,1.078 6.38224543,1.012 6.29451697,0.946 C6.20678851,0.924 6.07519582,0.902 5.87780679,0.902 Z M6.53577023,3.3 C6.53577023,3.058 6.49190601,2.86 6.38224543,2.728 C6.27258486,2.574 6.09712794,2.508 5.87780679,2.508 C5.61462141,2.508 5.41723238,2.574 5.3075718,2.728 C5.19791123,2.882 5.13211488,3.08 5.13211488,3.322 C5.13211488,3.564 5.19791123,3.762 5.3075718,3.916 C5.41723238,4.07 5.61462141,4.136 5.87780679,4.136 C6.07519582,4.136 6.22872063,4.07 6.36031332,3.916 C6.46997389,3.74 6.53577023,3.542 6.53577023,3.3 Z"></path>
                    <path d="M8.00522193,2.508 C8.00522193,2.068 8.04908616,1.694 8.13681462,1.408 C8.22454308,1.1 8.33420366,0.858 8.48772846,0.66 C8.64125326,0.462 8.81671018,0.33 9.03603133,0.242 C9.25535248,0.154 9.47467363,0.11 9.73785901,0.11 C9.97911227,0.11 10.2203655,0.154 10.4396867,0.242 C10.6590078,0.33 10.8344648,0.462 10.9879896,0.66 C11.1415144,0.858 11.2511749,1.1 11.3389034,1.408 C11.4266319,1.716 11.4704961,2.09 11.4704961,2.508 C11.4704961,2.948 11.4266319,3.322 11.3389034,3.63 C11.2511749,3.938 11.1415144,4.18 10.9879896,4.378 C10.8344648,4.576 10.6590078,4.708 10.4396867,4.796 C10.2203655,4.884 10.0010444,4.928 9.73785901,4.928 C9.49660574,4.928 9.25535248,4.884 9.03603133,4.796 C8.81671018,4.708 8.64125326,4.576 8.48772846,4.378 C8.33420366,4.18 8.22454308,3.938 8.13681462,3.63 C8.04908616,3.322 8.00522193,2.948 8.00522193,2.508 Z M8.94830287,2.508 C8.94830287,2.816 8.97023499,3.058 8.9921671,3.278 C9.03603133,3.476 9.07989556,3.652 9.14569191,3.784 C9.21148825,3.916 9.29921671,4.004 9.38694517,4.048 C9.49660574,4.092 9.60626632,4.136 9.73785901,4.136 C9.8694517,4.136 9.97911227,4.114 10.0887728,4.048 C10.1984334,4.004 10.2642298,3.894 10.3300261,3.784 C10.3958225,3.652 10.4396867,3.498 10.4835509,3.278 C10.5274151,3.08 10.5274151,2.816 10.5274151,2.508 C10.5274151,2.2 10.505483,1.958 10.4835509,1.76 C10.4396867,1.562 10.3958225,1.386 10.3300261,1.254 C10.2642298,1.122 10.1765013,1.034 10.0887728,0.99 C9.97911227,0.946 9.8694517,0.902 9.73785901,0.902 C9.60626632,0.902 9.49660574,0.924 9.38694517,0.99 C9.2772846,1.034 9.21148825,1.144 9.14569191,1.254 C9.07989556,1.386 9.03603133,1.54 8.9921671,1.76 C8.97023499,1.958 8.94830287,2.2 8.94830287,2.508 Z"></path>
                </g>
                <path d="M13.5321149,0.99 C13.5321149,1.144 13.5101828,1.254 13.4663185,1.386 C13.4224543,1.496 13.356658,1.606 13.2908616,1.672 C13.2031332,1.76 13.1154047,1.826 13.0057441,1.848 C12.8960836,1.892 12.7644909,1.914 12.6328982,1.914 C12.5013055,1.914 12.3697128,1.892 12.2600522,1.848 C12.1503916,1.804 12.0626632,1.738 11.9749347,1.672 C11.8872063,1.584 11.843342,1.496 11.7994778,1.386 C11.7556136,1.276 11.7336815,1.144 11.7336815,0.99 C11.7336815,0.836 11.7556136,0.726 11.7994778,0.594 C11.843342,0.484 11.9091384,0.374 11.9749347,0.308 C12.0626632,0.22 12.1503916,0.154 12.2600522,0.132 C12.3697128,0.088 12.5013055,0.066 12.6328982,0.066 C12.7644909,0.066 12.8960836,0.088 13.0057441,0.132 C13.1154047,0.176 13.2031332,0.242 13.2908616,0.308 C13.3785901,0.396 13.4224543,0.484 13.4663185,0.594 C13.5101828,0.704 13.5321149,0.836 13.5321149,0.99 Z M13.0276762,0.99 C13.0276762,0.814 12.983812,0.704 12.9180157,0.616 C12.8522193,0.528 12.7425587,0.484 12.6328982,0.484 C12.5232376,0.484 12.413577,0.528 12.3477807,0.616 C12.2819843,0.704 12.2381201,0.836 12.2381201,0.99 C12.2381201,1.144 12.2819843,1.276 12.3477807,1.364 C12.413577,1.452 12.5232376,1.496 12.6328982,1.496 C12.7425587,1.496 12.8522193,1.452 12.9180157,1.364 C13.0057441,1.276 13.0276762,1.144 13.0276762,0.99 Z" id="Shape"></path>
            </g>
        </g>
    </g>
</svg>