<?xml version="1.0" encoding="UTF-8"?>
<svg width="94px" height="80px" viewBox="0 0 94 80" version="1.1" xmlns="http://www.w3.org/2000/svg" xmlns:xlink="http://www.w3.org/1999/xlink">
    <!-- Generator: Sketch 46.1 (44463) - http://www.bohemiancoding.com/sketch -->
    <title>How-to-Desktop</title>
    <desc>Created with Sketch.</desc>
    <defs></defs>
    <g id="Page-1" stroke="none" stroke-width="1" fill="none" fill-rule="evenodd">
        <g id="How-to-Desktop" fill-rule="nonzero" fill="#4D4D4F">
            <g id="Group">
                <path d="M46.96953,64.6769231 C45.2327391,64.6769231 43.8158833,63.2461538 43.8158833,61.4923077 C43.8158833,59.7384615 45.2327391,58.3076923 46.96953,58.3076923 C48.7063209,58.3076923 50.1231767,59.7384615 50.1231767,61.4923077 C50.1231767,63.2461538 48.7063209,64.6769231 46.96953,64.6769231 Z M46.96953,59.6153846 C45.9487844,59.6153846 45.110859,60.4615385 45.110859,61.4923077 C45.110859,62.5230769 45.9487844,63.3692308 46.96953,63.3692308 C47.9902755,63.3692308 48.828201,62.5230769 48.828201,61.4923077 C48.828201,60.4615385 47.9902755,59.6153846 46.96953,59.6153846 Z" id="Shape"></path>
                <path d="M89.4904376,68 L4.44862237,68 C2.01102107,68 0.0457050243,66 0.0457050243,63.5384615 L0.0457050243,4.56923077 C0.0457050243,2.10769231 2.02625608,0.107692308 4.44862237,0.107692308 L89.4752026,0.107692308 C91.9128039,0.107692308 93.8781199,2.10769231 93.8781199,4.56923077 L93.8781199,63.5384615 C93.8933549,66 91.9128039,68 89.4904376,68 Z M4.44862237,1.61538462 C2.83371151,1.61538462 1.52350081,2.93846154 1.52350081,4.56923077 L1.52350081,63.5384615 C1.52350081,65.1692308 2.83371151,66.4923077 4.44862237,66.4923077 L89.4752026,66.4923077 C91.0901135,66.4923077 92.4003241,65.1692308 92.4003241,63.5384615 L92.4003241,4.56923077 C92.4003241,2.93846154 91.0901135,1.61538462 89.4752026,1.61538462 L4.44862237,1.61538462 Z" id="Shape"></path>
                <path d="M85.5750405,57.1384615 L8.36401945,57.1384615 C6.09400324,57.1384615 4.25056726,55.2769231 4.25056726,52.9846154 L4.25056726,7.58461538 C4.25056726,5.29230769 6.09400324,3.43076923 8.36401945,3.43076923 L85.5598055,3.43076923 C87.8298217,3.43076923 89.6732577,5.29230769 89.6732577,7.58461538 L89.6732577,52.9846154 C89.6732577,55.2769231 87.8298217,57.1384615 85.5750405,57.1384615 Z M8.36401945,4.92307692 C6.91669368,4.92307692 5.74359806,6.10769231 5.74359806,7.58461538 L5.74359806,52.9846154 C5.74359806,54.4461538 6.91669368,55.6461538 8.36401945,55.6461538 L85.5598055,55.6461538 C87.0071313,55.6461538 88.1802269,54.4615385 88.1802269,52.9846154 L88.1802269,7.58461538 C88.1802269,6.12307692 87.0071313,4.92307692 85.5598055,4.92307692 L8.36401945,4.92307692 Z" id="Shape"></path>
                <path d="M60.6505673,77.9538462 L33.2884927,77.9538462 L33.2884927,66.6307692 L60.6505673,66.6307692 L60.6505673,77.9538462 Z M34.5072934,76.7230769 L59.4317666,76.7230769 L59.4317666,67.8615385 L34.5072934,67.8615385 L34.5072934,76.7230769 Z" id="Shape"></path>
                <path d="M67.4910859,79.9692308 L26.4327391,79.9692308 C25.6862237,79.9692308 25.0768233,79.3538462 25.0768233,78.6 L25.0768233,78.1076923 C25.0768233,77.3538462 25.6862237,76.7384615 26.4327391,76.7384615 L67.4910859,76.7384615 C68.2376013,76.7384615 68.8470016,77.3538462 68.8470016,78.1076923 L68.8470016,78.6 C68.8470016,79.3538462 68.2376013,79.9692308 67.4910859,79.9692308 Z M26.4327391,77.9692308 C26.356564,77.9692308 26.295624,78.0307692 26.295624,78.1076923 L26.295624,78.6 C26.295624,78.6769231 26.356564,78.7384615 26.4327391,78.7384615 L67.4910859,78.7384615 C67.5672609,78.7384615 67.628201,78.6769231 67.628201,78.6 L67.628201,78.1076923 C67.628201,78.0307692 67.5672609,77.9692308 67.4910859,77.9692308 L26.4327391,77.9692308 Z" id="Shape"></path>
            </g>
            <g id="Group" transform="translate(41.439222, 23.846154)">
                <g id="Shape">
                    <path d="M4.38768233,11.7692308 C4.25056726,11.7692308 3.80875203,11.7538462 3.50405186,11.5846154 C3.06223663,11.3384615 2.65089141,10.5846154 2.6356564,10.5384615 L0.350405186,6.18461538 C0.350405186,6.18461538 0.350405186,6.16923077 0.350405186,6.16923077 C0.228525122,5.87692308 0.137115073,5.24615385 0.655105348,4.89230769 C0.868395462,4.73846154 1.09692058,4.66153846 1.3102107,4.66153846 C1.75202593,4.66153846 1.99578606,5 1.99578606,5.01538462 C1.99578606,5.01538462 1.99578606,5.01538462 1.99578606,5.03076923 L2.6356564,6.10769231 L2.66612642,1.30769231 C2.68136143,0.969230769 2.86418152,0.338461538 3.50405186,0.323076923 C4.1286872,0.307692308 4.40291734,0.769230769 4.46385737,1 C4.46385737,1.01538462 4.46385737,1.03076923 4.46385737,1.04615385 L4.46385737,3.41538462 C4.63144246,3.30769231 4.84473258,3.2 5.0732577,3.18461538 C5.0732577,3.18461538 5.08849271,3.18461538 5.08849271,3.18461538 C5.53030794,3.18461538 5.88071313,3.64615385 5.92641815,3.70769231 C5.94165316,3.72307692 5.94165316,3.73846154 5.95688817,3.76923077 L5.95688817,3.78461538 C6.10923825,3.69230769 6.35299838,3.58461538 6.64246353,3.56923077 C7.17568882,3.53846154 7.40421394,4.18461538 7.40421394,4.21538462 C7.40421394,4.23076923 7.40421394,4.23076923 7.40421394,4.24615385 L7.41944895,4.35384615 C7.57179903,4.26153846 7.81555916,4.16923077 8.15072934,4.18461538 C8.74489465,4.2 8.89724473,4.87692308 8.89724473,5.23076923 L8.79059968,10.1538462 C8.79059968,10.1846154 8.76012966,10.7538462 8.18119935,11.2615385 C7.63273906,11.7538462 7.02333874,11.7538462 6.99286872,11.7538462 L4.41815235,11.7538462 C4.40291734,11.7692308 4.40291734,11.7692308 4.38768233,11.7692308 Z M0.63987034,6.03076923 L2.92512156,10.3846154 C3.03176661,10.5846154 3.35170178,11.1230769 3.65640194,11.2923077 C3.90016207,11.4307692 4.31150729,11.4307692 4.38768233,11.4307692 C4.40291734,11.4307692 4.40291734,11.4307692 4.40291734,11.4307692 C4.40291734,11.4307692 4.40291734,11.4307692 4.40291734,11.4307692 L6.97763371,11.4307692 C6.97763371,11.4307692 7.49562399,11.4153846 7.95267423,11.0153846 C8.42495948,10.5846154 8.4554295,10.1384615 8.4554295,10.1384615 L8.56207455,5.23076923 C8.56207455,5.23076923 8.54683955,4.52307692 8.12025932,4.50769231 C7.63273906,4.49230769 7.41944895,4.73846154 7.41944895,4.75384615 C7.37374392,4.8 7.31280389,4.83076923 7.25186386,4.81538462 C7.19092382,4.8 7.1452188,4.73846154 7.12998379,4.67692308 L7.06904376,4.30769231 C7.03857374,4.23076923 6.88622366,3.87692308 6.62722853,3.89230769 C6.23111831,3.90769231 5.94165316,4.15384615 5.94165316,4.16923077 C5.89594814,4.2 5.8350081,4.21538462 5.78930308,4.2 C5.72836305,4.18461538 5.69789303,4.13846154 5.68265802,4.07692308 L5.636953,3.87692308 C5.54554295,3.75384615 5.30178282,3.50769231 5.08849271,3.50769231 L5.0732577,3.50769231 C4.73808752,3.52307692 4.41815235,3.86153846 4.41815235,3.86153846 C4.37244733,3.90769231 4.29627229,3.92307692 4.23533225,3.90769231 C4.17439222,3.87692308 4.1286872,3.81538462 4.1286872,3.75384615 L4.1286872,1.06153846 C4.09821718,0.969230769 3.96110211,0.646153846 3.53452188,0.646153846 C3.51928687,0.646153846 3.51928687,0.646153846 3.50405186,0.646153846 C3.30599676,0.646153846 3.15364668,0.753846154 3.06223663,0.969230769 C2.98606159,1.13846154 2.98606159,1.30769231 2.98606159,1.30769231 L2.94035656,6.69230769 C2.94035656,6.76923077 2.89465154,6.83076923 2.8184765,6.84615385 C2.74230146,6.86153846 2.66612642,6.83076923 2.6356564,6.76923077 L1.70632091,5.18461538 C1.6910859,5.15384615 1.53873582,4.96923077 1.29497569,4.96923077 C1.15786062,4.96923077 0.990275527,5.03076923 0.837925446,5.13846154 C0.426580227,5.44615385 0.609400324,5.96923077 0.63987034,6.03076923 Z"></path>
                    <path d="M4.38768233,12 C4.20486224,12 3.73257699,11.9846154 3.3821718,11.7846154 C2.87941653,11.5076923 2.46807131,10.7384615 2.42236629,10.6461538 L0.121880065,6.26153846 C-0.0304700162,5.92307692 -0.137115073,5.15384615 0.502755267,4.70769231 C0.761750405,4.52307692 1.02074554,4.43076923 1.27974068,4.43076923 C1.82820097,4.43076923 2.11766613,4.83076923 2.16337115,4.87692308 L2.17860616,4.90769231 L2.39189627,5.27692308 L2.42236629,1.30769231 C2.4376013,0.738461538 2.77277147,0.107692308 3.47358185,0.0923076923 L3.51928687,0.0923076923 C4.25056726,0.0923076923 4.58573744,0.646153846 4.66191248,0.953846154 C4.67714749,0.984615385 4.67714749,1.01538462 4.67714749,1.04615385 L4.67714749,3.03076923 C4.79902755,2.98461538 4.92090762,2.95384615 5.05802269,2.95384615 L5.08849271,2.95384615 C5.53030794,2.95384615 5.88071313,3.29230769 6.03306321,3.47692308 C6.18541329,3.41538462 6.3987034,3.35384615 6.61199352,3.33846154 C7.17568882,3.30769231 7.46515397,3.81538462 7.55656402,4.03076923 C7.73938412,3.96923077 7.92220421,3.93846154 8.13549433,3.95384615 C8.80583468,3.98461538 9.11053485,4.63076923 9.11053485,5.23076923 L9.00388979,10.1538462 C9.00388979,10.2307692 8.95818476,10.8615385 8.31831442,11.4307692 C7.7089141,11.9692308 7.05380875,11.9846154 6.97763371,11.9846154 L4.38768233,12 Z M0.837925446,5.93846154 L3.12317666,10.2769231 C3.26029173,10.5384615 3.54975689,10.9692308 3.763047,11.0923077 C3.93063209,11.1846154 4.23533225,11.2153846 4.38768233,11.2153846 L4.40291734,11.2153846 L6.99286872,11.2153846 C6.99286872,11.2153846 7.43468395,11.2 7.81555916,10.8615385 C8.21166937,10.5076923 8.22690438,10.1692308 8.24213938,10.1538462 L8.34878444,5.24615385 C8.34878444,5.15384615 8.30307942,4.76923077 8.13549433,4.76923077 L8.0897893,4.76923077 C7.75461912,4.76923077 7.61750405,4.92307692 7.61750405,4.92307692 C7.526094,5.03076923 7.37374392,5.09230769 7.22139384,5.06153846 C7.06904376,5.01538462 6.9471637,4.89230769 6.93192869,4.73846154 L6.87098865,4.38461538 C6.81004862,4.24615385 6.71863857,4.13846154 6.67293355,4.13846154 C6.36823339,4.15384615 6.12447326,4.35384615 6.10923825,4.35384615 C6.00259319,4.44615385 5.86547812,4.46153846 5.74359806,4.43076923 C5.62171799,4.38461538 5.51507293,4.29230769 5.48460292,4.15384615 L5.43889789,4 C5.31701783,3.86153846 5.17990276,3.75384615 5.08849271,3.75384615 C4.8904376,3.75384615 4.66191248,3.96923077 4.58573744,4.04615385 C4.47909238,4.15384615 4.31150729,4.2 4.15915721,4.13846154 C4.00680713,4.07692308 3.91539708,3.93846154 3.91539708,3.76923077 L3.91539708,1.12307692 C3.88492707,1.03076923 3.77828201,0.892307692 3.54975689,0.892307692 L3.53452188,0.892307692 C3.44311183,0.892307692 3.36693679,0.923076923 3.30599676,1.07692308 C3.24505673,1.2 3.24505673,1.33846154 3.24505673,1.33846154 L3.1993517,6.72307692 C3.1993517,6.90769231 3.07747164,7.06153846 2.90988655,7.10769231 C2.74230146,7.15384615 2.55948136,7.07692308 2.46807131,6.92307692 L1.55397083,5.35384615 C1.53873582,5.32307692 1.44732577,5.24615385 1.32544571,5.24615385 C1.23403566,5.24615385 1.11215559,5.29230769 0.990275527,5.38461538 C0.716045381,5.52307692 0.822690438,5.86153846 0.837925446,5.93846154 Z"></path>
                </g>
                <g transform="translate(3.808752, 3.230769)" id="Shape">
                    <path d="M0.472285251,2.87692308 L0.472285251,2.87692308 C0.258995138,2.87692308 0.0761750405,2.69230769 0.0761750405,2.47692308 L0.0914100486,0.461538462 C0.0914100486,0.246153846 0.274230146,0.0615384615 0.487520259,0.0615384615 C0.700810373,0.0615384615 0.88363047,0.246153846 0.88363047,0.461538462 L0.868395462,2.47692308 C0.853160454,2.70769231 0.685575365,2.87692308 0.472285251,2.87692308 Z"></path>
                </g>
                <g transform="translate(5.332253, 3.538462)" id="Shape">
                    <path d="M0.502755267,2.75384615 C0.289465154,2.75384615 0.106645057,2.56923077 0.106645057,2.35384615 L0.106645057,0.492307692 C0.106645057,0.276923077 0.289465154,0.0923076923 0.502755267,0.0923076923 C0.716045381,0.0923076923 0.898865478,0.276923077 0.898865478,0.492307692 L0.898865478,2.35384615 C0.898865478,2.58461538 0.716045381,2.75384615 0.502755267,2.75384615 Z"></path>
                </g>
                <g transform="translate(6.855754, 4.153846)" id="Shape">
                    <path d="M0.426580227,2.4 L0.426580227,2.4 C0.31993517,2.4 0.213290113,2.35384615 0.152350081,2.27692308 C0.0761750405,2.2 0.0457050243,2.10769231 0.0457050243,2 L0.0609400324,0.492307692 C0.0609400324,0.276923077 0.24376013,0.0923076923 0.457050243,0.0923076923 C0.670340357,0.0923076923 0.853160454,0.276923077 0.853160454,0.492307692 L0.837925446,2 C0.807455429,2.23076923 0.63987034,2.4 0.426580227,2.4 Z"></path>
                </g>
            </g>
            <path d="M49.9098865,21.1692308 C49.9251216,21.3538462 49.8489465,21.5384615 49.7118314,21.6615385 C49.4680713,21.8923077 49.0871961,21.8615385 48.858671,21.6153846 L46.2077796,18.6307692 L43.4959481,21.6307692 C43.267423,21.8769231 42.8865478,21.8923077 42.6427877,21.6615385 C42.3990276,21.4307692 42.3837925,21.0461538 42.6123177,20.8 L45.7659643,17.3076923 C45.8878444,17.1846154 46.0401945,17.1076923 46.2077796,17.1076923 C46.3753647,17.1076923 46.5429498,17.1846154 46.6495948,17.3076923 L49.7423015,20.7846154 C49.8489465,20.9076923 49.9098865,21.0307692 49.9098865,21.1692308 Z" id="Shape"></path>
            <path d="M49.9098865,39.1384615 C49.9251216,38.9538462 49.8489465,38.7692308 49.7118314,38.6461538 C49.4680713,38.4153846 49.0871961,38.4461538 48.858671,38.6923077 L46.2077796,41.6769231 L43.4959481,38.6769231 C43.267423,38.4307692 42.8865478,38.4153846 42.6427877,38.6461538 C42.3990276,38.8769231 42.3837925,39.2615385 42.6123177,39.5076923 L45.7659643,43 C45.8878444,43.1230769 46.0401945,43.2 46.2077796,43.2 C46.3753647,43.2 46.5429498,43.1230769 46.6495948,43 L49.7423015,39.5230769 C49.8489465,39.4 49.9098865,39.2769231 49.9098865,39.1384615 Z" id="Shape"></path>
            <path d="M54.6936791,33.9076923 C54.510859,33.9230769 54.3280389,33.8461538 54.2061588,33.7076923 C53.9776337,33.4615385 54.0081037,33.0769231 54.2518639,32.8461538 L57.1922204,30.1692308 L54.2366288,27.4307692 C53.9928687,27.2 53.9776337,26.8153846 54.2061588,26.5692308 C54.434684,26.3230769 54.8155592,26.3076923 55.0593193,26.5384615 L58.5024311,29.7384615 C58.6243112,29.8615385 58.7004862,30.0153846 58.7004862,30.1846154 C58.7004862,30.3538462 58.6243112,30.5230769 58.5024311,30.6307692 L55.0593193,33.7538462 C54.9526742,33.8461538 54.8155592,33.8923077 54.6936791,33.9076923 Z" id="Shape"></path>
            <path d="M36.7468395,33.9076923 C36.9296596,33.9230769 37.1124797,33.8461538 37.2343598,33.7076923 C37.4628849,33.4615385 37.4324149,33.0769231 37.1886548,32.8461538 L34.2482982,30.1692308 L37.2038898,27.4307692 C37.4476499,27.2 37.4628849,26.8153846 37.2343598,26.5692308 C37.0058347,26.3230769 36.6249595,26.3076923 36.3811994,26.5384615 L32.9380875,29.7384615 C32.8162075,29.8615385 32.7400324,30.0153846 32.7400324,30.1846154 C32.7400324,30.3538462 32.8162075,30.5230769 32.9380875,30.6307692 L36.3811994,33.7538462 C36.4878444,33.8461538 36.6097245,33.8923077 36.7468395,33.9076923 Z" id="Shape"></path>
        </g>
    </g>
</svg>