<?xml version="1.0" encoding="UTF-8"?>
<svg width="93px" height="80px" viewBox="0 0 93 80" version="1.1" xmlns="http://www.w3.org/2000/svg" xmlns:xlink="http://www.w3.org/1999/xlink">
    <!-- Generator: Sketch 46.2 (44496) - http://www.bohemiancoding.com/sketch -->
    <title>Instructions-App2</title>
    <desc>Created with Sketch.</desc>
    <defs></defs>
    <g id="Page-1" stroke="none" stroke-width="1" fill="none" fill-rule="evenodd">
        <g id="Instructions-App2" fill-rule="nonzero" fill="#4D4D4F">
            <g id="Group" transform="translate(18.054945, 0.000000)">
                <g transform="translate(51.269231, 12.263736)" id="Shape">
                    <path d="M0.884351648,8.37306593 C0.624598901,8.37306593 0.414071429,8.16253846 0.414071429,7.90278571 L0.414071429,0.847730769 C0.414071429,0.587978022 0.624598901,0.377450549 0.884351648,0.377450549 C1.1441044,0.377450549 1.35463187,0.587978022 1.35463187,0.847730769 L1.35463187,7.90278571 C1.35446154,8.16236813 1.14393407,8.37306593 0.884351648,8.37306593 Z"></path>
                    <path d="M0.884181319,8.62856044 C0.484076923,8.62856044 0.158576923,8.30289011 0.158576923,7.90261538 L0.158576923,0.84756044 C0.158576923,0.447285714 0.484076923,0.121615385 0.884181319,0.121615385 C1.28445604,0.121615385 1.60995604,0.447285714 1.60995604,0.84756044 L1.60995604,7.90261538 C1.61012637,8.30289011 1.28445604,8.62856044 0.884181319,8.62856044 Z M0.884181319,0.632945055 C0.765972527,0.632945055 0.669565934,0.729351648 0.669565934,0.847730769 L0.669565934,7.90278571 C0.669565934,8.02116484 0.765972527,8.1174011 0.884181319,8.1174011 C1.00256044,8.1174011 1.09896703,8.02099451 1.09896703,7.90278571 L1.09896703,0.847730769 C1.09896703,0.729181319 1.00273077,0.632945055 0.884181319,0.632945055 Z"></path>
                </g>
                <g>
                    <g id="Shape">
                        <path d="M56.5508132,4.23269231 L56.5508132,29.044956 C56.5508132,31.1672637 54.824522,32.8938956 52.7027253,32.8938956 L4.26965385,32.8938956 C2.14785714,32.8938956 0.421736264,31.1672637 0.421736264,29.044956 L0.421736264,4.23269231 C0.421736264,2.11038462 2.14802747,0.383752747 4.26965385,0.383752747 L52.7027253,0.383752747 C54.8246923,0.383923077 56.5508132,2.11055495 56.5508132,4.23269231 Z M1.36212637,29.044956 C1.36212637,30.6486099 2.66651099,31.9533352 4.26965385,31.9533352 L52.7027253,31.9533352 C54.3060385,31.9533352 55.6104231,30.6486099 55.6104231,29.044956 L55.6104231,4.23269231 C55.6104231,2.62920879 54.3060385,1.32448352 52.7027253,1.32448352 L4.26965385,1.32448352 C2.66651099,1.32448352 1.36212637,2.62920879 1.36212637,4.23269231 L1.36212637,29.044956 Z"></path>
                        <path d="M52.7027253,33.1497308 L4.26965385,33.1497308 C2.00682418,33.1497308 0.166071429,31.308467 0.166071429,29.0451264 L0.166071429,4.23269231 C0.166071429,1.96952198 2.00682418,0.128258242 4.26965385,0.128258242 L52.7027253,0.128258242 C54.9653846,0.128258242 56.8063077,1.96952198 56.8063077,4.23269231 L56.8063077,29.044956 C56.8063077,31.3082967 54.9655549,33.1497308 52.7027253,33.1497308 Z M4.26965385,0.639417582 C2.28871978,0.639417582 0.677230769,2.25124725 0.677230769,4.23269231 L0.677230769,29.044956 C0.677230769,31.0264011 2.28889011,32.6384011 4.26965385,32.6384011 L52.7027253,32.6384011 C54.6836593,32.6384011 56.2951484,31.0264011 56.2951484,29.044956 L56.2951484,4.23269231 C56.2951484,2.25141758 54.683489,0.639417582 52.7027253,0.639417582 L4.26965385,0.639417582 Z M52.7027253,32.209 L4.26965385,32.209 C2.52547802,32.209 1.10646154,30.7896429 1.10646154,29.0451264 L1.10646154,4.23269231 C1.10646154,2.48817582 2.52547802,1.06881868 4.26965385,1.06881868 L52.7027253,1.06881868 C54.4469011,1.06881868 55.8659176,2.48817582 55.8659176,4.23269231 L55.8659176,29.044956 C55.8659176,30.7896429 54.4469011,32.209 52.7027253,32.209 Z M4.26965385,1.58014835 C2.80737363,1.58014835 1.61762088,2.77007143 1.61762088,4.23269231 L1.61762088,29.044956 C1.61762088,30.5077473 2.80737363,31.6976703 4.26965385,31.6976703 L52.7027253,31.6976703 C54.1650055,31.6976703 55.3547582,30.5077473 55.3547582,29.044956 L55.3547582,4.23269231 C55.3547582,2.77007143 54.1650055,1.58014835 52.7027253,1.58014835 L4.26965385,1.58014835 Z"></path>
                    </g>
                    <g transform="translate(4.428571, 0.510989)">
                        <rect id="Rectangle-path" x="0.350708791" y="0.37182967" width="1" height="31.5123516"></rect>
                        <path d="M1.54676374,32.1396758 L0.0952142857,32.1396758 L0.0952142857,0.116164835 L1.54676374,0.116164835 L1.54676374,32.1396758 Z M0.606203297,31.6283462 L1.0356044,31.6283462 L1.0356044,0.627324176 L0.606203297,0.627324176 L0.606203297,31.6283462 Z" id="Shape"></path>
                    </g>
                    <g transform="translate(48.203297, 0.510989)">
                        <rect id="Rectangle-path" x="0.42360989" y="0.37182967" width="1" height="31.5123516"></rect>
                        <path d="M1.61949451,32.1396758 L0.167945055,32.1396758 L0.167945055,0.116164835 L1.61949451,0.116164835 L1.61949451,32.1396758 Z M0.679104396,31.6283462 L1.10850549,31.6283462 L1.10850549,0.627324176 L0.679104396,0.627324176 L0.679104396,31.6283462 Z" id="Shape"></path>
                    </g>
                </g>
            </g>
            <path d="M28.0413736,67.8549121 C21.5441484,67.8549121 16.2581374,62.5678791 16.2581374,56.0689505 C16.2581374,49.570022 21.5441484,44.2828187 28.0413736,44.2828187 C34.5385989,44.2828187 39.8244396,49.570022 39.8244396,56.0689505 C39.8244396,62.5678791 34.5385989,67.8549121 28.0413736,67.8549121 Z M28.0413736,45.6461374 C22.2956429,45.6461374 17.6211154,50.3218571 17.6211154,56.0691209 C17.6211154,61.8162143 22.2956429,66.4919341 28.0413736,66.4919341 C33.7869341,66.4919341 38.4614615,61.8162143 38.4614615,56.0691209 C38.4614615,50.3218571 33.7869341,45.6461374 28.0413736,45.6461374 Z" id="Shape"></path>
            <path d="M29.5460659,69.6726703 C22.2189945,69.6726703 16.2581374,63.7102802 16.2581374,56.3813352 C16.2581374,49.0525604 22.2189945,43.09 29.5460659,43.09 C36.8731374,43.09 42.8339945,49.0523901 42.8339945,56.3813352 C42.8341648,63.7102802 36.8731374,69.6726703 29.5460659,69.6726703 Z M29.5460659,44.4533187 C22.9706593,44.4533187 17.6209451,49.8042253 17.6209451,56.3813352 C17.6209451,62.9584451 22.9706593,68.3093516 29.5460659,68.3093516 C36.1214725,68.3093516 41.4711868,62.9582747 41.4711868,56.3813352 C41.4711868,49.8042253 36.1214725,44.4533187 29.5460659,44.4533187 Z" id="Shape"></path>
            <path d="M67.5645,68.4798516 C61.0672747,68.4798516 55.7812637,63.1926484 55.7812637,56.6937198 C55.7812637,50.1947912 61.0672747,44.9075879 67.5645,44.9075879 C74.0617253,44.9075879 79.3475659,50.1947912 79.3475659,56.6937198 C79.3475659,63.1926484 74.0617253,68.4798516 67.5645,68.4798516 Z M67.5645,46.2709066 C61.8187692,46.2709066 57.1442418,50.946456 57.1442418,56.6937198 C57.1442418,62.4409835 61.8187692,67.1167033 67.5645,67.1167033 C73.3100604,67.1167033 77.9845879,62.4409835 77.9845879,56.6937198 C77.9845879,50.946456 73.3102308,46.2709066 67.5645,46.2709066 Z" id="Shape"></path>
            <path d="M66.0596374,69.6726703 C58.7325659,69.6726703 52.7717088,63.7102802 52.7717088,56.3813352 C52.7717088,49.0525604 58.7325659,43.09 66.0596374,43.09 C73.3867088,43.09 79.3475659,49.0523901 79.3475659,56.3813352 C79.3475659,63.7102802 73.3867088,69.6726703 66.0596374,69.6726703 Z M66.0596374,44.4533187 C59.4842308,44.4533187 54.1345165,49.8042253 54.1345165,56.3813352 C54.1345165,62.9584451 59.4842308,68.3093516 66.0596374,68.3093516 C72.635044,68.3093516 77.9847582,62.9582747 77.9847582,56.3813352 C77.9847582,49.8042253 72.635044,44.4533187 66.0596374,44.4533187 Z" id="Shape"></path>
            <path d="M19.0772637,29.9756374 C17.2094286,29.9756374 15.6899176,31.497533 15.6899176,33.3677527 L15.6899176,34.5561429 C12.5340495,34.737033 9.56145604,36.1691648 7.44936813,38.5478187 C6.78644505,39.2943736 6.22537912,40.114 5.77400549,40.9855769 L3.47455495,40.9855769 C1.60620879,40.9855769 0.0865274725,42.5074725 0.0865274725,44.3776923 L0.0865274725,48.8357308 C0.0865274725,50.7064615 1.60620879,52.2285275 3.47455495,52.2285275 L4.88641758,52.2285275 L5.94314286,64.5615879 C6.96903846,73.2030934 14.2964505,79.7197363 22.9858187,79.7197363 L37.2054505,79.7197363 C38.8828571,79.7197363 40.3369615,78.6607967 40.9082473,77.1601923 L52.0782967,77.1601923 C52.6489011,78.660967 54.1031758,79.7197363 55.7810934,79.7197363 L70.0014066,79.7197363 C78.6894121,79.7197363 86.0169945,73.2030934 87.0466374,64.5377418 L88.1001264,52.2283571 L89.5050055,52.2283571 C91.3728407,52.2283571 92.8923516,50.7064615 92.8923516,48.8355604 L92.8923516,44.3776923 C92.8923516,42.5074725 91.3726703,40.9855769 89.5050055,40.9855769 L87.2120275,40.9855769 C86.7606538,40.114 86.2002692,39.2943736 85.5371758,38.5471374 C83.4250879,36.1683132 80.4519835,34.7368626 77.2966264,34.5559725 L77.2966264,33.3675824 C77.2966264,31.4973626 75.7769451,29.975467 73.9099615,29.975467 L74.010967,29.975467 L74.010967,31.1703297 C74.010967,31.2594121 73.9987033,31.3403187 73.9782637,31.4149231 L73.9099615,31.4149231 C74.9838901,31.4149231 75.8578516,32.2909286 75.8578516,33.3677527 L75.8578516,34.5368956 L17.1286923,34.5368956 L17.1286923,33.3677527 C17.1286923,32.2909286 18.0026538,31.4149231 19.0772637,31.4149231 L19.0772637,29.9756374 Z M4.51458791,47.8808626 L4.76343956,50.7894121 L3.47472527,50.7894121 C2.40011538,50.7894121 1.52547253,49.9127253 1.52547253,48.8359011 L1.52547253,44.3776923 C1.52547253,43.3008681 2.40011538,42.4248626 3.47472527,42.4248626 L5.1442967,42.4248626 C4.51850549,44.1559231 4.2935,46.0240989 4.51458791,47.8808626 Z M41.1944011,75.7210769 C41.4098681,74.538478 42.4478571,73.6495275 43.6750824,73.6495275 L49.3123132,73.6495275 C50.5388571,73.6495275 51.5770165,74.538478 51.7929945,75.7210769 L41.1944011,75.7210769 Z M87.0398242,47.7583956 L85.6156978,64.3917692 C84.674456,72.3098846 77.9612527,78.2807912 70.0015769,78.2807912 L55.7812637,78.2807912 C54.4559286,78.2807912 53.350489,77.2431429 53.2646429,75.9186593 C53.1294011,73.8394451 51.3930604,72.2104121 49.3123132,72.2104121 L43.6750824,72.2104121 C41.5938242,72.2104121 39.8574835,73.8394451 39.7227527,75.917978 C39.635544,77.2429725 38.5301044,78.2806209 37.2054505,78.2806209 L22.985989,78.2806209 C15.0249505,78.2806209 8.31174725,72.3097143 7.37374176,64.4152747 L5.94518681,47.7345495 C5.59056044,44.749011 6.53060989,41.7488242 8.52465934,39.5035385 C10.5149615,37.262 13.3739451,35.9761813 16.3683407,35.9761813 L76.6187143,35.9761813 C79.6131099,35.9761813 82.4720934,37.262 84.4617143,39.5030275 C86.4557637,41.7488242 87.3970055,44.7491813 87.0398242,47.7583956 Z M91.4537473,48.8357308 C91.4537473,49.9125549 90.5791044,50.7892418 89.5051758,50.7892418 L88.2241264,50.7892418 L88.4709341,47.9045385 C88.6927033,46.0343187 88.4676978,44.158989 87.8419066,42.4248626 L89.5051758,42.4248626 C90.5791044,42.4248626 91.4537473,43.3008681 91.4537473,44.3776923 L91.4537473,48.8357308 Z" id="Shape"></path>
            <g id="Group" transform="translate(41.219780, 8.686813)">
                <path d="M0.114120879,7.45907692 C0.114120879,7.20545604 0.226538462,6.9549011 0.442175824,6.78678571 C0.813153846,6.4973956 1.3485,6.56348352 1.63806044,6.93446154 L5.08893956,11.3563901 L9.21142857,7.43506044 C9.55225824,7.11075275 10.091522,7.12403846 10.4158297,7.46503846 C10.7403077,7.80603846 10.7266813,8.34513187 10.3858516,8.66926923 L5.58255495,13.238533 C5.40830769,13.4042637 5.17223077,13.4887473 4.93240659,13.4708626 C4.69258242,13.452978 4.47149451,13.3349396 4.32347802,13.1453626 L0.29432967,7.98232967 C0.172884615,7.82681868 0.114120879,7.64235165 0.114120879,7.45907692 Z" id="Shape"></path>
                <g transform="translate(4.087912, 0.000000)" id="Shape">
                    <path d="M2.04446703,1.07716484 L2.04446703,11.9818407 C2.04446703,12.4993022 1.62494505,12.9188242 1.10731319,12.9188242 C0.589681319,12.9188242 0.170159341,12.4993022 0.170159341,11.9818407 L0.170159341,1.07716484 C0.170159341,0.559703297 0.589681319,0.140181319 1.10731319,0.140181319 C1.62477473,0.140351648 2.04446703,0.559873626 2.04446703,1.07716484 Z"></path>
                </g>
            </g>
        </g>
    </g>
</svg>