<?xml version="1.0" encoding="UTF-8"?>
<svg width="31px" height="31px" viewBox="0 0 31 31" version="1.1" xmlns="http://www.w3.org/2000/svg" xmlns:xlink="http://www.w3.org/1999/xlink">
    <!-- Generator: Sketch 45.2 (43514) - http://www.bohemiancoding.com/sketch -->
    <title>Group 3</title>
    <desc>Created with Sketch.</desc>
    <defs>
        <polygon id="path-1" points="30.7866345 30.7733793 0 30.7733793 0 15.3866897 0 0 30.7866345 0"></polygon>
    </defs>
    <g id="Page-1" stroke="none" stroke-width="1" fill="none" fill-rule="evenodd">
        <g id="In-White-2in-R">
            <g id="Group-3">
                <mask id="mask-2" fill="white">
                    <use xlink:href="#path-1"></use>
                </mask>
                <g id="Clip-2"></g>
                <path d="M26.2336966,26.2339103 L21.6704966,26.2339103 L21.6704966,19.0891586 C21.6704966,17.3845862 21.6392828,15.1932069 19.2978207,15.1932069 C16.9215103,15.1932069 16.5576345,17.0493586 16.5576345,18.9658 L16.5576345,26.2339103 L11.9946483,26.2339103 L11.9946483,11.5418345 L16.3750552,11.5418345 L16.3750552,13.5491379 L16.4357724,13.5491379 C17.0450828,12.3942276 18.5345793,11.1762483 20.7561034,11.1762483 C25.3800207,11.1762483 26.2336966,14.2191655 26.2336966,18.1749793 L26.2336966,26.2339103 Z M6.84864828,9.53346207 C5.38502069,9.53346207 4.2003931,8.34669655 4.2003931,6.8852069 C4.2003931,5.42478621 5.38502069,4.23844828 6.84864828,4.23844828 C8.30842759,4.23844828 9.49476552,5.42478621 9.49476552,6.8852069 C9.49476552,8.34669655 8.30842759,9.53346207 6.84864828,9.53346207 Z M4.56448276,26.2339103 L9.13088966,26.2339103 L9.13088966,11.5418345 L4.56448276,11.5418345 L4.56448276,26.2339103 Z M28.5078138,0 L2.2724069,0 C1.01872414,0 0,0.993710345 0,2.21895862 L0,28.5646828 C0,29.791 1.01872414,30.7862069 2.2724069,30.7862069 L28.5078138,30.7862069 C29.7636345,30.7862069 30.7866345,29.791 30.7866345,28.5646828 L30.7866345,2.21895862 C30.7866345,0.993710345 29.7636345,0 28.5078138,0 L28.5078138,0 Z" id="Fill-1" fill="#FFFFFE" mask="url(#mask-2)"></path>
            </g>
        </g>
    </g>
</svg>