<?xml version="1.0" encoding="UTF-8"?>
<svg width="42px" height="73px" viewBox="0 0 42 73" version="1.1" xmlns="http://www.w3.org/2000/svg" xmlns:xlink="http://www.w3.org/1999/xlink">
    <!-- Generator: Sketch 45.2 (43514) - http://www.bohemiancoding.com/sketch -->
    <title>mobile360</title>
    <desc>Created with Sketch.</desc>
    <defs></defs>
    <g id="Page-1" stroke="none" stroke-width="1" fill="none" fill-rule="evenodd">
        <g id="mobile360" fill-rule="nonzero" fill="#4D4D4F">
            <g id="Group">
                <path d="M37.0144332,72.9096263 L5.01892419,72.9096263 C2.28210108,72.9096263 0.0556462094,70.67162 0.0556462094,67.9209374 L0.0556462094,5.13057411 C0.0556462094,2.37989144 2.28225271,0.141885177 5.01892419,0.141885177 L37.0145848,0.141885177 C39.7512563,0.141885177 41.9777112,2.37989144 41.9777112,5.13057411 L41.9777112,67.9209374 C41.9775596,70.6717724 39.7511047,72.9096263 37.0144332,72.9096263 Z M5.01892419,1.36109186 C2.95091697,1.36109186 1.2686426,3.05213152 1.2686426,5.13057411 L1.2686426,67.9209374 C1.2686426,69.9995324 2.95106859,71.6904196 5.01892419,71.6904196 L37.0145848,71.6904196 C39.0824404,71.6904196 40.7647148,69.99938 40.7647148,67.9209374 L40.7647148,5.13057411 C40.7647148,3.05213152 39.0822888,1.36109186 37.0145848,1.36109186 L5.01892419,1.36109186 Z" id="Shape"></path>
                <rect id="Rectangle-path" x="0.698837545" y="5.79123173" width="40.6353791" height="1.21920668"></rect>
                <rect id="Rectangle-path" x="0.698837545" y="62.6367432" width="40.6353791" height="1.21920668"></rect>
            </g>
            <path d="M35.4563394,37.2248184 C35.1677978,37.1477035 34.870917,37.3191545 34.7935884,37.6094781 C34.150852,40.0206117 32.8829675,42.2279854 31.1270036,43.9929395 C25.6031697,49.5450543 16.6151697,49.5450543 11.0911841,43.9929395 C5.56735018,38.4408246 5.56735018,29.4068079 11.0911841,23.8546931 C13.748556,21.1838685 17.3061227,19.7128956 21.1090181,19.7128956 C24.66613,19.7128956 28.0085415,21.0000731 30.6004116,23.3520752 L26.4001083,23.4272088 C26.1014079,23.4325428 25.8633574,23.6803466 25.8688159,23.9805762 C25.8741227,24.2776054 26.1152058,24.5147411 26.409509,24.5147411 C26.4128448,24.5147411 26.4160289,24.5147411 26.4193646,24.5145887 L32.6189892,24.4036409 L32.0458484,18.1980313 C32.0184043,17.8990209 31.7557906,17.6789541 31.4570903,17.706691 C31.1594513,17.734428 30.9408087,17.999453 30.9682527,18.2984635 L31.3635379,22.5792505 C28.567278,20.0237933 24.9539134,18.6247537 21.1088664,18.6247537 C17.0169747,18.6247537 13.1873935,20.2088079 10.325935,23.0852213 C7.46432491,25.9614823 5.88833935,29.8105177 5.88833935,33.9233591 C5.88833935,38.0362004 7.46432491,41.8852359 10.325935,44.7614969 C13.1875451,47.6379102 17.0169747,49.2219645 21.1088664,49.2219645 C25.2007581,49.2219645 29.0303394,47.6379102 31.8917978,44.7614969 C33.7819495,42.8618205 35.1468736,40.485739 35.8387365,37.8903528 C35.9162166,37.6007912 35.7450325,37.3025428 35.4563394,37.2248184 Z" id="Shape"></path>
            <g id="Group" transform="translate(11.523466, 30.175365)">
                <g id="Shape">
                    <path d="M5.16630325,5.09415031 C5.16630325,5.43110856 5.10989892,5.7491691 4.99709025,6.04833194 C4.88412996,6.34749478 4.71491697,6.61038622 4.48899639,6.83746347 C4.26322744,7.06438831 3.98438989,7.24330689 3.65248375,7.373762 C3.32072924,7.50436952 2.93575451,7.56974948 2.49816606,7.56974948 C2.08756679,7.56974948 1.72851986,7.51122756 1.4205704,7.39448852 C1.11277256,7.27759708 0.856223827,7.12123382 0.651075812,6.92509395 C0.445776173,6.72910647 0.291877256,6.50919207 0.189227437,6.26489353 C0.0865776173,6.02089979 0.0351768953,5.76821921 0.0351768953,5.50669937 L0.137826715,5.40352401 L1.3693213,5.40352401 L1.47197112,5.50669937 C1.47197112,5.7130501 1.554,5.90217954 1.71820939,6.07393528 C1.88241877,6.24584342 2.14245487,6.33179749 2.49831769,6.33179749 C2.90876534,6.33179749 3.21656318,6.21825887 3.42186282,5.99148643 C3.62716245,5.76456159 3.72966065,5.46539875 3.72966065,5.09399791 C3.72966065,4.68144885 3.63565343,4.37192276 3.44748736,4.16572443 C3.2593213,3.9595261 3.01141516,3.85635073 2.70361733,3.85635073 C2.60096751,3.85635073 2.5119639,3.86671399 2.43675812,3.8872881 C2.36140072,3.90786221 2.29635379,3.93209395 2.24176895,3.9595261 C2.17338628,3.99396868 2.12198556,4.02841127 2.08771841,4.06270146 L1.57462094,4.06270146 L1.47197112,3.9595261 L1.47197112,3.03125261 L2.90876534,1.5871023 L2.90876534,1.48392693 L0.445776173,1.48392693 L0.343126354,1.38075157 L0.343126354,0.349302714 L0.445776173,0.246127349 L4.6533574,0.246127349 L4.75600722,0.349302714 L4.75600722,1.38075157 L4.6533574,1.5871023 L3.319213,2.82490188 L3.319213,2.92807724 C3.55165343,2.92807724 3.77742238,2.97806472 3.99651986,3.07758246 C4.21531408,3.17725261 4.41212274,3.31989979 4.5866426,3.50567641 C4.76116245,3.69130063 4.90126354,3.91837787 5.00740072,4.18645094 C5.11338628,4.45467641 5.16630325,4.75734447 5.16630325,5.09415031 Z"></path>
                    <path d="M8.75813718,1.38090397 C8.49794946,1.38090397 8.29446931,1.44277871 8.14754513,1.56652818 C8.00031769,1.69027766 7.88750903,1.83978288 7.80896751,2.01519624 C7.73012274,2.1904572 7.68069314,2.37105219 7.66022383,2.55667641 C7.63975451,2.74230063 7.62944404,2.90064509 7.62944404,3.03110021 L7.73209386,3.03110021 C7.79365343,2.95550939 7.88250542,2.88662422 7.99895307,2.82474948 C8.09477978,2.76973278 8.22123466,2.72157411 8.37877256,2.68027349 C8.53600722,2.63897286 8.73099639,2.61839875 8.96358845,2.61839875 C9.27138628,2.61839875 9.56205054,2.67524426 9.83588448,2.78863048 C10.1094152,2.9020167 10.3489819,3.06188518 10.55413,3.26823591 C10.759278,3.47458664 10.9218195,3.72391441 11.0416029,4.01606681 C11.1612347,4.30837161 11.221278,4.63329019 11.221278,4.99082255 C11.221278,5.37593946 11.1597184,5.72676618 11.0365993,6.04299791 C10.9134801,6.35938205 10.7441155,6.63080793 10.5285054,6.85788518 C10.3130469,7.08481002 10.0528592,7.26022338 9.74854874,7.38397286 C9.44393502,7.50772234 9.11384838,7.56959708 8.75828881,7.56959708 C8.27248375,7.56959708 7.86036823,7.49232985 7.52163899,7.33749061 C7.18306137,7.18280376 6.90755957,6.95069729 6.69558845,6.64132359 C6.48361733,6.3319499 6.32956679,5.94515658 6.2338917,5.48094363 C6.13791336,5.01688309 6.09015162,4.47525052 6.09015162,3.85635073 C6.09015162,3.29262004 6.14322022,2.78024843 6.2493574,2.31954071 C6.35519134,1.85898539 6.51606498,1.46853445 6.73167509,1.14879749 C6.94713357,0.829060543 7.22248375,0.581561587 7.55772563,0.406148225 C7.89281588,0.230887265 8.29310469,0.143104384 8.75844043,0.143104384 C9.48350903,0.143104384 10.0445199,0.306478079 10.4414729,0.633073069 C10.8381227,0.959820459 11.0638917,1.38090397 11.1187798,1.89662839 L11.01613,1.99980376 L9.78463538,1.99980376 L9.68198556,1.89662839 C9.6272491,1.73843633 9.53657762,1.61301044 9.41012274,1.52004593 C9.28306137,1.42723382 9.06593502,1.38090397 8.75813718,1.38090397 Z M9.78418051,5.09415031 C9.78418051,4.72975992 9.70381949,4.43242589 9.54309747,4.20199582 C9.38222383,3.97171816 9.12051986,3.85650313 8.75798556,3.85650313 C8.34753791,3.85650313 8.0565704,3.97004175 7.88568953,4.1968142 C7.71450542,4.42373904 7.62914079,4.72290188 7.62914079,5.09415031 C7.62914079,5.46539875 7.71450542,5.76456159 7.88568953,5.99163883 C8.0565704,6.21856367 8.34753791,6.3319499 8.75798556,6.3319499 C9.06578339,6.3319499 9.31368953,6.21841127 9.5018556,5.99163883 C9.69017329,5.76456159 9.78418051,5.46539875 9.78418051,5.09415031 Z"></path>
                    <path d="M12.04187,3.85635073 C12.04187,3.18944468 12.1085848,2.62037996 12.2420144,2.14930898 C12.375444,1.6783904 12.5601227,1.29312109 12.7960505,0.993958246 C13.0319783,0.694795407 13.3143032,0.47823382 13.642722,0.344121086 C13.9711408,0.210008351 14.326852,0.142951983 14.7100072,0.142951983 C15.0930108,0.142951983 15.4488736,0.210008351 15.7772924,0.344121086 C16.1055596,0.47823382 16.3877329,0.694795407 16.6238123,0.993958246 C16.8598917,1.29312109 17.0445704,1.678238 17.178,2.14930898 C17.3114296,2.62037996 17.3779928,3.18944468 17.3779928,3.85635073 C17.3779928,4.53026722 17.3114296,5.10100835 17.178,5.56857411 C17.0445704,6.03629228 16.8597401,6.41958038 16.6238123,6.71874322 C16.3877329,7.01775365 16.1055596,7.23446764 15.7772924,7.36858038 C15.4488736,7.50269311 15.0930108,7.56974948 14.7100072,7.56974948 C14.326852,7.56974948 13.9711408,7.50269311 13.642722,7.36858038 C13.3143032,7.23446764 13.03213,7.01790605 12.7960505,6.71874322 C12.5599711,6.41958038 12.375444,6.03629228 12.2420144,5.56857411 C12.1085848,5.10100835 12.04187,4.53041962 12.04187,3.85635073 Z M13.4785126,3.85635073 C13.4785126,4.32406889 13.5041372,4.71421503 13.5555379,5.02709395 C13.606787,5.34012526 13.6838123,5.59448225 13.7863105,5.79046973 C13.8889603,5.9864572 14.0172347,6.12559916 14.1711336,6.20820042 C14.3251841,6.29080167 14.5047076,6.3319499 14.7100072,6.3319499 C14.9153069,6.3319499 15.0948303,6.29064927 15.2487292,6.20820042 C15.4027798,6.12559916 15.5309025,5.9864572 15.6335523,5.79046973 C15.7362022,5.59448225 15.8132274,5.34012526 15.8644765,5.02709395 C15.9157256,4.71421503 15.9413502,4.32406889 15.9413502,3.85635073 C15.9413502,3.39579541 15.9157256,3.00717328 15.8644765,2.69078914 C15.8130758,2.37455741 15.7360505,2.11837161 15.6335523,1.92238413 C15.5309025,1.72639666 15.4027798,1.5871023 15.2487292,1.50465344 C15.0948303,1.42220459 14.9153069,1.38090397 14.7100072,1.38090397 C14.5047076,1.38090397 14.3251841,1.42220459 14.1711336,1.50465344 C14.0172347,1.5872547 13.8889603,1.72654906 13.7863105,1.92238413 C13.6836606,2.11837161 13.6066354,2.37455741 13.5555379,2.69078914 C13.5041372,3.00717328 13.4785126,3.39579541 13.4785126,3.85635073 Z"></path>
                </g>
                <path d="M20.5251119,1.50968267 C20.5251119,1.73081628 20.4920578,1.92985177 20.4261011,2.10663674 C20.3601444,2.28357411 20.2665921,2.43475574 20.1455957,2.55987683 C20.0245993,2.68515031 19.8797978,2.78101044 19.7111913,2.8473048 C19.5424332,2.91359916 19.3554801,2.94682255 19.1501805,2.94682255 C18.9448809,2.94682255 18.7577762,2.91359916 18.5891697,2.8473048 C18.4205632,2.78101044 18.2757617,2.68515031 18.1547653,2.55987683 C18.033769,2.43460334 17.9402166,2.28357411 17.8742599,2.10663674 C17.8083032,1.92969937 17.7752491,1.73081628 17.7752491,1.50968267 C17.7752491,1.28854906 17.8083032,1.08966597 17.8742599,0.912728601 C17.9402166,0.735791232 18.033769,0.584762004 18.1547653,0.459488518 C18.2757617,0.334215031 18.4205632,0.238354906 18.5891697,0.172060543 C18.7577762,0.10576618 18.9448809,0.0725427975 19.1501805,0.0725427975 C19.3554801,0.0725427975 19.5424332,0.10576618 19.7111913,0.172060543 C19.8797978,0.238354906 20.0245993,0.334215031 20.1455957,0.459488518 C20.2665921,0.584762004 20.3601444,0.735791232 20.4261011,0.912728601 C20.4920578,1.08951357 20.5251119,1.28854906 20.5251119,1.50968267 Z M19.7551625,1.50968267 C19.7551625,1.25547808 19.7037617,1.06284342 19.6012635,0.932083507 C19.4986137,0.801323591 19.3483538,0.735791232 19.1503321,0.735791232 C18.9523105,0.735791232 18.8018989,0.801323591 18.6994007,0.932083507 C18.5965993,1.06299582 18.5453502,1.25547808 18.5453502,1.50968267 C18.5453502,1.76388727 18.5965993,1.95652192 18.6994007,2.08728184 C18.8020505,2.21819415 18.9523105,2.28357411 19.1503321,2.28357411 C19.3483538,2.28357411 19.4986137,2.21819415 19.6012635,2.08728184 C19.7037617,1.95652192 19.7551625,1.76388727 19.7551625,1.50968267 Z" id="Shape"></path>
            </g>
        </g>
    </g>
</svg>