<?xml version="1.0" encoding="UTF-8"?>
<svg width="83px" height="19px" viewBox="0 0 83 19" version="1.1" xmlns="http://www.w3.org/2000/svg" xmlns:xlink="http://www.w3.org/1999/xlink">
    <!-- Generator: Sketch 46.1 (44463) - http://www.bohemiancoding.com/sketch -->
    <title>Group 6</title>
    <desc>Created with Sketch.</desc>
    <defs></defs>
    <g id="Page-1" stroke="none" stroke-width="1" fill="none" fill-rule="evenodd">
        <g id="Group-6" transform="translate(-2.000000, -1.000000)" fill-rule="nonzero" fill="#FFFFFF">
            <path d="M17.6041071,5.84285714 L17.6041071,6.01428571 C17.6041071,10.2914286 17.6071429,14.5714286 17.6041071,18.8457143 C17.6041071,18.9857143 17.6344643,19.04 17.7923214,19.0371429 C18.615,19.0314286 19.4346429,19.0342857 20.2542857,19.0342857 C20.3089286,19.0342857 20.3635714,19.0285714 20.4242857,19.0228571 L20.4242857,5.84 L17.6041071,5.84 L17.6041071,5.84285714 Z M59.7823214,5.83428571 L59.5819643,5.83428571 C58.1673214,5.83428571 56.7496429,5.83142857 55.335,5.84 C55.18625,5.84 55.1376786,5.8 55.1376786,5.64857143 C55.14375,4.82285714 55.1407143,3.99714286 55.1407143,3.17428571 C55.1407143,2.98857143 55.1255357,2.97714286 54.93125,3.00285714 C54.6003571,3.05142857 54.2664286,3.09142857 53.9325,3.13714286 C53.4558929,3.2 52.9792857,3.27142857 52.5026786,3.32285714 C52.3266071,3.34285714 52.3023214,3.41142857 52.3023214,3.56285714 C52.3083929,7.56857143 52.3053571,11.5742857 52.3083929,15.5771429 C52.3083929,15.9171429 52.3266071,16.26 52.3782143,16.5942857 C52.5057143,17.4314286 52.9033929,18.1171429 53.6835714,18.5457143 C54.3058929,18.8885714 54.9980357,19.0114286 55.69625,19.0228571 C57.0016071,19.0428571 58.3039286,19.0314286 59.6123214,19.0314286 C59.6639286,19.0314286 59.7155357,19.0257143 59.7883929,19.0228571 L59.7883929,18.8685714 C59.7883929,18.2828571 59.7823214,17.6942857 59.7914286,17.1085714 C59.7914286,16.9628571 59.7398214,16.9314286 59.5971429,16.9314286 C58.7289286,16.9371429 57.8576786,16.9371429 56.9833929,16.9314286 C56.7010714,16.9285714 56.4126786,16.9142857 56.1303571,16.88 C55.6841071,16.8171429 55.3228571,16.6257143 55.2105357,16.1628571 C55.1680357,16 55.14375,15.8285714 55.1407143,15.66 C55.1376786,13.1542857 55.1407143,10.6485714 55.1407143,8.14571429 C55.1407143,7.93714286 55.1376786,7.93714286 55.3653571,7.93714286 C56.7708929,7.93714286 58.1733929,7.93714286 59.5819643,7.93428571 C59.64875,7.93428571 59.7185714,7.92857143 59.7823214,7.92285714 L59.7823214,5.83428571 L59.7823214,5.83428571 Z M73.3307143,19.0257143 L73.3307143,18.8171429 C73.3307143,14.7828571 73.3307143,10.7485714 73.3367857,6.71428571 C73.3367857,6.43714286 73.2335714,6.37142857 73.03625,6.31142857 C72.2621429,6.08285714 71.4698214,5.95714286 70.6744643,5.86285714 C70.0066071,5.78571429 69.3357143,5.72857143 68.6648214,5.68 C67.7935714,5.62285714 66.9192857,5.60571429 66.0510714,5.77142857 C65.1008929,5.95714286 64.2296429,6.31142857 63.4828571,6.93142857 C62.1775,8.01714286 61.6432143,9.45142857 61.54,11.0657143 C61.5035714,11.6914286 61.5278571,12.3228571 61.5248214,12.9542857 C61.5217857,13.6085714 61.5733929,14.2542857 61.7403571,14.8914286 C62.0773214,16.2028571 62.7633929,17.2771429 63.9291071,18.0514286 C64.8823214,18.6885714 65.9539286,18.9542857 67.0892857,19.02 C67.5264286,19.0457143 67.9605357,19.0171429 68.4007143,19.0257143 C68.5585714,19.0314286 68.5919643,18.9742857 68.5919643,18.8314286 C68.5889286,18.22 68.5919643,17.6114286 68.5919643,17.0028571 C68.5919643,16.9457143 68.5858929,16.8857143 68.5767857,16.8171429 L68.40375,16.8171429 C67.9848214,16.8171429 67.5628571,16.8457143 67.1530357,16.8114286 C66.2210714,16.7342857 65.4742857,16.3171429 64.9157143,15.5885714 C64.3905357,14.9057143 64.175,14.12 64.1446429,13.2914286 C64.1203571,12.5685714 64.1416071,11.8371429 64.1689286,11.1114286 C64.1932143,10.5085714 64.36625,9.93714286 64.6728571,9.41428571 C65.2921429,8.36571429 66.2301786,7.82571429 67.4748214,7.80857143 C68.1396429,7.80285714 68.8014286,7.83428571 69.46625,7.87142857 C69.7698214,7.88571429 70.0703571,7.94571429 70.3769643,7.97714286 C70.48625,7.99142857 70.5075,8.04285714 70.5075,8.14571429 C70.5044643,11.72 70.5044643,15.2942857 70.5044643,18.8714286 L70.5044643,19.0285714 L73.3307143,19.0285714 L73.3307143,19.0257143 Z M8.19642857,1.19428571 C8.22678571,1.20571429 8.25410714,1.22857143 8.2875,1.22857143 C8.95535714,1.22571429 9.61714286,1.29714286 10.2758929,1.41142857 C11.2776786,1.58857143 12.2369643,1.87714286 13.0960714,2.42857143 C13.9673214,2.99142857 14.5805357,3.74285714 14.9175,4.70571429 C15.1573214,5.37428571 15.2271429,6.06857143 15.2332143,6.77428571 C15.23625,7.42285714 15.1816071,8.06571429 14.9873214,8.69142857 C14.7353571,9.51142857 14.2951786,10.2085714 13.6242857,10.7771429 C12.7955357,11.48 11.8210714,11.8342857 10.77375,12.0485714 C9.80535714,12.2457143 8.81875,12.28 7.83214286,12.2542857 C7.75928571,12.2514286 7.68642857,12.2342857 7.60142857,12.2228571 C7.59839286,12.1714286 7.59535714,12.1228571 7.59535714,12.0771429 C7.59535714,11.3971429 7.59535714,10.7171429 7.59232143,10.04 C7.59232143,9.91428571 7.62571429,9.86857143 7.76232143,9.86857143 C8.19946429,9.86857143 8.63964286,9.87428571 9.07375,9.84 C9.82964286,9.78571429 10.5582143,9.62857143 11.1835714,9.19142857 C11.7178571,8.81714286 12.0244643,8.29428571 12.1428571,7.67142857 C12.2733929,7.01142857 12.2703571,6.34857143 12.09125,5.7 C11.8757143,4.93142857 11.3626786,4.40285714 10.6128571,4.08571429 C10.13625,3.88571429 9.63232143,3.76285714 9.11625,3.73142857 C8.59410714,3.70285714 8.08107143,3.68285714 7.565,3.67142857 C7.00035714,3.65714286 6.43571429,3.65428571 5.87107143,3.64857143 C5.64339286,3.64571429 5.64339286,3.64857143 5.64339286,3.87142857 C5.64035714,8.85142857 5.64035714,13.8342857 5.64035714,18.8171429 L5.64035714,19.0285714 L5.45821429,19.0285714 L2.88696429,19.0285714 C2.82321429,19.0285714 2.75946429,19.0342857 2.69267857,19.0371429 L2.69267857,1.19142857 L8.19642857,1.19142857 L8.19642857,1.19428571 Z M47.4451786,12.52 C47.4269643,11.9714286 47.4998214,11.3342857 47.3541071,10.7085714 C47.0657143,9.49142857 46.3614286,8.61428571 45.1289286,8.18 C44.5642857,7.98 43.9783929,7.94857143 43.3773214,8.00571429 C42.7823214,8.06 42.2207143,8.23714286 41.735,8.56285714 C41.1521429,8.95428571 40.7514286,9.50857143 40.5116071,10.1685714 C40.3325,10.6571429 40.2808929,11.1628571 40.2717857,11.6771429 C40.2657143,12.3114286 40.2657143,12.9457143 40.2717857,13.58 C40.2748214,13.8371429 40.26875,14.1028571 40.3355357,14.3485714 C40.4417857,14.7371429 40.56625,15.1257143 40.7514286,15.4857143 C41.11875,16.2057143 41.7167857,16.6942857 42.4969643,16.9714286 C43.0676786,17.1714286 43.6535714,17.2371429 44.2607143,17.18 C45.1046429,17.1028571 45.8423214,16.7942857 46.4251786,16.2085714 C47.11125,15.5228571 47.4239286,14.6685714 47.45125,13.7171429 C47.45125,13.3457143 47.4451786,12.9742857 47.4451786,12.52 L47.4451786,12.52 Z M43.5078571,19.3628571 C43.3257143,19.34 43.1405357,19.3142857 42.9614286,19.2942857 C41.3767857,19.1171429 40.0076786,18.5228571 38.9573214,17.3342857 C38.2803571,16.5685714 37.8614286,15.6742857 37.71875,14.6685714 C37.6610714,14.2742857 37.63375,13.8742857 37.6307143,13.4771429 C37.6155357,12.7542857 37.6003571,12.0314286 37.6307143,11.3085714 C37.6853571,9.8 38.2196429,8.48571429 39.3610714,7.43142857 C40.0167857,6.82285714 40.7908929,6.40285714 41.6651786,6.14571429 C42.1691071,5.99714286 42.6730357,5.90571429 43.1982143,5.86 C43.8448214,5.80285714 44.4853571,5.82 45.1198214,5.92571429 C46.8835714,6.22 48.3164286,7.02571429 49.2757143,8.52571429 C49.6825,9.17428571 49.9405357,9.88285714 50.0225,10.6371429 C50.065,11.0114286 50.0801786,11.3828571 50.08625,11.76 C50.0923214,12.5057143 50.1196429,13.2542857 50.0832143,14 C50.0133929,15.3971429 49.5125,16.6285714 48.4803571,17.6342857 C47.5180357,18.5771429 46.3310714,19.0828571 44.9892857,19.2657143 C44.77375,19.2914286 44.5491071,19.3057143 44.3335714,19.3314286 C44.3335714,19.3314286 44.2455357,19.3514286 44.2060714,19.3628571 L43.5078571,19.3628571 L43.5078571,19.3628571 Z M29.75,19.3628571 C29.5769643,19.3342857 29.41,19.3 29.2369643,19.2685714 C28.3869643,19.1114286 27.8041071,18.6085714 27.4428571,17.8714286 C27.2303571,17.4314286 27.0725,16.9657143 26.9116071,16.5085714 C26.5473214,15.4914286 26.20125,14.4714286 25.8430357,13.4514286 C25.2632143,11.7857143 24.6833929,10.1142857 24.1035714,8.44571429 C24.03375,8.24571429 23.9578571,8.04857143 23.8941071,7.85142857 C23.8698214,7.77142857 23.8273214,7.74571429 23.7423214,7.74571429 C23.3901786,7.74857143 23.0380357,7.74571429 22.6828571,7.74857143 C22.5978571,7.74857143 22.5583929,7.72857143 22.5583929,7.63142857 C22.5614286,7.06571429 22.5614286,6.5 22.5614286,5.93428571 C22.5614286,5.90571429 22.5675,5.87714286 22.5766071,5.83142857 L22.7557143,5.83142857 C23.7605357,5.83142857 24.7623214,5.83428571 25.7671429,5.82857143 C25.90375,5.82857143 25.9583929,5.87142857 25.9948214,5.99714286 C26.3530357,7.14 26.7173214,8.28571429 27.0846429,9.42857143 C27.5946429,11.0142857 28.1076786,12.6028571 28.6176786,14.1914286 C28.8817857,15.0114286 29.1428571,15.8342857 29.41,16.6542857 C29.4403571,16.7485714 29.4919643,16.8314286 29.5283929,16.9228571 C29.6771429,17.2657143 30.3389286,17.2828571 30.49375,16.9142857 C30.5969643,16.6685714 30.685,16.4142857 30.7639286,16.16 C31.1980357,14.8542857 31.6230357,13.5485714 32.0510714,12.24 C32.4457143,11.0371429 32.8373214,9.83142857 33.2289286,8.62285714 C33.5173214,7.74 33.80875,6.85142857 34.0971429,5.96571429 C34.1214286,5.88571429 34.14875,5.83142857 34.2580357,5.83142857 C35.0716071,5.83428571 35.89125,5.83142857 36.7048214,5.83142857 C36.7048214,5.83142857 36.7625,5.84 36.8171429,5.84571429 C36.7473214,6.05428571 36.6866071,6.25142857 36.6198214,6.44571429 C36.2130357,7.61714286 35.80625,8.78571429 35.3994643,9.95714286 C35.1141071,10.7771429 34.82875,11.5971429 34.5403571,12.42 C34.23375,13.3085714 33.9271429,14.2 33.6205357,15.0914286 C33.3230357,15.9371429 33.0376786,16.7914286 32.7098214,17.6257143 C32.4791071,18.2114286 32.0935714,18.7028571 31.5107143,19.0142857 C31.1858929,19.1942857 30.8246429,19.2971429 30.4482143,19.3257143 C30.3966071,19.3314286 30.3419643,19.3514286 30.2903571,19.3628571 L29.75,19.3628571 Z M78.9316071,1.19428571 C78.9285714,1.26571429 78.9194643,1.34 78.9194643,1.41142857 L78.9194643,18.8171429 L78.9194643,19.0257143 L76.1114286,19.0257143 C76.1083929,18.9628571 76.0992857,18.9 76.0992857,18.8314286 C76.0992857,13.0257143 76.0992857,7.22 76.0992857,1.41428571 C76.0992857,1.34 76.09625,1.26857143 76.0932143,1.19428571 L78.9316071,1.19428571 Z M20.4060714,1.19428571 L20.4060714,3.83714286 L17.61625,3.83714286 C17.6132143,3.78571429 17.6101786,3.73142857 17.6101786,3.68 L17.6101786,1.36857143 C17.6101786,1.31142857 17.6041071,1.25142857 17.5980357,1.19428571 L20.4060714,1.19428571 L20.4060714,1.19428571 Z" id="Shape"></path>
            <path d="M80.6923214,17.1542857 C80.6923214,16.0314286 81.6425,15.2028571 82.7626786,15.2028571 C83.87375,15.2028571 84.8239286,16.0314286 84.8239286,17.1542857 C84.8239286,18.2885714 83.87375,19.1171429 82.7626786,19.1171429 C81.6425,19.1171429 80.6923214,18.2857143 80.6923214,17.1542857 Z M82.7626786,18.7885714 C83.6855357,18.7885714 84.4141071,18.0942857 84.4141071,17.1514286 C84.4141071,16.2228571 83.6855357,15.5257143 82.7626786,15.5257143 C81.8276786,15.5257143 81.1021429,16.2257143 81.1021429,17.1514286 C81.1021429,18.0942857 81.8276786,18.7885714 82.7626786,18.7885714 Z M82.3316071,18.2857143 L81.9764286,18.2857143 L81.9764286,16.0285714 L82.8689286,16.0285714 C83.4275,16.0285714 83.7007143,16.2257143 83.7007143,16.6714286 C83.7007143,17.0742857 83.4366071,17.2514286 83.0935714,17.2942857 L83.7614286,18.2885714 L83.36375,18.2885714 L82.7444643,17.3085714 L82.3346429,17.3085714 L82.3346429,18.2857143 L82.3316071,18.2857143 Z M82.7566071,17.0171429 C83.0571429,17.0171429 83.3273214,16.9971429 83.3273214,16.6485714 C83.3273214,16.3685714 83.0632143,16.3171429 82.8142857,16.3171429 L82.3285714,16.3171429 L82.3285714,17.0171429 L82.7566071,17.0171429 Z" id="Shape"></path>
        </g>
    </g>
</svg>