<?xml version="1.0" encoding="UTF-8"?>
<svg width="66px" height="15px" viewBox="0 0 66 15" version="1.1" xmlns="http://www.w3.org/2000/svg" xmlns:xlink="http://www.w3.org/1999/xlink">
    <!-- Generator: Sketch 46.2 (44496) - http://www.bohemiancoding.com/sketch -->
    <title>PIVOTAL</title>
    <desc>Created with Sketch.</desc>
    <defs></defs>
    <g id="Page-1" stroke="none" stroke-width="1" fill="none" fill-rule="evenodd">
        <g id="PIVOTAL" fill-rule="nonzero" fill="#FFFFFF">
            <path d="M12.3190319,3.82330827 L12.3190319,3.95864661 C12.3190319,7.33533837 12.3214286,10.7142857 12.3190319,14.0887218 C12.3190319,14.1992481 12.3429981,14.2421053 12.4676222,14.2398497 C13.1171053,14.2353384 13.7641918,14.237594 14.4112782,14.237594 C14.4544173,14.237594 14.4975564,14.2330827 14.5454887,14.2285714 L14.5454887,3.82105263 L12.3190319,3.82105263 L12.3190319,3.82330827 Z M45.6176222,3.81654135 L45.4594455,3.81654135 C44.3426222,3.81654135 43.2234023,3.81428571 42.1065789,3.82105263 C41.9891447,3.82105263 41.9507989,3.78947368 41.9507989,3.66992481 C41.9555921,3.01804511 41.9531955,2.36616542 41.9531955,1.71654135 C41.9531955,1.56992481 41.9412124,1.56090226 41.7878289,1.58120301 C41.5265977,1.61954887 41.2629699,1.65112782 40.9993421,1.68721805 C40.6230733,1.73684211 40.2468045,1.79323308 39.8705357,1.83383458 C39.7315319,1.84962406 39.712359,1.9037594 39.712359,2.02330827 C39.7171523,5.18571429 39.7147556,8.34812029 39.7171523,11.5082707 C39.7171523,11.7766918 39.7315319,12.0473684 39.7722744,12.3112782 C39.8729323,12.9721805 40.1868891,13.5135339 40.8028195,13.8518797 C41.294126,14.1225564 41.8405545,14.2195489 42.3917763,14.2285714 C43.4223214,14.2443609 44.4504699,14.2353384 45.4834116,14.2353384 C45.5241542,14.2353384 45.5648966,14.2308271 45.6224154,14.2285714 L45.6224154,14.1067669 C45.6224154,13.6443609 45.6176222,13.1796992 45.6248121,12.7172932 C45.6248121,12.6022556 45.5840695,12.5774436 45.4714286,12.5774436 C44.7859963,12.5819549 44.0981673,12.5819549 43.4079418,12.5774436 C43.1850564,12.5751879 42.9573778,12.5639098 42.7344924,12.5368421 C42.3821898,12.4872181 42.0969924,12.3360902 42.0083177,11.9706767 C41.974765,11.8421053 41.9555921,11.7067669 41.9531955,11.5736842 C41.9507989,9.59548871 41.9531955,7.61729321 41.9531955,5.64135339 C41.9531955,5.47669173 41.9507989,5.47669173 42.1305451,5.47669173 C43.2401786,5.47669173 44.3474154,5.47669173 45.4594455,5.47443609 C45.5121711,5.47443609 45.5672932,5.46992481 45.6176222,5.46541353 L45.6176222,3.81654135 L45.6176222,3.81654135 Z M56.3137218,14.2308271 L56.3137218,14.0661654 C56.3137218,10.881203 56.3137218,7.69624058 56.318515,4.51127819 C56.318515,4.29248121 56.2370301,4.2406015 56.08125,4.19323308 C55.4701128,4.01278195 54.8445958,3.91353384 54.2166823,3.83909774 C53.6894267,3.77819549 53.1597744,3.73308271 52.6301222,3.69473684 C51.9422932,3.64962406 51.2520677,3.63609023 50.5666353,3.76691729 C49.8164944,3.91353384 49.1286654,4.19323308 48.5390977,4.68270677 C47.5085526,5.53984963 47.0867481,6.67218045 47.0052632,7.94661655 C46.9765037,8.44060153 46.9956767,8.93909771 46.9932801,9.43759397 C46.9908834,9.95413532 47.031626,10.4639098 47.1634398,10.9669173 C47.4294643,12.0022556 47.9710997,12.850376 48.8914003,13.4616542 C49.6439379,13.9646616 50.4899436,14.1744361 51.3862782,14.2263158 C51.731391,14.2466166 52.0741071,14.2240602 52.4216166,14.2308271 C52.5462406,14.2353384 52.5726034,14.1902256 52.5726034,14.0774436 C52.5702068,13.5947368 52.5726034,13.1142857 52.5726034,12.6338346 C52.5726034,12.5887218 52.5678102,12.5413534 52.5606203,12.4872181 L52.4240132,12.4872181 C52.0932801,12.4872181 51.7601503,12.5097744 51.4366071,12.4827068 C50.7008458,12.4218045 50.1112782,12.0924812 49.6703008,11.5172932 C49.2556861,10.9781955 49.0855263,10.3578947 49.0615602,9.70375942 C49.0423872,9.13308268 49.0591635,8.55563913 49.0807331,7.98270679 C49.099906,7.50676689 49.2365132,7.0556391 49.4785714,6.64285714 C49.9674812,5.8150376 50.7080357,5.38872181 51.6906485,5.37518797 C52.2155076,5.37067669 52.7379699,5.39548872 53.2628289,5.42481203 C53.5024906,5.43609023 53.7397556,5.48345865 53.9818139,5.50827068 C54.0680921,5.51954887 54.0848684,5.56015037 54.0848684,5.64135339 C54.0824718,8.46315789 54.0824718,11.2849624 54.0824718,14.1090226 L54.0824718,14.2330827 L56.3137218,14.2330827 L56.3137218,14.2308271 Z M4.89191729,0.153383455 C4.91588346,0.162406018 4.93745301,0.180451129 4.96381579,0.180451129 C5.49107143,0.178195492 6.01353384,0.234586468 6.53359966,0.324812029 C7.32448311,0.464661655 8.08181392,0.692481205 8.76005637,1.12781955 C9.44788532,1.57218045 9.93200187,2.16541353 10.1980263,2.92556391 C10.387359,3.45338346 10.4424812,4.00150376 10.4472744,4.55864661 C10.4496711,5.07067669 10.4065319,5.57819549 10.2531485,6.07218045 C10.0542293,6.71954887 9.70671995,7.26992479 9.17706766,7.71879703 C8.52279134,8.27368421 7.75347742,8.55338345 6.92664474,8.72255637 C6.16212406,8.8781955 5.38322368,8.90526316 4.60432331,8.88496239 C4.54680451,8.88270679 4.48928571,8.86917292 4.42218045,8.86015034 C4.41978384,8.81954889 4.41738722,8.78120297 4.41738722,8.74511282 C4.41738722,8.20827071 4.41738722,7.67142861 4.4149906,7.13684211 C4.4149906,7.03759398 4.44135339,7.00150376 4.54920113,7.00150376 C4.89431391,7.00150376 5.24182331,7.00601503 5.58453947,6.97894737 C6.18129699,6.93609023 6.75648497,6.81203008 7.25018795,6.46691729 C7.67199245,6.17142857 7.91405076,5.75864661 8.00751876,5.26691729 C8.11057334,4.74586466 8.10817666,4.22255639 7.96677632,3.71052632 C7.79661655,3.1037594 7.39158837,2.68646616 6.79962403,2.43609023 C6.42335526,2.27819549 6.02551692,2.18120301 5.61809211,2.15639098 C5.20587406,2.13383458 4.80084587,2.11804511 4.39342105,2.10902256 C3.94765037,2.09774436 3.5018797,2.09548872 3.05610902,2.09097744 C2.87636278,2.08872181 2.87636278,2.09097744 2.87636278,2.26691729 C2.87396616,6.19849624 2.87396616,10.1323308 2.87396616,14.0661654 L2.87396616,14.2330827 L2.73016918,14.2330827 L0.700234966,14.2330827 C0.649906018,14.2330827 0.599577071,14.237594 0.546851503,14.2398497 L0.546851503,0.151127818 L4.89191729,0.151127818 L4.89191729,0.153383455 Z M35.8777726,9.09473684 C35.8633929,8.66165416 35.9209116,8.15864661 35.805874,7.66466163 C35.5781955,6.7037594 35.0221805,6.01127819 34.0491542,5.66842105 C33.6033834,5.51052632 33.1408365,5.48571429 32.6663064,5.53082707 C32.1965695,5.57368421 31.7531955,5.71353384 31.3697368,5.97067669 C30.9095865,6.27969924 30.5932331,6.71729323 30.4039003,7.23834584 C30.2625,7.62406018 30.2217576,8.02330824 30.2145677,8.42932334 C30.2097744,8.93007521 30.2097744,9.43082708 30.2145677,9.93157895 C30.2169643,10.1345865 30.2121711,10.3443609 30.2648966,10.5383458 C30.3487782,10.8451128 30.4470395,11.1518797 30.5932331,11.4360902 C30.8832237,12.0045113 31.3553571,12.3902256 31.9712876,12.6090226 C32.4218515,12.7669173 32.8843985,12.818797 33.3637218,12.7736842 C34.0299812,12.7127819 34.612359,12.4691729 35.0725094,12.0067669 C35.6141447,11.4654135 35.8609963,10.7909774 35.8825658,10.0398497 C35.8825658,9.74661655 35.8777726,9.45338345 35.8777726,9.09473684 L35.8777726,9.09473684 Z M32.7693609,14.4969924 C32.6255639,14.4789474 32.4793703,14.4586466 32.3379699,14.4428571 C31.0869361,14.3030076 30.0060621,13.8338346 29.1768327,12.8954887 C28.6423872,12.2909774 28.3116542,11.5849624 28.1990132,10.7909774 C28.1534774,10.4796992 28.1319079,10.1639098 28.1295113,9.85037597 C28.1175282,9.27969924 28.1055451,8.70902258 28.1295113,8.13834584 C28.1726503,6.94736842 28.5944549,5.90977444 29.4955827,5.07744361 C30.0132519,4.59699248 30.6243891,4.26541353 31.3146147,4.06240602 C31.712453,3.94511278 32.1102913,3.87293233 32.524906,3.83684211 C33.0353853,3.79172932 33.5410714,3.80526316 34.0419643,3.88872181 C35.4343985,4.12105263 36.5656015,4.75714286 37.3229323,5.94135339 C37.6440789,6.45338346 37.8477913,7.01278195 37.9125,7.60827071 C37.9460526,7.90375942 37.9580357,8.19699245 37.9628289,8.49473684 C37.9676222,9.08345866 37.9891918,9.67443608 37.9604323,10.2631579 C37.9053102,11.3661654 37.5098684,12.3383458 36.6950188,13.1323308 C35.9352913,13.8766918 34.9982143,14.2759398 33.9389098,14.4203008 C33.76875,14.4406015 33.5914003,14.4518797 33.4212406,14.4721805 C33.4212406,14.4721805 33.3517387,14.4879699 33.3205827,14.4969924 L32.7693609,14.4969924 L32.7693609,14.4969924 Z M21.9078947,14.4969924 C21.7712876,14.4744361 21.6394737,14.4473684 21.5028666,14.4225564 C20.8318139,14.2984963 20.3716635,13.9015037 20.0864661,13.3195489 C19.918703,12.9721805 19.7940789,12.6045113 19.6670582,12.243609 C19.3794643,11.4406015 19.10625,10.6353384 18.8234492,9.83007521 C18.3656955,8.51503761 17.9079418,7.19548871 17.4501879,5.87819549 C17.3950658,5.72030076 17.3351503,5.56466166 17.2848214,5.40902256 C17.2656485,5.34586466 17.2320958,5.32556391 17.1649906,5.32556391 C16.8869831,5.32781955 16.6089756,5.32556391 16.3285714,5.32781955 C16.2614661,5.32781955 16.2303102,5.31203008 16.2303102,5.23533834 C16.2327068,4.78872181 16.2327068,4.34210526 16.2327068,3.89548872 C16.2327068,3.87293233 16.2375,3.85037594 16.2446898,3.81428571 L16.3860902,3.81428571 C17.1793703,3.81428571 17.9702537,3.81654135 18.7635339,3.81203008 C18.8713816,3.81203008 18.9145207,3.84586466 18.9432801,3.94511278 C19.2260808,4.84736842 19.5136748,5.7518797 19.8036654,6.65413534 C20.206297,7.90601503 20.6113252,9.16015034 21.0139568,10.4142857 C21.2224624,11.0616542 21.4285714,11.7112782 21.6394737,12.3586466 C21.6634398,12.4330827 21.7041823,12.4984963 21.7329418,12.5706767 C21.850376,12.8413534 22.3728384,12.8548872 22.4950658,12.5639098 C22.5765508,12.3699248 22.6460526,12.1691729 22.7083647,11.9684211 C23.0510808,10.937594 23.3866071,9.90676689 23.7245301,8.87368421 C24.0360902,7.92406018 24.3452537,6.97218045 24.6544173,6.01804511 C24.8820958,5.32105263 25.1121711,4.61954887 25.3398497,3.92030076 C25.3590226,3.85714286 25.3805921,3.81428571 25.4668703,3.81428571 C26.1091635,3.81654135 26.75625,3.81428571 27.3985432,3.81428571 C27.3985432,3.81428571 27.4440789,3.82105263 27.4872181,3.82556391 C27.4320958,3.99022556 27.3841635,4.14586466 27.3314379,4.29924812 C27.0102913,5.22406015 26.6891447,6.14661654 26.3679981,7.07142857 C26.1427161,7.71879703 25.9174342,8.36616545 25.6897556,9.01578947 C25.4476974,9.71729321 25.2056391,10.4210526 24.9635808,11.1248121 C24.7287124,11.7924812 24.5034305,12.4669173 24.2445958,13.1255639 C24.062453,13.5879699 23.7580827,13.9759398 23.2979323,14.2218045 C23.0414944,14.3639098 22.756297,14.4451128 22.4591166,14.4676692 C22.418374,14.4721805 22.375235,14.4879699 22.3344924,14.4969924 L21.9078947,14.4969924 Z M60.7354793,0.153383455 C60.7330827,0.209774439 60.7258929,0.268421053 60.7258929,0.324812029 L60.7258929,14.0661654 L60.7258929,14.2308271 L58.5090226,14.2308271 C58.506626,14.181203 58.4994361,14.1315789 58.4994361,14.0774436 C58.4994361,9.49398497 58.4994361,4.91052632 58.4994361,0.327067666 C58.4994361,0.268421053 58.4970395,0.212030076 58.4946429,0.153383455 L60.7354793,0.153383455 Z M14.531109,0.153383455 L14.531109,2.23984963 L12.3286184,2.23984963 C12.3262218,2.19924812 12.3238252,2.15639098 12.3238252,2.11578947 L12.3238252,0.290977445 C12.3238252,0.245864661 12.3190319,0.198496239 12.3142387,0.153383455 L14.531109,0.153383455 L14.531109,0.153383455 Z" id="Shape"></path>
            <path d="M62.1255169,12.7533834 C62.1255169,11.8669173 62.8756579,11.2127819 63.7600094,11.2127819 C64.6371711,11.2127819 65.3873121,11.8669173 65.3873121,12.7533834 C65.3873121,13.6488722 64.6371711,14.3030076 63.7600094,14.3030076 C62.8756579,14.3030076 62.1255169,13.6466166 62.1255169,12.7533834 Z M63.7600094,14.043609 C64.4885808,14.043609 65.0637688,13.4954887 65.0637688,12.7511278 C65.0637688,12.0180451 64.4885808,11.4676692 63.7600094,11.4676692 C63.0218515,11.4676692 62.4490602,12.0203008 62.4490602,12.7511278 C62.4490602,13.4954887 63.0218515,14.043609 63.7600094,14.043609 Z M63.4196898,13.6466166 L63.1392857,13.6466166 L63.1392857,11.8646616 L63.843891,11.8646616 C64.2848684,11.8646616 64.5005639,12.0203008 64.5005639,12.3721805 C64.5005639,12.6902256 64.2920582,12.8300752 64.0212406,12.8639098 L64.5484963,13.6488722 L64.2345395,13.6488722 L63.7456297,12.8751879 L63.4220865,12.8751879 L63.4220865,13.6466166 L63.4196898,13.6466166 Z M63.7552161,12.6451128 C63.9924812,12.6451128 64.2057801,12.6293233 64.2057801,12.3541353 C64.2057801,12.1330827 63.9972744,12.0924812 63.8007519,12.0924812 L63.4172932,12.0924812 L63.4172932,12.6451128 L63.7552161,12.6451128 Z" id="Shape"></path>
        </g>
    </g>
</svg>