<?xml version="1.0" encoding="UTF-8"?>
<svg width="45px" height="17px" viewBox="0 0 45 17" version="1.1" xmlns="http://www.w3.org/2000/svg" xmlns:xlink="http://www.w3.org/1999/xlink">
    <!-- Generator: Sketch 46.2 (44496) - http://www.bohemiancoding.com/sketch -->
    <title>RSA</title>
    <desc>Created with Sketch.</desc>
    <defs></defs>
    <g id="Page-1" stroke="none" stroke-width="1" fill="none" fill-rule="evenodd">
        <g id="RSA" fill-rule="nonzero" fill="#FFFFFF">
            <path d="M21.7859048,7.12542857 C19.2786476,6.41385714 18.2996905,5.814 18.2996905,4.59971429 C18.2996905,2.76128571 20.5440143,2.584 21.3445524,2.584 C22.609919,2.584 24.2156905,3.009 25.1641286,3.502 L26.1712571,1.513 C24.8894571,0.847571429 22.9221524,0.403142857 21.2764714,0.403142857 C17.778519,0.403142857 15.5881905,2.00357143 15.5881905,4.73814286 C15.5881905,7.86128571 18.6800048,8.74528571 21.0792714,9.42528571 C23.584181,10.1344286 24.4574952,10.9334286 24.4574952,12.1501429 C24.4574952,14.1731429 22.4103714,14.4912857 21.1450048,14.4912857 C19.4101143,14.4912857 17.9733714,14.0031429 16.5741905,13.1337143 L15.3769048,15.1688571 C17.1446619,16.2641429 18.9781524,16.7741429 21.1450048,16.7741429 C24.767381,16.7741429 27.1689952,14.892 27.1689952,11.9801429 C27.1689952,8.72342857 24.2438619,7.82485714 21.7859048,7.12542857 L21.7859048,7.12542857 Z M12.355519,5.33557143 C12.3156095,2.59371429 10.174581,0.682428571 7.14615238,0.682428571 L1.7865381,0.682428571 L0.596295238,0.682428571 L0.596295238,16.3758571 L2.98147619,16.3758571 L2.98147619,2.975 L7.00764286,2.975 C8.35987143,2.975 9.8107,3.68171429 9.83182857,5.36957143 C9.85530476,6.87528571 8.73549048,7.81514286 6.83626667,7.89285714 L6.79870476,7.89771429 L5.35491905,7.90985714 L10.1651905,16.4001429 L12.984681,16.3952857 C12.984681,16.3952857 10.6699286,12.2885714 9.2191,9.71428571 C11.357781,8.91285714 12.3789952,7.14242857 12.355519,5.33557143 L12.355519,5.33557143 Z M44.8066571,16.3952857 L41.8885667,16.4001429 L36.6017286,4.16014286 L31.533219,16.4001429 L28.5986952,16.4001429 L35.2588905,0.791714286 L37.9962143,0.789285714 L44.8066571,16.3952857 Z" id="Shape"></path>
            <path d="M41.529381,1.38428571 C41.529381,1.38428571 41.578681,1.38428571 41.6045048,1.38185714 C41.6045048,1.38185714 41.6467619,1.37457143 41.6608476,1.36485714 C41.6796286,1.35514286 41.6937143,1.34057143 41.7031048,1.32357143 C41.7148429,1.30414286 41.7218857,1.28228571 41.7218857,1.25071429 C41.7218857,1.224 41.7148429,1.20457143 41.7031048,1.18757143 C41.6913667,1.173 41.677281,1.15842857 41.6608476,1.15114286 C41.6444143,1.14385714 41.6256333,1.139 41.6045048,1.13657143 C41.5833762,1.13171429 41.5622476,1.13171429 41.5622476,1.13171429 L41.3791333,1.13171429 L41.3791333,1.38428571 L41.529381,1.38428571 Z M41.3791333,1.87485714 L41.2476667,1.87485714 L41.2476667,1.01271429 L41.5599,1.01271429 C41.6561524,1.01271429 41.7312762,1.03214286 41.7805762,1.071 C41.8298762,1.10985714 41.8557,1.173 41.8557,1.26042857 C41.8557,1.34057143 41.836919,1.39642857 41.7946619,1.43285714 C41.7547524,1.46928571 41.7007571,1.49114286 41.639719,1.49842857 L41.8721333,1.87485714 L41.7171905,1.87485714 L41.5059048,1.50571429 L41.3767857,1.50571429 L41.3767857,1.87485714 L41.3791333,1.87485714 Z M42.0904619,1.43042857 C42.0904619,1.33571429 42.0763762,1.24828571 42.0482048,1.16814286 C42.0200333,1.088 41.9801238,1.02242857 41.9308238,0.964142857 C41.8768286,0.908285714 41.8157905,0.862142857 41.7477095,0.833 C41.6796286,0.803857143 41.6045048,0.786857143 41.5270333,0.786857143 C41.4472143,0.786857143 41.3720905,0.803857143 41.3063571,0.833 C41.233581,0.862142857 41.1748905,0.908285714 41.1232429,0.964142857 C41.0739429,1.02242857 41.0293381,1.088 41.0011667,1.16814286 C40.9729952,1.24828571 40.9589095,1.33571429 40.9589095,1.43042857 C40.9589095,1.52028571 40.9729952,1.60528571 40.998819,1.68057143 C41.0246429,1.75828571 41.0622048,1.82628571 41.1138524,1.88457143 C41.1608048,1.94285714 41.2241905,1.99142857 41.2922714,2.02542857 C41.3603524,2.05942857 41.442519,2.07642857 41.529381,2.07642857 C41.6068524,2.07642857 41.6843238,2.06185714 41.7500571,2.03028571 C41.8181381,1.99871429 41.8791762,1.955 41.9331714,1.89671429 C41.9824714,1.84085714 42.022381,1.77285714 42.0505524,1.69514286 C42.0763762,1.61257143 42.0904619,1.52514286 42.0904619,1.43042857 L42.0904619,1.43042857 Z M42.2501,1.43042857 C42.2501,1.547 42.2289714,1.65385714 42.1890619,1.74857143 C42.1538476,1.84571429 42.0998524,1.92828571 42.0317714,1.99628571 C41.9636905,2.06428571 41.8885667,2.11771429 41.7993571,2.15414286 C41.7124952,2.193 41.6209381,2.21 41.5246857,2.21 C41.4166952,2.21 41.3204429,2.18814286 41.2312333,2.14928571 C41.1420238,2.11042857 41.0669,2.05457143 41.0011667,1.98414286 C40.937781,1.91371429 40.8861333,1.83114286 40.850919,1.73642857 C40.8157048,1.63928571 40.7969238,1.53728571 40.7969238,1.42557143 C40.7969238,1.309 40.8157048,1.20214286 40.8532667,1.10742857 C40.8931762,1.01028571 40.9471714,0.927714286 41.0105571,0.859714286 C41.0786381,0.791714286 41.1537619,0.738285714 41.2429714,0.701857143 C41.332181,0.663 41.4260857,0.646 41.5223381,0.646 C41.6185905,0.646 41.7124952,0.665428571 41.7970095,0.701857143 C41.886219,0.740714286 41.9613429,0.791714286 42.0294238,0.859714286 C42.0975048,0.927714286 42.1515,1.01028571 42.1867143,1.10742857 C42.2289714,1.207 42.2501,1.31142857 42.2501,1.43042857 L42.2501,1.43042857 Z" id="Shape"></path>
        </g>
    </g>
</svg>