<?xml version="1.0" encoding="UTF-8"?>
<svg width="56px" height="21px" viewBox="0 0 56 21" version="1.1" xmlns="http://www.w3.org/2000/svg" xmlns:xlink="http://www.w3.org/1999/xlink">
    <!-- Generator: Sketch 46.1 (44463) - http://www.bohemiancoding.com/sketch -->
    <title>Group 5</title>
    <desc>Created with Sketch.</desc>
    <defs></defs>
    <g id="Page-1" stroke="none" stroke-width="1" fill="none" fill-rule="evenodd">
        <g id="Group-5" fill-rule="nonzero" fill="#FFFFFF">
            <path d="M26.912,8.802 C23.8148,7.923 22.6055,7.182 22.6055,5.682 C22.6055,3.411 25.3779,3.192 26.3668,3.192 C27.9299,3.192 29.9135,3.717 31.0851,4.326 L32.3292,1.869 C30.7458,1.047 28.3156,0.498 26.2827,0.498 C21.9617,0.498 19.256,2.475 19.256,5.853 C19.256,9.711 23.0753,10.803 26.0391,11.643 C29.1334,12.519 30.2122,13.506 30.2122,15.009 C30.2122,17.508 27.6834,17.901 26.1203,17.901 C23.9772,17.901 22.2024,17.298 20.474,16.224 L18.995,18.738 C21.1787,20.091 23.4436,20.721 26.1203,20.721 C30.595,20.721 33.5617,18.396 33.5617,14.799 C33.5617,10.776 29.9483,9.666 26.912,8.802 L26.912,8.802 Z M15.2627,6.591 C15.2134,3.204 12.5686,0.843 8.8276,0.843 L2.2069,0.843 L0.7366,0.843 L0.7366,20.229 L3.683,20.229 L3.683,3.675 L8.6565,3.675 C10.3269,3.675 12.1191,4.548 12.1452,6.633 C12.1742,8.493 10.7909,9.654 8.4448,9.75 L8.3984,9.756 L6.6149,9.771 L12.557,20.259 L16.0399,20.253 C16.0399,20.253 13.1805,15.18 11.3883,12 C14.0302,11.01 15.2917,8.823 15.2627,6.591 L15.2627,6.591 Z M55.3494,20.253 L51.7447,20.259 L45.2139,5.139 L38.9528,20.259 L35.3278,20.259 L43.5551,0.978 L46.9365,0.975 L55.3494,20.253 Z" id="Shape"></path>
            <path d="M51.301,1.71 C51.301,1.71 51.3619,1.71 51.3938,1.707 C51.3938,1.707 51.446,1.698 51.4634,1.686 C51.4866,1.674 51.504,1.656 51.5156,1.635 C51.5301,1.611 51.5388,1.584 51.5388,1.545 C51.5388,1.512 51.5301,1.488 51.5156,1.467 C51.5011,1.449 51.4837,1.431 51.4634,1.422 C51.4431,1.413 51.4199,1.407 51.3938,1.404 C51.3677,1.398 51.3416,1.398 51.3416,1.398 L51.1154,1.398 L51.1154,1.71 L51.301,1.71 Z M51.1154,2.316 L50.953,2.316 L50.953,1.251 L51.3387,1.251 C51.4576,1.251 51.5504,1.275 51.6113,1.323 C51.6722,1.371 51.7041,1.449 51.7041,1.557 C51.7041,1.656 51.6809,1.725 51.6287,1.77 C51.5794,1.815 51.5127,1.842 51.4373,1.851 L51.7244,2.316 L51.533,2.316 L51.272,1.86 L51.1125,1.86 L51.1125,2.316 L51.1154,2.316 Z M51.9941,1.767 C51.9941,1.65 51.9767,1.542 51.9419,1.443 C51.9071,1.344 51.8578,1.263 51.7969,1.191 C51.7302,1.122 51.6548,1.065 51.5707,1.029 C51.4866,0.993 51.3938,0.972 51.2981,0.972 C51.1995,0.972 51.1067,0.993 51.0255,1.029 C50.9356,1.065 50.8631,1.122 50.7993,1.191 C50.7384,1.263 50.6833,1.344 50.6485,1.443 C50.6137,1.542 50.5963,1.65 50.5963,1.767 C50.5963,1.878 50.6137,1.983 50.6456,2.076 C50.6775,2.172 50.7239,2.256 50.7877,2.328 C50.8457,2.4 50.924,2.46 51.0081,2.502 C51.0922,2.544 51.1937,2.565 51.301,2.565 C51.3967,2.565 51.4924,2.547 51.5736,2.508 C51.6577,2.469 51.7331,2.415 51.7998,2.343 C51.8607,2.274 51.91,2.19 51.9448,2.094 C51.9767,1.992 51.9941,1.884 51.9941,1.767 L51.9941,1.767 Z M52.1913,1.767 C52.1913,1.911 52.1652,2.043 52.1159,2.16 C52.0724,2.28 52.0057,2.382 51.9216,2.466 C51.8375,2.55 51.7447,2.616 51.6345,2.661 C51.5272,2.709 51.4141,2.73 51.2952,2.73 C51.1618,2.73 51.0429,2.703 50.9327,2.655 C50.8225,2.607 50.7297,2.538 50.6485,2.451 C50.5702,2.364 50.5064,2.262 50.4629,2.145 C50.4194,2.025 50.3962,1.899 50.3962,1.761 C50.3962,1.617 50.4194,1.485 50.4658,1.368 C50.5151,1.248 50.5818,1.146 50.6601,1.062 C50.7442,0.978 50.837,0.912 50.9472,0.867 C51.0574,0.819 51.1734,0.798 51.2923,0.798 C51.4112,0.798 51.5272,0.822 51.6316,0.867 C51.7418,0.915 51.8346,0.978 51.9187,1.062 C52.0028,1.146 52.0695,1.248 52.113,1.368 C52.1652,1.491 52.1913,1.62 52.1913,1.767 L52.1913,1.767 Z" id="Shape"></path>
        </g>
    </g>
</svg>