<?xml version="1.0" encoding="UTF-8"?>
<svg width="152px" height="24px" viewBox="0 0 152 24" version="1.1" xmlns="http://www.w3.org/2000/svg" xmlns:xlink="http://www.w3.org/1999/xlink">
    <!-- Generator: Sketch 46.1 (44463) - http://www.bohemiancoding.com/sketch -->
    <title>Group</title>
    <desc>Created with Sketch.</desc>
    <defs></defs>
    <g id="Page-1" stroke="none" stroke-width="1" fill="none" fill-rule="evenodd">
        <g id="Group" transform="translate(0.000000, -1.000000)" fill-rule="nonzero" fill="#FFFFFF">
            <path d="M3.615,22.5477 L1.863,22.5477 L1.368,23.8221 L0.918,23.8221 L2.514,19.8207 L2.973,19.8207 L4.572,23.8221 L4.119,23.8221 L3.615,22.5477 Z M2.739,20.2392 C2.718,20.304 2.7,20.3661 2.679,20.4282 C2.664,20.4822 2.643,20.5389 2.625,20.5983 C2.604,20.6577 2.586,20.709 2.568,20.7549 L1.989,22.2048 L3.483,22.2048 L2.916,20.7549 C2.895,20.709 2.877,20.6577 2.856,20.5983 C2.838,20.5389 2.82,20.4822 2.802,20.4282 C2.781,20.3688 2.766,20.304 2.751,20.2392 L2.739,20.2392 Z" id="Shape"></path>
            <path d="M6.873,19.7883 L8.373,19.7883 C8.715,19.7883 9.021,19.8315 9.297,19.9206 C9.573,20.0097 9.807,20.142 9.999,20.3121 C10.197,20.4849 10.347,20.6955 10.455,20.9439 C10.563,21.195 10.617,21.4785 10.617,21.7971 C10.617,22.1157 10.563,22.3992 10.455,22.6503 C10.347,22.9041 10.197,23.1147 9.999,23.2875 C9.807,23.4603 9.573,23.5926 9.297,23.6844 C9.021,23.7762 8.712,23.8221 8.373,23.8221 L6.873,23.8221 L6.873,19.7883 Z M8.334,23.193 C8.556,23.193 8.757,23.1633 8.937,23.1012 C9.117,23.0418 9.273,22.9554 9.399,22.8366 C9.525,22.7205 9.624,22.5747 9.69,22.4019 C9.762,22.2264 9.792,22.0266 9.792,21.7998 C9.792,21.5757 9.762,21.3759 9.69,21.2058 C9.618,21.033 9.519,20.8872 9.393,20.7684 C9.264,20.655 9.111,20.5659 8.934,20.5038 C8.757,20.4444 8.553,20.4147 8.337,20.4147 L7.68,20.4147 L7.68,23.193 L8.334,23.193 L8.334,23.193 Z" id="Shape"></path>
            <path d="M11.106,22.3722 C11.106,22.1508 11.142,21.9456 11.226,21.7593 C11.301,21.573 11.412,21.4137 11.559,21.2787 C11.697,21.1437 11.868,21.0384 12.063,20.9655 C12.255,20.8926 12.474,20.8548 12.705,20.8548 C12.936,20.8548 13.134,20.8926 13.308,20.9628 C13.485,21.033 13.632,21.1302 13.749,21.2571 C13.866,21.3813 13.956,21.5244 14.013,21.6918 C14.073,21.8592 14.103,22.0401 14.103,22.2318 C14.103,22.2534 14.103,22.2804 14.1,22.3101 C14.1,22.3425 14.097,22.3722 14.097,22.4046 C14.094,22.437 14.091,22.4748 14.085,22.5126 L11.91,22.5126 C11.919,22.6368 11.952,22.7502 12.012,22.8474 C12.066,22.9419 12.135,23.0229 12.219,23.085 C12.306,23.1525 12.405,23.1984 12.51,23.2308 C12.621,23.2632 12.735,23.2767 12.852,23.2767 C12.978,23.2767 13.098,23.2605 13.206,23.2308 C13.317,23.1984 13.41,23.1606 13.494,23.1201 C13.593,23.0742 13.68,23.0229 13.761,22.9608 L14.064,23.4792 C13.965,23.5575 13.848,23.625 13.722,23.6871 C13.611,23.7411 13.479,23.7897 13.32,23.8302 C13.167,23.8707 12.987,23.8923 12.795,23.8923 C12.531,23.8923 12.291,23.8518 12.084,23.7735 C11.877,23.6952 11.697,23.5845 11.55,23.4441 C11.403,23.3064 11.289,23.1444 11.214,22.9608 C11.142,22.7745 11.106,22.5801 11.106,22.3722 Z M13.314,22.0158 C13.314,21.9186 13.296,21.8322 13.263,21.7566 C13.233,21.681 13.182,21.6162 13.128,21.5649 C13.074,21.5136 13.005,21.4758 12.93,21.4515 C12.858,21.4272 12.777,21.411 12.69,21.411 C12.489,21.411 12.321,21.465 12.189,21.5703 C12.06,21.6783 11.97,21.8241 11.931,22.0158 L13.314,22.0158 Z" id="Shape"></path>
            <path d="M14.715,19.7883 L15.498,19.7883 L15.498,22.8123 C15.498,22.8906 15.501,22.9554 15.516,23.0094 C15.531,23.058 15.552,23.1012 15.582,23.1309 C15.606,23.1606 15.645,23.1795 15.681,23.193 C15.726,23.2038 15.768,23.2119 15.768,23.2119 L15.867,23.2119 L15.903,23.2092 L15.939,23.2038 L15.939,23.8356 C15.915,23.841 15.891,23.8437 15.891,23.8437 C15.819,23.8491 15.762,23.8545 15.693,23.8545 C15.585,23.8545 15.471,23.8437 15.357,23.8248 C15.24,23.8059 15.135,23.7654 15.042,23.7006 C14.946,23.6358 14.868,23.5413 14.808,23.4171 C14.751,23.2929 14.718,23.1282 14.718,22.9203 L14.718,19.7883 L14.715,19.7883 Z" id="Shape"></path>
            <path d="M16.476,19.7883 L17.259,19.7883 L17.259,22.8123 C17.259,22.8906 17.262,22.9554 17.277,23.0094 C17.289,23.058 17.313,23.1012 17.34,23.1309 C17.367,23.1606 17.403,23.1795 17.442,23.193 C17.478,23.2038 17.526,23.2119 17.577,23.2119 L17.61,23.2119 L17.658,23.2092 L17.691,23.2038 L17.691,23.8356 C17.67,23.841 17.649,23.8437 17.649,23.8437 C17.574,23.8491 17.52,23.8545 17.451,23.8545 C17.34,23.8545 17.229,23.8437 17.112,23.8248 C16.998,23.8059 16.896,23.7654 16.8,23.7006 C16.707,23.6358 16.629,23.5413 16.569,23.4171 C16.506,23.2929 16.479,23.1282 16.479,22.9203 L16.479,19.7883 L16.476,19.7883 Z" id="Shape"></path>
            <path d="M19.854,21.7998 C19.854,21.6054 19.881,21.4218 19.929,21.2463 C19.983,21.0708 20.052,20.9061 20.145,20.7549 C20.235,20.6064 20.352,20.466 20.481,20.3445 C20.613,20.223 20.757,20.1177 20.919,20.0313 C21.081,19.9422 21.255,19.8774 21.444,19.8288 C21.633,19.7775 21.831,19.7559 22.038,19.7559 C22.167,19.7559 22.293,19.764 22.401,19.7775 C22.515,19.7937 22.623,19.8126 22.722,19.8369 C22.815,19.8612 22.908,19.8909 22.989,19.9206 C23.067,19.953 23.142,19.9827 23.211,20.0151 C23.364,20.0907 23.493,20.1771 23.607,20.2743 L23.373,20.5632 C23.274,20.4822 23.151,20.4066 23.019,20.3445 C22.905,20.2878 22.767,20.2392 22.605,20.1933 C22.443,20.1447 22.257,20.1231 22.053,20.1231 C21.798,20.1231 21.564,20.1636 21.345,20.2527 C21.132,20.3364 20.946,20.4552 20.793,20.6064 C20.634,20.7549 20.517,20.9331 20.43,21.1356 C20.343,21.3408 20.301,21.5595 20.301,21.7944 C20.301,22.032 20.343,22.2588 20.43,22.4694 C20.517,22.68 20.634,22.8663 20.793,23.0202 C20.952,23.1768 21.138,23.301 21.354,23.3928 C21.57,23.4819 21.81,23.5305 22.065,23.5305 C22.173,23.5305 22.278,23.5251 22.377,23.5089 C22.479,23.4927 22.569,23.4738 22.656,23.4495 C22.743,23.4252 22.827,23.3955 22.902,23.3631 C22.971,23.3334 23.04,23.2983 23.1,23.2632 C23.241,23.1876 23.364,23.0985 23.478,22.9959 L23.727,23.2713 C23.601,23.3901 23.457,23.4927 23.292,23.5818 C23.22,23.6196 23.142,23.6601 23.055,23.6979 C22.968,23.733 22.875,23.7681 22.773,23.7951 C22.671,23.8275 22.56,23.8491 22.437,23.868 C22.32,23.8869 22.191,23.8923 22.065,23.8923 C21.849,23.8923 21.642,23.868 21.453,23.8221 C21.258,23.7708 21.081,23.7033 20.919,23.6115 C20.757,23.5224 20.61,23.4144 20.478,23.2848 C20.349,23.1579 20.235,23.0175 20.145,22.8609 C20.052,22.707 19.98,22.5369 19.932,22.3587 C19.881,22.1805 19.854,21.9942 19.854,21.7998 Z" id="Shape"></path>
            <path d="M24.3,22.3803 C24.3,22.1697 24.342,21.9753 24.429,21.7917 C24.516,21.6108 24.633,21.4515 24.783,21.3165 C24.93,21.1842 25.107,21.0816 25.302,21.006 C25.5,20.9304 25.719,20.8926 25.944,20.8926 C26.172,20.8926 26.385,20.9304 26.586,21.006 C26.784,21.0816 26.961,21.1869 27.105,21.3165 C27.255,21.4515 27.372,21.6108 27.459,21.7917 C27.546,21.9753 27.588,22.1697 27.588,22.3803 C27.588,22.5963 27.546,22.7961 27.459,22.9824 C27.372,23.166 27.255,23.3253 27.105,23.4603 C26.961,23.598 26.781,23.7006 26.586,23.7789 C26.385,23.8545 26.172,23.8923 25.944,23.8923 C25.719,23.8923 25.503,23.8545 25.302,23.7789 C25.107,23.7006 24.93,23.5953 24.783,23.4603 C24.633,23.3253 24.516,23.1687 24.429,22.9824 C24.345,22.7961 24.3,22.5963 24.3,22.3803 Z M24.732,22.3803 C24.732,22.5477 24.765,22.7016 24.828,22.8393 C24.894,22.9824 24.978,23.1066 25.086,23.2092 C25.197,23.3145 25.329,23.3955 25.473,23.4549 C25.62,23.5143 25.779,23.544 25.944,23.544 C26.115,23.544 26.271,23.5143 26.418,23.4549 C26.565,23.3955 26.694,23.3145 26.805,23.2092 C26.916,23.1066 27,22.9824 27.066,22.8393 C27.132,22.7016 27.162,22.545 27.162,22.3803 C27.162,22.2183 27.132,22.0671 27.066,21.9267 C27,21.7917 26.916,21.6729 26.805,21.5703 C26.697,21.4704 26.565,21.3894 26.418,21.3327 C26.271,21.276 26.115,21.249 25.944,21.249 C25.776,21.249 25.62,21.276 25.473,21.3327 C25.329,21.3921 25.197,21.4704 25.086,21.5703 C24.978,21.6729 24.894,21.7917 24.828,21.9267 C24.765,22.0671 24.732,22.2183 24.732,22.3803 Z" id="Shape"></path>
            <path d="M28.383,20.9628 L28.797,20.9628 L28.797,21.3894 C28.797,21.4191 28.797,21.4515 28.797,21.4785 C28.794,21.5055 28.794,21.5298 28.788,21.5514 C28.788,21.5757 28.785,21.5973 28.785,21.6162 L28.797,21.6162 C28.83,21.5217 28.887,21.4299 28.965,21.3408 C29.046,21.2517 29.136,21.1761 29.235,21.1113 C29.337,21.0465 29.448,20.9925 29.568,20.952 C29.682,20.9142 29.805,20.8926 29.928,20.8926 C30.216,20.8926 30.438,20.9547 30.591,21.0735 C30.744,21.1923 30.846,21.3732 30.891,21.6108 L30.903,21.6108 C30.945,21.5136 31.005,21.4218 31.08,21.3354 C31.155,21.249 31.242,21.1734 31.344,21.1086 C31.443,21.0465 31.551,20.9925 31.674,20.952 C31.791,20.9142 31.917,20.8926 32.046,20.8926 C32.235,20.8926 32.397,20.9196 32.529,20.9682 C32.661,21.0168 32.766,21.0897 32.847,21.1842 C32.928,21.2787 32.991,21.3948 33.027,21.5325 C33.06,21.6702 33.084,21.8268 33.084,22.0023 L33.084,23.8221 L32.664,23.8221 L32.664,22.0995 C32.664,21.9807 32.652,21.8727 32.637,21.7674 C32.622,21.6675 32.589,21.5784 32.538,21.4974 C32.49,21.4191 32.427,21.3597 32.334,21.3138 C32.25,21.2679 32.133,21.2463 31.992,21.2463 C31.872,21.2463 31.758,21.2679 31.65,21.3111 C31.545,21.357 31.449,21.4164 31.362,21.492 C31.275,21.5649 31.203,21.654 31.14,21.7485 C31.08,21.8457 31.032,21.9483 31.002,22.0536 C30.981,22.1184 30.966,22.1805 30.957,22.2507 C30.948,22.3182 30.945,22.3911 30.945,22.4694 L30.945,23.8221 L30.528,23.8221 L30.528,22.0995 C30.528,21.9888 30.519,21.8835 30.507,21.7809 C30.495,21.6783 30.462,21.5892 30.42,21.5082 C30.378,21.4299 30.309,21.3651 30.222,21.3138 C30.135,21.2679 30.015,21.2436 29.871,21.2436 C29.745,21.2436 29.625,21.2679 29.517,21.3138 C29.406,21.3624 29.307,21.4245 29.22,21.5001 C29.133,21.5784 29.058,21.6675 28.995,21.7701 C28.932,21.8727 28.884,21.9753 28.851,22.086 C28.836,22.1454 28.824,22.2075 28.818,22.2723 C28.812,22.3398 28.806,22.4046 28.806,22.4694 L28.806,23.8221 L28.389,23.8221 L28.389,20.9628 L28.383,20.9628 Z" id="Shape"></path>
            <path d="M34.059,20.9628 L34.458,20.9628 L34.458,21.2409 C34.458,21.2733 34.458,21.3003 34.458,21.33 C34.458,21.3543 34.458,21.3786 34.455,21.4002 C34.449,21.4191 34.449,21.4407 34.449,21.4623 L34.458,21.4623 C34.515,21.357 34.593,21.2625 34.689,21.1788 C34.731,21.1464 34.779,21.1086 34.83,21.0735 C34.887,21.0411 34.95,21.0114 35.019,20.9844 C35.085,20.9574 35.166,20.9358 35.253,20.9196 C35.337,20.9034 35.43,20.8926 35.532,20.8926 C35.742,20.8926 35.931,20.9304 36.102,21.0033 C36.27,21.0762 36.411,21.1788 36.531,21.3111 C36.648,21.4434 36.738,21.6027 36.798,21.7863 C36.861,21.9699 36.891,22.1751 36.891,22.3965 C36.891,22.6206 36.855,22.8285 36.789,23.0094 C36.717,23.193 36.621,23.3496 36.495,23.4792 C36.372,23.6115 36.228,23.7114 36.054,23.7843 C35.883,23.8572 35.7,23.8896 35.499,23.8896 C35.403,23.8896 35.316,23.8842 35.238,23.868 C35.16,23.8518 35.088,23.8329 35.025,23.8059 C34.956,23.7816 34.899,23.7519 34.842,23.7195 C34.791,23.6871 34.749,23.652 34.704,23.6169 C34.608,23.5359 34.53,23.4468 34.473,23.3415 L34.461,23.3415 C34.464,23.3604 34.464,23.3874 34.467,23.4117 C34.467,23.4333 34.467,23.4603 34.47,23.4927 C34.47,23.5197 34.47,23.5548 34.47,23.5953 L34.47,24.9615 L34.053,24.9615 L34.053,20.9628 L34.059,20.9628 Z M34.464,22.4019 C34.464,22.5477 34.485,22.6854 34.527,22.8258 C34.575,22.9608 34.638,23.085 34.722,23.193 C34.806,23.301 34.908,23.3901 35.034,23.4549 C35.151,23.5197 35.295,23.5521 35.457,23.5521 C35.595,23.5521 35.724,23.5251 35.847,23.4738 C35.967,23.4198 36.078,23.3469 36.168,23.2497 C36.261,23.1498 36.33,23.0283 36.381,22.8852 C36.438,22.7394 36.462,22.5774 36.462,22.3965 C36.462,22.221 36.438,22.0644 36.387,21.9213 C36.339,21.7809 36.273,21.6594 36.186,21.5595 C36.099,21.4569 35.994,21.3813 35.874,21.33 C35.751,21.2733 35.619,21.2463 35.475,21.2463 C35.34,21.2463 35.217,21.2679 35.094,21.3111 C34.977,21.357 34.866,21.4272 34.776,21.519 C34.683,21.6135 34.605,21.7323 34.551,21.8781 C34.491,22.0239 34.464,22.1994 34.464,22.4019 Z" id="Shape"></path>
            <path d="M37.452,23.0418 C37.452,22.8825 37.485,22.7448 37.557,22.6341 C37.626,22.5234 37.716,22.4289 37.824,22.3587 C37.938,22.2831 38.061,22.2264 38.202,22.1859 C38.343,22.1454 38.484,22.1157 38.622,22.0968 C38.766,22.0752 38.898,22.0644 39.03,22.059 C39.159,22.0563 39.27,22.0536 39.357,22.0536 L39.531,22.0536 L39.531,21.978 C39.531,21.8403 39.51,21.7242 39.471,21.6324 C39.438,21.5379 39.381,21.4623 39.315,21.4002 C39.243,21.3435 39.162,21.303 39.066,21.276 C38.973,21.249 38.871,21.2382 38.757,21.2382 C38.628,21.2382 38.511,21.2544 38.403,21.2841 C38.295,21.3111 38.205,21.3435 38.127,21.3786 C38.034,21.4164 37.95,21.465 37.878,21.5136 L37.68,21.2166 C37.764,21.1545 37.86,21.1059 37.971,21.0546 C38.067,21.0141 38.184,20.979 38.319,20.9439 C38.454,20.9088 38.607,20.8899 38.787,20.8899 C39.162,20.8899 39.45,20.9844 39.654,21.1707 C39.849,21.357 39.948,21.6324 39.948,21.9942 L39.948,23.8221 L39.549,23.8221 L39.549,23.5062 C39.549,23.4738 39.549,23.4387 39.549,23.4117 C39.549,23.3793 39.555,23.355 39.555,23.3361 C39.555,23.3118 39.558,23.2902 39.561,23.2686 L39.549,23.2686 C39.495,23.3874 39.42,23.49 39.321,23.5791 C39.282,23.6169 39.234,23.6574 39.183,23.6952 C39.129,23.7303 39.069,23.7654 38.997,23.7924 C38.928,23.8248 38.853,23.8464 38.775,23.8653 C38.691,23.8842 38.604,23.8896 38.508,23.8896 C38.379,23.8896 38.247,23.8761 38.124,23.841 C37.998,23.8032 37.884,23.7519 37.782,23.6817 C37.68,23.6142 37.602,23.5224 37.542,23.4171 C37.482,23.3118 37.452,23.1849 37.452,23.0418 Z M37.881,23.0202 C37.881,23.0877 37.896,23.1525 37.929,23.2173 C37.956,23.2821 38.001,23.3415 38.055,23.3928 C38.115,23.4414 38.184,23.4846 38.271,23.517 C38.358,23.5494 38.46,23.5629 38.58,23.5629 C38.727,23.5629 38.856,23.5305 38.976,23.4657 C39.096,23.4036 39.198,23.3199 39.279,23.2173 C39.363,23.1147 39.426,23.0013 39.468,22.8744 C39.507,22.7502 39.531,22.626 39.531,22.5018 L39.531,22.3749 L39.354,22.3749 C39.27,22.3749 39.177,22.3776 39.072,22.383 C38.964,22.383 38.865,22.3911 38.751,22.4046 C38.646,22.4208 38.538,22.437 38.433,22.464 C38.325,22.491 38.235,22.5288 38.154,22.5774 C38.07,22.626 38.004,22.6881 37.959,22.7583 C37.908,22.8258 37.881,22.9149 37.881,23.0202 Z" id="Shape"></path>
            <path d="M40.923,20.9628 L41.337,20.9628 L41.337,21.3894 C41.337,21.4191 41.337,21.4515 41.334,21.4785 C41.334,21.5055 41.334,21.5298 41.334,21.5514 C41.331,21.5757 41.328,21.5973 41.328,21.6162 L41.34,21.6162 C41.367,21.5541 41.415,21.4785 41.478,21.3948 C41.541,21.3111 41.622,21.2328 41.727,21.1599 C41.829,21.087 41.952,21.0222 42.093,20.9709 C42.234,20.9223 42.399,20.8953 42.585,20.8953 C42.774,20.8953 42.936,20.9223 43.071,20.9709 C43.2,21.0195 43.314,21.0924 43.395,21.1869 C43.476,21.2814 43.536,21.3975 43.569,21.5352 C43.605,21.6729 43.626,21.8295 43.626,22.005 L43.626,23.8248 L43.203,23.8248 L43.203,22.1076 C43.203,21.9969 43.2,21.8862 43.185,21.7836 C43.173,21.681 43.143,21.5919 43.095,21.5136 C43.047,21.4353 42.978,21.3732 42.888,21.3273 C42.801,21.2814 42.678,21.2571 42.528,21.2571 C42.393,21.2571 42.267,21.276 42.144,21.3165 C42.027,21.357 41.916,21.411 41.817,21.4839 C41.715,21.5568 41.631,21.6405 41.556,21.7377 C41.484,21.8403 41.433,21.9483 41.394,22.0644 C41.376,22.1238 41.364,22.1859 41.355,22.2507 C41.349,22.3155 41.349,22.383 41.349,22.4505 L41.349,23.8221 L40.926,23.8221 L40.926,20.9628 L40.923,20.9628 Z" id="Shape"></path>
            <path d="M44.292,24.5403 C44.328,24.5646 44.367,24.5889 44.406,24.6105 C44.436,24.6267 44.478,24.6402 44.52,24.6537 C44.565,24.6672 44.61,24.6726 44.661,24.6726 C44.73,24.6726 44.79,24.6618 44.85,24.6375 C44.91,24.6132 44.961,24.5781 45.012,24.5376 C45.06,24.4971 45.102,24.4458 45.144,24.3891 C45.183,24.3297 45.219,24.2703 45.252,24.2055 L45.444,23.8032 L44.142,20.9628 L44.607,20.9628 L45.525,23.0499 C45.54,23.0877 45.552,23.1228 45.57,23.1579 C45.582,23.193 45.594,23.2254 45.606,23.2551 C45.618,23.2875 45.627,23.3199 45.636,23.3523 L45.651,23.3523 L45.681,23.2551 C45.693,23.2254 45.702,23.193 45.714,23.1579 C45.726,23.1228 45.744,23.085 45.759,23.0499 L46.659,20.9628 L47.115,20.9628 L45.582,24.4242 C45.498,24.6051 45.381,24.7509 45.228,24.8589 C45.075,24.9642 44.892,25.0209 44.682,25.0209 C44.604,25.0209 44.529,25.0128 44.46,24.9939 C44.394,24.9777 44.334,24.9561 44.289,24.9372 C44.232,24.9129 44.181,24.8832 44.136,24.8508 L44.292,24.5403 Z" id="Shape"></path>
            <ellipse id="Oval" cx="104.79" cy="11.34" rx="7.167" ry="6.5799"></ellipse>
            <path d="M7.818,17.4528 C5.421,17.4528 3.633,16.9749 2.448,16.0137 C1.26,15.0552 0.636,13.824 0.57,12.3174 L2.742,12.3174 C2.856,13.4487 3.381,14.2857 4.32,14.8284 C5.262,15.3684 6.393,15.6411 7.725,15.6411 C8.985,15.6411 9.996,15.4089 10.767,14.9472 C11.535,14.4855 11.922,13.8564 11.922,13.0626 C11.922,12.231 11.52,11.6208 10.728,11.2428 C9.93,10.8648 8.562,10.4895 6.618,10.1223 C4.674,9.7524 3.282,9.2394 2.436,8.5833 C1.59,7.9299 1.167,7.0578 1.167,5.9643 C1.167,4.7385 1.719,3.7287 2.817,2.943 C3.918,2.1573 5.382,1.7658 7.203,1.7658 C9.123,1.7658 10.665,2.1627 11.841,2.9538 C13.017,3.7503 13.638,4.8708 13.707,6.318 L11.517,6.318 C11.292,4.482 9.885,3.5613 7.299,3.5613 C6.048,3.5613 5.073,3.7746 4.389,4.1931 C3.699,4.617 3.357,5.1732 3.357,5.8698 C3.357,6.5043 3.633,6.9795 4.185,7.2954 C4.74,7.614 5.769,7.9218 7.278,8.2161 C8.79,8.5158 9.993,8.8074 10.881,9.099 C11.769,9.3879 12.531,9.8388 13.164,10.4463 C13.794,11.0592 14.112,11.8773 14.112,12.906 C14.112,14.2074 13.53,15.2928 12.369,16.1541 C11.202,17.0235 9.687,17.4528 7.818,17.4528 Z" id="Shape"></path>
            <path d="M22.413,17.4528 C20.61,17.4528 19.158,16.9479 18.06,15.9354 C16.962,14.9256 16.413,13.5162 16.413,11.7072 C16.413,9.9144 16.941,8.5077 18.009,7.4898 C19.068,6.4746 20.454,5.9643 22.173,5.9643 C23.928,5.9643 25.326,6.4665 26.373,7.4655 C27.42,8.4645 27.945,9.8793 27.945,11.7072 L27.945,12.1743 L18.684,12.1743 C18.777,13.446 19.17,14.3856 19.863,15.0012 C20.553,15.6141 21.408,15.9246 22.416,15.9246 C23.184,15.9246 23.874,15.7491 24.486,15.4008 C25.101,15.0552 25.422,14.5557 25.455,13.9185 L27.714,13.9185 C27.543,15.0498 26.97,15.9192 25.995,16.5375 C25.011,17.145 23.817,17.4528 22.413,17.4528 Z M25.635,10.6434 C25.458,9.5877 25.059,8.7993 24.444,8.2728 C23.823,7.749 23.064,7.4844 22.173,7.4844 C21.3,7.4844 20.55,7.7463 19.923,8.2647 C19.299,8.7885 18.9,9.5796 18.732,10.6407 L25.635,10.6407 L25.635,10.6434 Z" id="Shape"></path>
            <path d="M35.607,17.4528 C33.861,17.4528 32.469,16.9506 31.422,15.9489 C30.372,14.9445 29.85,13.5297 29.85,11.7099 C29.85,9.882 30.372,8.4672 31.422,7.4682 C32.469,6.4692 33.861,5.967 35.607,5.967 C36.954,5.967 38.076,6.2721 38.973,6.8796 C39.876,7.4871 40.407,8.3619 40.563,9.5067 L38.319,9.5067 C38.289,8.8506 38.016,8.3511 37.488,8.0055 C36.969,7.6626 36.339,7.4871 35.604,7.4871 C34.56,7.4871 33.717,7.8408 33.069,8.5482 C32.418,9.2583 32.091,10.3113 32.091,11.7099 C32.091,13.1058 32.415,14.1561 33.069,14.8635 C33.717,15.5709 34.56,15.9246 35.604,15.9246 C36.339,15.9246 36.966,15.7518 37.488,15.4062 C38.013,15.0606 38.286,14.5665 38.319,13.9185 L40.563,13.9185 C40.407,15.0606 39.873,15.9381 38.973,16.5456 C38.073,17.1504 36.951,17.4528 35.607,17.4528 Z" id="Shape"></path>
            <path d="M50.517,15.7977 C49.425,16.8993 48.204,17.4528 46.845,17.4528 C44.07,17.4528 42.684,16.1028 42.684,13.3974 L42.684,6.2181 L44.874,6.2181 L44.874,13.3137 C44.874,14.2101 45.051,14.8554 45.408,15.2523 C45.762,15.6465 46.347,15.8409 47.169,15.8409 C48.39,15.8409 49.506,15.2523 50.517,14.0805 L50.517,6.2154 L52.698,6.2154 L52.698,17.1936 L50.517,17.1936 L50.517,15.7977 Z" id="Shape"></path>
            <path d="M62.55,7.9947 C62.238,7.911 61.797,7.8705 61.215,7.8705 C60.105,7.8705 59.148,8.3916 58.353,9.4338 L58.353,17.1936 L56.169,17.1936 L56.169,6.2154 L58.353,6.2154 L58.353,7.7436 C59.274,6.5556 60.339,5.9616 61.554,5.9616 C61.866,5.9616 62.196,5.9886 62.55,6.0453 L62.55,7.9947 Z" id="Shape"></path>
            <path d="M69.534,17.4528 C67.725,17.4528 66.273,16.9479 65.175,15.9354 C64.08,14.9256 63.534,13.5162 63.534,11.7072 C63.534,9.9144 64.062,8.5077 65.124,7.4898 C66.186,6.4746 67.578,5.9643 69.288,5.9643 C71.043,5.9643 72.444,6.4665 73.491,7.4655 C74.535,8.4645 75.06,9.8793 75.06,11.7072 L75.06,12.1743 L65.799,12.1743 C65.889,13.446 66.285,14.3856 66.978,15.0012 C67.671,15.6141 68.523,15.9246 69.534,15.9246 C70.299,15.9246 70.986,15.7491 71.604,15.4008 C72.216,15.0552 72.54,14.5557 72.573,13.9185 L74.832,13.9185 C74.661,15.0498 74.088,15.9192 73.11,16.5375 C72.132,17.145 70.941,17.4528 69.534,17.4528 Z M72.756,10.6434 C72.579,9.5877 72.18,8.7993 71.559,8.2728 C70.944,7.749 70.185,7.4844 69.288,7.4844 C68.418,7.4844 67.668,7.7463 67.041,8.2647 C66.417,8.7885 66.018,9.5796 65.85,10.6407 L72.756,10.6407 L72.756,10.6434 Z" id="Shape"></path>
            <polygon id="Shape" points="95.322 1.3068 92.49 11.6127 89.298 1.3068 85.416 1.3068 82.227 11.6127 79.395 1.3068 75.39 1.3068 80.526 17.9118 83.862 17.9118 87.363 6.6312 90.855 17.9118 94.185 17.9118 99.336 1.3068"></polygon>
            <path d="M120.957,5.3433 C120.558,5.2812 120.18,5.2488 119.832,5.2488 C118.959,5.2488 118.152,5.4972 117.414,5.9832 L117.414,5.4999 L113.658,5.4999 L113.658,17.9145 L117.414,17.9145 L117.414,9.6714 C118.026,8.9451 118.704,8.5887 119.493,8.5887 C120.117,8.5887 120.447,8.6427 120.606,8.6859 L121.605,8.9559 L121.605,5.4459 L120.957,5.3433 Z" id="Shape"></path>
            <polygon id="Shape" points="129.885 10.4004 135.474 5.4972 130.44 5.4972 126.807 8.8776 126.807 1.3068 123.054 1.3068 123.054 17.9118 126.807 17.9118 126.807 13.1328 127.257 12.7332 130.968 17.9118 135.48 17.9118"></polygon>
            <path d="M145.857,11.1591 C145.053,10.6785 143.886,10.2816 142.299,9.9414 C140.382,9.5256 139.854,9.3177 139.716,9.2475 C139.641,9.207 139.56,9.1665 139.56,8.9451 C139.56,8.7642 139.614,8.6265 139.887,8.4861 C140.25,8.2971 140.736,8.2026 141.33,8.2026 C143.091,8.2026 143.139,8.8236 143.16,9.0882 L143.208,9.7551 L146.922,9.7551 L146.898,9.0153 C146.841,7.2981 145.803,5.2461 141.183,5.2461 C139.617,5.2461 138.333,5.5998 137.367,6.2937 C136.341,7.0335 135.819,7.9839 135.819,9.1233 C135.819,10.3815 136.278,11.2941 137.178,11.8341 C137.928,12.2823 139.044,12.6684 140.595,13.0167 C142.326,13.4028 143.031,13.635 143.31,13.7565 C143.478,13.8321 143.565,13.9158 143.565,14.1615 C143.565,14.3478 143.517,14.5962 143.16,14.85 C142.824,15.0822 142.29,15.2037 141.567,15.2037 C139.302,15.2037 139.29,14.3262 139.287,13.905 L139.281,13.1949 L135.489,13.1949 L135.54,13.9563 C135.666,15.876 136.815,18.1683 141.588,18.1683 C143.274,18.1683 144.648,17.7849 145.677,17.0208 C146.757,16.2243 147.309,15.1956 147.309,13.9752 C147.3,12.6711 146.817,11.7261 145.857,11.1591 Z" id="Shape"></path>
            <path d="M105.123,12.3336 C97.533,14.8689 95.388,18.7839 100.368,21.0438 C105.369,23.3199 115.638,23.1012 123.228,20.5686 C124.476,20.1528 125.577,19.6992 126.522,19.2267 L126.555,19.3077 C125.343,20.061 123.774,20.7819 121.875,21.4164 C114.069,24.0219 103.515,24.2514 98.376,21.9105 C93.261,19.5858 95.466,15.5601 103.269,12.9519" id="Shape"></path>
            <path d="M147.432,5.5809 C147.432,4.5198 148.341,3.7368 149.412,3.7368 C150.474,3.7368 151.383,4.5198 151.383,5.5809 C151.383,6.6528 150.474,7.4358 149.412,7.4358 C148.341,7.4358 147.432,6.6528 147.432,5.5809 Z M149.412,7.128 C150.294,7.128 150.99,6.4719 150.99,5.5809 C150.99,4.7034 150.294,4.0446 149.412,4.0446 C148.518,4.0446 147.825,4.7061 147.825,5.5809 C147.825,6.4719 148.521,7.128 149.412,7.128 Z M149.001,6.6528 L148.662,6.6528 L148.662,4.5198 L149.517,4.5198 C150.051,4.5198 150.312,4.7061 150.312,5.1273 C150.312,5.508 150.06,5.6754 149.73,5.7159 L150.369,6.6555 L149.988,6.6555 L149.394,5.7294 L149.001,5.7294 L149.001,6.6528 L149.001,6.6528 Z M149.409,5.454 C149.697,5.454 149.955,5.4351 149.955,5.1057 C149.955,4.8411 149.703,4.7925 149.466,4.7925 L149.001,4.7925 L149.001,5.454 L149.409,5.454 Z" id="Shape"></path>
        </g>
    </g>
</svg>