<?xml version="1.0" encoding="UTF-8"?>
<svg width="122px" height="20px" viewBox="0 0 122 20" version="1.1" xmlns="http://www.w3.org/2000/svg" xmlns:xlink="http://www.w3.org/1999/xlink">
    <!-- Generator: Sketch 46.2 (44496) - http://www.bohemiancoding.com/sketch -->
    <title>SECUREWORKS</title>
    <desc>Created with Sketch.</desc>
    <defs></defs>
    <g id="Page-1" stroke="none" stroke-width="1" fill="none" fill-rule="evenodd">
        <g id="SECUREWORKS" fill-rule="nonzero" fill="#FFFFFF">
            <path d="M2.892,17.23816 L1.4904,17.23816 L1.0944,18.25768 L0.7344,18.25768 L2.0112,15.05656 L2.3784,15.05656 L3.6576,18.25768 L3.2952,18.25768 L2.892,17.23816 Z M2.1912,15.39136 C2.1744,15.4432 2.16,15.49288 2.1432,15.54256 C2.1312,15.58576 2.1144,15.63112 2.1,15.67864 C2.0832,15.72616 2.0688,15.7672 2.0544,15.80392 L1.5912,16.96384 L2.7864,16.96384 L2.3328,15.80392 C2.316,15.7672 2.3016,15.72616 2.2848,15.67864 C2.2704,15.63112 2.256,15.58576 2.2416,15.54256 C2.2248,15.49504 2.2128,15.4432 2.2008,15.39136 L2.1912,15.39136 Z" id="Shape"></path>
            <path d="M5.4984,15.03064 L6.6984,15.03064 C6.972,15.03064 7.2168,15.0652 7.4376,15.13648 C7.6584,15.20776 7.8456,15.3136 7.9992,15.44968 C8.1576,15.58792 8.2776,15.7564 8.364,15.95512 C8.4504,16.156 8.4936,16.3828 8.4936,16.63768 C8.4936,16.89256 8.4504,17.11936 8.364,17.32024 C8.2776,17.52328 8.1576,17.69176 7.9992,17.83 C7.8456,17.96824 7.6584,18.07408 7.4376,18.14752 C7.2168,18.22096 6.9696,18.25768 6.6984,18.25768 L5.4984,18.25768 L5.4984,15.03064 Z M6.6672,17.7544 C6.8448,17.7544 7.0056,17.73064 7.1496,17.68096 C7.2936,17.63344 7.4184,17.56432 7.5192,17.46928 C7.62,17.3764 7.6992,17.25976 7.752,17.12152 C7.8096,16.98112 7.8336,16.82128 7.8336,16.63984 C7.8336,16.46056 7.8096,16.30072 7.752,16.16464 C7.6944,16.0264 7.6152,15.90976 7.5144,15.81472 C7.4112,15.724 7.2888,15.65272 7.1472,15.60304 C7.0056,15.55552 6.8424,15.53176 6.6696,15.53176 L6.144,15.53176 L6.144,17.7544 L6.6672,17.7544 L6.6672,17.7544 Z" id="Shape"></path>
            <path d="M8.8848,17.09776 C8.8848,16.92064 8.9136,16.75648 8.9808,16.60744 C9.0408,16.4584 9.1296,16.33096 9.2472,16.22296 C9.3576,16.11496 9.4944,16.03072 9.6504,15.9724 C9.804,15.91408 9.9792,15.88384 10.164,15.88384 C10.3488,15.88384 10.5072,15.91408 10.6464,15.97024 C10.788,16.0264 10.9056,16.10416 10.9992,16.20568 C11.0928,16.30504 11.1648,16.41952 11.2104,16.55344 C11.2584,16.68736 11.2824,16.83208 11.2824,16.98544 C11.2824,17.00272 11.2824,17.02432 11.28,17.04808 C11.28,17.074 11.2776,17.09776 11.2776,17.12368 C11.2752,17.1496 11.2728,17.17984 11.268,17.21008 L9.528,17.21008 C9.5352,17.30944 9.5616,17.40016 9.6096,17.47792 C9.6528,17.55352 9.708,17.61832 9.7752,17.668 C9.8448,17.722 9.924,17.75872 10.008,17.78464 C10.0968,17.81056 10.188,17.82136 10.2816,17.82136 C10.3824,17.82136 10.4784,17.8084 10.5648,17.78464 C10.6536,17.75872 10.728,17.72848 10.7952,17.69608 C10.8744,17.65936 10.944,17.61832 11.0088,17.56864 L11.2512,17.98336 C11.172,18.046 11.0784,18.1 10.9776,18.14968 C10.8888,18.19288 10.7832,18.23176 10.656,18.26416 C10.5336,18.29656 10.3896,18.31384 10.236,18.31384 C10.0248,18.31384 9.8328,18.28144 9.6672,18.2188 C9.5016,18.15616 9.3576,18.0676 9.24,17.95528 C9.1224,17.84512 9.0312,17.71552 8.9712,17.56864 C8.9136,17.4196 8.8848,17.26408 8.8848,17.09776 Z M10.6512,16.81264 C10.6512,16.73488 10.6368,16.66576 10.6104,16.60528 C10.5864,16.5448 10.5456,16.49296 10.5024,16.45192 C10.4592,16.41088 10.404,16.38064 10.344,16.3612 C10.2864,16.34176 10.2216,16.3288 10.152,16.3288 C9.9912,16.3288 9.8568,16.372 9.7512,16.45624 C9.648,16.54264 9.576,16.65928 9.5448,16.81264 L10.6512,16.81264 Z" id="Shape"></path>
            <path d="M11.772,15.03064 L12.3984,15.03064 L12.3984,17.44984 C12.3984,17.51248 12.4008,17.56432 12.4128,17.60752 C12.4248,17.6464 12.4416,17.68096 12.4656,17.70472 C12.4848,17.72848 12.516,17.7436 12.5448,17.7544 C12.5808,17.76304 12.6144,17.76952 12.6144,17.76952 L12.6936,17.76952 L12.7224,17.76736 L12.7512,17.76304 L12.7512,18.26848 C12.732,18.2728 12.7128,18.27496 12.7128,18.27496 C12.6552,18.27928 12.6096,18.2836 12.5544,18.2836 C12.468,18.2836 12.3768,18.27496 12.2856,18.25984 C12.192,18.24472 12.108,18.21232 12.0336,18.16048 C11.9568,18.10864 11.8944,18.03304 11.8464,17.93368 C11.8008,17.83432 11.7744,17.70256 11.7744,17.53624 L11.7744,15.03064 L11.772,15.03064 Z" id="Shape"></path>
            <path d="M13.1808,15.03064 L13.8072,15.03064 L13.8072,17.44984 C13.8072,17.51248 13.8096,17.56432 13.8216,17.60752 C13.8312,17.6464 13.8504,17.68096 13.872,17.70472 C13.8936,17.72848 13.9224,17.7436 13.9536,17.7544 C13.9824,17.76304 14.0208,17.76952 14.0616,17.76952 L14.088,17.76952 L14.1264,17.76736 L14.1528,17.76304 L14.1528,18.26848 C14.136,18.2728 14.1192,18.27496 14.1192,18.27496 C14.0592,18.27928 14.016,18.2836 13.9608,18.2836 C13.872,18.2836 13.7832,18.27496 13.6896,18.25984 C13.5984,18.24472 13.5168,18.21232 13.44,18.16048 C13.3656,18.10864 13.3032,18.03304 13.2552,17.93368 C13.2048,17.83432 13.1832,17.70256 13.1832,17.53624 L13.1832,15.03064 L13.1808,15.03064 Z" id="Shape"></path>
            <path d="M15.8832,16.63984 C15.8832,16.48432 15.9048,16.33744 15.9432,16.19704 C15.9864,16.05664 16.0416,15.92488 16.116,15.80392 C16.188,15.68512 16.2816,15.5728 16.3848,15.4756 C16.4904,15.3784 16.6056,15.29416 16.7352,15.22504 C16.8648,15.15376 17.004,15.10192 17.1552,15.06304 C17.3064,15.022 17.4648,15.00472 17.6304,15.00472 C17.7336,15.00472 17.8344,15.0112 17.9208,15.022 C18.012,15.03496 18.0984,15.05008 18.1776,15.06952 C18.252,15.08896 18.3264,15.11272 18.3912,15.13648 C18.4536,15.1624 18.5136,15.18616 18.5688,15.21208 C18.6912,15.27256 18.7944,15.34168 18.8856,15.41944 L18.6984,15.65056 C18.6192,15.58576 18.5208,15.52528 18.4152,15.4756 C18.324,15.43024 18.2136,15.39136 18.084,15.35464 C17.9544,15.31576 17.8056,15.29848 17.6424,15.29848 C17.4384,15.29848 17.2512,15.33088 17.076,15.40216 C16.9056,15.46912 16.7568,15.56416 16.6344,15.68512 C16.5072,15.80392 16.4136,15.94648 16.344,16.10848 C16.2744,16.27264 16.2408,16.4476 16.2408,16.63552 C16.2408,16.8256 16.2744,17.00704 16.344,17.17552 C16.4136,17.344 16.5072,17.49304 16.6344,17.61616 C16.7616,17.74144 16.9104,17.8408 17.0832,17.91424 C17.256,17.98552 17.448,18.0244 17.652,18.0244 C17.7384,18.0244 17.8224,18.02008 17.9016,18.00712 C17.9832,17.99416 18.0552,17.97904 18.1248,17.9596 C18.1944,17.94016 18.2616,17.9164 18.3216,17.89048 C18.3768,17.86672 18.432,17.83864 18.48,17.81056 C18.5928,17.75008 18.6912,17.6788 18.7824,17.59672 L18.9816,17.81704 C18.8808,17.91208 18.7656,17.99416 18.6336,18.06544 C18.576,18.09568 18.5136,18.12808 18.444,18.15832 C18.3744,18.1864 18.3,18.21448 18.2184,18.23608 C18.1368,18.262 18.048,18.27928 17.9496,18.2944 C17.856,18.30952 17.7528,18.31384 17.652,18.31384 C17.4792,18.31384 17.3136,18.2944 17.1624,18.25768 C17.0064,18.21664 16.8648,18.16264 16.7352,18.0892 C16.6056,18.01792 16.488,17.93152 16.3824,17.82784 C16.2792,17.72632 16.188,17.614 16.116,17.48872 C16.0416,17.3656 15.984,17.22952 15.9456,17.08696 C15.9048,16.9444 15.8832,16.79536 15.8832,16.63984 Z" id="Shape"></path>
            <path d="M19.44,17.10424 C19.44,16.93576 19.4736,16.78024 19.5432,16.63336 C19.6128,16.48864 19.7064,16.3612 19.8264,16.2532 C19.944,16.14736 20.0856,16.06528 20.2416,16.0048 C20.4,15.94432 20.5752,15.91408 20.7552,15.91408 C20.9376,15.91408 21.108,15.94432 21.2688,16.0048 C21.4272,16.06528 21.5688,16.14952 21.684,16.2532 C21.804,16.3612 21.8976,16.48864 21.9672,16.63336 C22.0368,16.78024 22.0704,16.93576 22.0704,17.10424 C22.0704,17.27704 22.0368,17.43688 21.9672,17.58592 C21.8976,17.7328 21.804,17.86024 21.684,17.96824 C21.5688,18.0784 21.4248,18.16048 21.2688,18.22312 C21.108,18.2836 20.9376,18.31384 20.7552,18.31384 C20.5752,18.31384 20.4024,18.2836 20.2416,18.22312 C20.0856,18.16048 19.944,18.07624 19.8264,17.96824 C19.7064,17.86024 19.6128,17.73496 19.5432,17.58592 C19.476,17.43688 19.44,17.27704 19.44,17.10424 Z M19.7856,17.10424 C19.7856,17.23816 19.812,17.36128 19.8624,17.47144 C19.9152,17.58592 19.9824,17.68528 20.0688,17.76736 C20.1576,17.8516 20.2632,17.9164 20.3784,17.96392 C20.496,18.01144 20.6232,18.0352 20.7552,18.0352 C20.892,18.0352 21.0168,18.01144 21.1344,17.96392 C21.252,17.9164 21.3552,17.8516 21.444,17.76736 C21.5328,17.68528 21.6,17.58592 21.6528,17.47144 C21.7056,17.36128 21.7296,17.236 21.7296,17.10424 C21.7296,16.97464 21.7056,16.85368 21.6528,16.74136 C21.6,16.63336 21.5328,16.53832 21.444,16.45624 C21.3576,16.37632 21.252,16.31152 21.1344,16.26616 C21.0168,16.2208 20.892,16.1992 20.7552,16.1992 C20.6208,16.1992 20.496,16.2208 20.3784,16.26616 C20.2632,16.31368 20.1576,16.37632 20.0688,16.45624 C19.9824,16.53832 19.9152,16.63336 19.8624,16.74136 C19.812,16.85368 19.7856,16.97464 19.7856,17.10424 Z" id="Shape"></path>
            <path d="M22.7064,15.97024 L23.0376,15.97024 L23.0376,16.31152 C23.0376,16.33528 23.0376,16.3612 23.0376,16.3828 C23.0352,16.4044 23.0352,16.42384 23.0304,16.44112 C23.0304,16.46056 23.028,16.47784 23.028,16.49296 L23.0376,16.49296 C23.064,16.41736 23.1096,16.34392 23.172,16.27264 C23.2368,16.20136 23.3088,16.14088 23.388,16.08904 C23.4696,16.0372 23.5584,15.994 23.6544,15.9616 C23.7456,15.93136 23.844,15.91408 23.9424,15.91408 C24.1728,15.91408 24.3504,15.96376 24.4728,16.0588 C24.5952,16.15384 24.6768,16.29856 24.7128,16.48864 L24.7224,16.48864 C24.756,16.41088 24.804,16.33744 24.864,16.26832 C24.924,16.1992 24.9936,16.13872 25.0752,16.08688 C25.1544,16.0372 25.2408,15.994 25.3392,15.9616 C25.4328,15.93136 25.5336,15.91408 25.6368,15.91408 C25.788,15.91408 25.9176,15.93568 26.0232,15.97456 C26.1288,16.01344 26.2128,16.07176 26.2776,16.14736 C26.3424,16.22296 26.3928,16.31584 26.4216,16.426 C26.448,16.53616 26.4672,16.66144 26.4672,16.80184 L26.4672,18.25768 L26.1312,18.25768 L26.1312,16.8796 C26.1312,16.78456 26.1216,16.69816 26.1096,16.61392 C26.0976,16.534 26.0712,16.46272 26.0304,16.39792 C25.992,16.33528 25.9416,16.28776 25.8672,16.25104 C25.8,16.21432 25.7064,16.19704 25.5936,16.19704 C25.4976,16.19704 25.4064,16.21432 25.32,16.24888 C25.236,16.2856 25.1592,16.33312 25.0896,16.3936 C25.02,16.45192 24.9624,16.5232 24.912,16.5988 C24.864,16.67656 24.8256,16.75864 24.8016,16.84288 C24.7848,16.89472 24.7728,16.9444 24.7656,17.00056 C24.7584,17.05456 24.756,17.11288 24.756,17.17552 L24.756,18.25768 L24.4224,18.25768 L24.4224,16.8796 C24.4224,16.79104 24.4152,16.7068 24.4056,16.62472 C24.396,16.54264 24.3696,16.47136 24.336,16.40656 C24.3024,16.34392 24.2472,16.29208 24.1776,16.25104 C24.108,16.21432 24.012,16.19488 23.8968,16.19488 C23.796,16.19488 23.7,16.21432 23.6136,16.25104 C23.5248,16.28992 23.4456,16.3396 23.376,16.40008 C23.3064,16.46272 23.2464,16.534 23.196,16.61608 C23.1456,16.69816 23.1072,16.78024 23.0808,16.8688 C23.0688,16.91632 23.0592,16.966 23.0544,17.01784 C23.0496,17.07184 23.0448,17.12368 23.0448,17.17552 L23.0448,18.25768 L22.7112,18.25768 L22.7112,15.97024 L22.7064,15.97024 Z" id="Shape"></path>
            <path d="M27.2472,15.97024 L27.5664,15.97024 L27.5664,16.19272 C27.5664,16.21864 27.5664,16.24024 27.5664,16.264 C27.5664,16.28344 27.5664,16.30288 27.564,16.32016 C27.5592,16.33528 27.5592,16.35256 27.5592,16.36984 L27.5664,16.36984 C27.612,16.2856 27.6744,16.21 27.7512,16.14304 C27.7848,16.11712 27.8232,16.08688 27.864,16.0588 C27.9096,16.03288 27.96,16.00912 28.0152,15.98752 C28.068,15.96592 28.1328,15.94864 28.2024,15.93568 C28.2696,15.92272 28.344,15.91408 28.4256,15.91408 C28.5936,15.91408 28.7448,15.94432 28.8816,16.00264 C29.016,16.06096 29.1288,16.14304 29.2248,16.24888 C29.3184,16.35472 29.3904,16.48216 29.4384,16.62904 C29.4888,16.77592 29.5128,16.94008 29.5128,17.1172 C29.5128,17.29648 29.484,17.4628 29.4312,17.60752 C29.3736,17.7544 29.2968,17.87968 29.196,17.98336 C29.0976,18.0892 28.9824,18.16912 28.8432,18.22744 C28.7064,18.28576 28.56,18.31168 28.3992,18.31168 C28.3224,18.31168 28.2528,18.30736 28.1904,18.2944 C28.128,18.28144 28.0704,18.26632 28.02,18.24472 C27.9648,18.22528 27.9192,18.20152 27.8736,18.1756 C27.8328,18.14968 27.7992,18.1216 27.7632,18.09352 C27.6864,18.02872 27.624,17.95744 27.5784,17.8732 L27.5688,17.8732 C27.5712,17.88832 27.5712,17.90992 27.5736,17.92936 C27.5736,17.94664 27.5736,17.96824 27.576,17.99416 C27.576,18.01576 27.576,18.04384 27.576,18.07624 L27.576,19.1692 L27.2424,19.1692 L27.2424,15.97024 L27.2472,15.97024 Z M27.5712,17.12152 C27.5712,17.23816 27.588,17.34832 27.6216,17.46064 C27.66,17.56864 27.7104,17.668 27.7776,17.7544 C27.8448,17.8408 27.9264,17.91208 28.0272,17.96392 C28.1208,18.01576 28.236,18.04168 28.3656,18.04168 C28.476,18.04168 28.5792,18.02008 28.6776,17.97904 C28.7736,17.93584 28.8624,17.87752 28.9344,17.79976 C29.0088,17.71984 29.064,17.62264 29.1048,17.50816 C29.1504,17.39152 29.1696,17.26192 29.1696,17.1172 C29.1696,16.9768 29.1504,16.85152 29.1096,16.73704 C29.0712,16.62472 29.0184,16.52752 28.9488,16.4476 C28.8792,16.36552 28.7952,16.30504 28.6992,16.264 C28.6008,16.21864 28.4952,16.19704 28.38,16.19704 C28.272,16.19704 28.1736,16.21432 28.0752,16.24888 C27.9816,16.2856 27.8928,16.34176 27.8208,16.4152 C27.7464,16.4908 27.684,16.58584 27.6408,16.70248 C27.5928,16.81912 27.5712,16.95952 27.5712,17.12152 Z" id="Shape"></path>
            <path d="M29.9616,17.63344 C29.9616,17.506 29.988,17.39584 30.0456,17.30728 C30.1008,17.21872 30.1728,17.14312 30.2592,17.08696 C30.3504,17.02648 30.4488,16.98112 30.5616,16.94872 C30.6744,16.91632 30.7872,16.89256 30.8976,16.87744 C31.0128,16.86016 31.1184,16.85152 31.224,16.8472 C31.3272,16.84504 31.416,16.84288 31.4856,16.84288 L31.6248,16.84288 L31.6248,16.7824 C31.6248,16.67224 31.608,16.57936 31.5768,16.50592 C31.5504,16.43032 31.5048,16.36984 31.452,16.32016 C31.3944,16.2748 31.3296,16.2424 31.2528,16.2208 C31.1784,16.1992 31.0968,16.19056 31.0056,16.19056 C30.9024,16.19056 30.8088,16.20352 30.7224,16.22728 C30.636,16.24888 30.564,16.2748 30.5016,16.30288 C30.4272,16.33312 30.36,16.372 30.3024,16.41088 L30.144,16.17328 C30.2112,16.1236 30.288,16.08472 30.3768,16.04368 C30.4536,16.01128 30.5472,15.9832 30.6552,15.95512 C30.7632,15.92704 30.8856,15.91192 31.0296,15.91192 C31.3296,15.91192 31.56,15.98752 31.7232,16.13656 C31.8792,16.2856 31.9584,16.50592 31.9584,16.79536 L31.9584,18.25768 L31.6392,18.25768 L31.6392,18.00496 C31.6392,17.97904 31.6392,17.95096 31.6392,17.92936 C31.6392,17.90344 31.644,17.884 31.644,17.86888 C31.644,17.84944 31.6464,17.83216 31.6488,17.81488 L31.6392,17.81488 C31.596,17.90992 31.536,17.992 31.4568,18.06328 C31.4256,18.09352 31.3872,18.12592 31.3464,18.15616 C31.3032,18.18424 31.2552,18.21232 31.1976,18.23392 C31.1424,18.25984 31.0824,18.27712 31.02,18.29224 C30.9528,18.30736 30.8832,18.31168 30.8064,18.31168 C30.7032,18.31168 30.5976,18.30088 30.4992,18.2728 C30.3984,18.24256 30.3072,18.20152 30.2256,18.14536 C30.144,18.09136 30.0816,18.01792 30.0336,17.93368 C29.9856,17.84944 29.9616,17.74792 29.9616,17.63344 Z M30.3048,17.61616 C30.3048,17.67016 30.3168,17.722 30.3432,17.77384 C30.3648,17.82568 30.4008,17.8732 30.444,17.91424 C30.492,17.95312 30.5472,17.98768 30.6168,18.0136 C30.6864,18.03952 30.768,18.05032 30.864,18.05032 C30.9816,18.05032 31.0848,18.0244 31.1808,17.97256 C31.2768,17.92288 31.3584,17.85592 31.4232,17.77384 C31.4904,17.69176 31.5408,17.60104 31.5744,17.49952 C31.6056,17.40016 31.6248,17.3008 31.6248,17.20144 L31.6248,17.09992 L31.4832,17.09992 C31.416,17.09992 31.3416,17.10208 31.2576,17.1064 C31.1712,17.1064 31.092,17.11288 31.0008,17.12368 C30.9168,17.13664 30.8304,17.1496 30.7464,17.1712 C30.66,17.1928 30.588,17.22304 30.5232,17.26192 C30.456,17.3008 30.4032,17.35048 30.3672,17.40664 C30.3264,17.46064 30.3048,17.53192 30.3048,17.61616 Z" id="Shape"></path>
            <path d="M32.7384,15.97024 L33.0696,15.97024 L33.0696,16.31152 C33.0696,16.33528 33.0696,16.3612 33.0672,16.3828 C33.0672,16.4044 33.0672,16.42384 33.0672,16.44112 C33.0648,16.46056 33.0624,16.47784 33.0624,16.49296 L33.072,16.49296 C33.0936,16.44328 33.132,16.3828 33.1824,16.31584 C33.2328,16.24888 33.2976,16.18624 33.3816,16.12792 C33.4632,16.0696 33.5616,16.01776 33.6744,15.97672 C33.7872,15.93784 33.9192,15.91624 34.068,15.91624 C34.2192,15.91624 34.3488,15.93784 34.4568,15.97672 C34.56,16.0156 34.6512,16.07392 34.716,16.14952 C34.7808,16.22512 34.8288,16.318 34.8552,16.42816 C34.884,16.53832 34.9008,16.6636 34.9008,16.804 L34.9008,18.25984 L34.5624,18.25984 L34.5624,16.88608 C34.5624,16.79752 34.56,16.70896 34.548,16.62688 C34.5384,16.5448 34.5144,16.47352 34.476,16.41088 C34.4376,16.34824 34.3824,16.29856 34.3104,16.26184 C34.2408,16.22512 34.1424,16.20568 34.0224,16.20568 C33.9144,16.20568 33.8136,16.2208 33.7152,16.2532 C33.6216,16.2856 33.5328,16.3288 33.4536,16.38712 C33.372,16.44544 33.3048,16.5124 33.2448,16.59016 C33.1872,16.67224 33.1464,16.75864 33.1152,16.85152 C33.1008,16.89904 33.0912,16.94872 33.084,17.00056 C33.0792,17.0524 33.0792,17.1064 33.0792,17.1604 L33.0792,18.25768 L32.7408,18.25768 L32.7408,15.97024 L32.7384,15.97024 Z" id="Shape"></path>
            <path d="M35.4336,18.83224 C35.4624,18.85168 35.4936,18.87112 35.5248,18.8884 C35.5488,18.90136 35.5824,18.91216 35.616,18.92296 C35.652,18.93376 35.688,18.93808 35.7288,18.93808 C35.784,18.93808 35.832,18.92944 35.88,18.91 C35.928,18.89056 35.9688,18.86248 36.0096,18.83008 C36.048,18.79768 36.0816,18.75664 36.1152,18.71128 C36.1464,18.66376 36.1752,18.61624 36.2016,18.5644 L36.3552,18.24256 L35.3136,15.97024 L35.6856,15.97024 L36.42,17.63992 C36.432,17.67016 36.4416,17.69824 36.456,17.72632 C36.4656,17.7544 36.4752,17.78032 36.4848,17.80408 C36.4944,17.83 36.5016,17.85592 36.5088,17.88184 L36.5208,17.88184 L36.5448,17.80408 C36.5544,17.78032 36.5616,17.7544 36.5712,17.72632 C36.5808,17.69824 36.5952,17.668 36.6072,17.63992 L37.3272,15.97024 L37.692,15.97024 L36.4656,18.73936 C36.3984,18.88408 36.3048,19.00072 36.1824,19.08712 C36.06,19.17136 35.9136,19.21672 35.7456,19.21672 C35.6832,19.21672 35.6232,19.21024 35.568,19.19512 C35.5152,19.18216 35.4672,19.16488 35.4312,19.14976 C35.3856,19.13032 35.3448,19.10656 35.3088,19.08064 L35.4336,18.83224 Z" id="Shape"></path>
            <ellipse id="Oval" cx="83.832" cy="8.272" rx="5.7336" ry="5.26392"></ellipse>
            <path d="M6.2544,13.16224 C4.3368,13.16224 2.9064,12.77992 1.9584,12.01096 C1.008,11.24416 0.5088,10.2592 0.456,9.05392 L2.1936,9.05392 C2.2848,9.95896 2.7048,10.62856 3.456,11.06272 C4.2096,11.49472 5.1144,11.71288 6.18,11.71288 C7.188,11.71288 7.9968,11.52712 8.6136,11.15776 C9.228,10.7884 9.5376,10.28512 9.5376,9.65008 C9.5376,8.9848 9.216,8.49664 8.5824,8.19424 C7.944,7.89184 6.8496,7.5916 5.2944,7.29784 C3.7392,7.00192 2.6256,6.59152 1.9488,6.06664 C1.272,5.54392 0.9336,4.84624 0.9336,3.97144 C0.9336,2.9908 1.3752,2.18296 2.2536,1.5544 C3.1344,0.92584 4.3056,0.61264 5.7624,0.61264 C7.2984,0.61264 8.532,0.93016 9.4728,1.56304 C10.4136,2.20024 10.9104,3.09664 10.9656,4.2544 L9.2136,4.2544 C9.0336,2.7856 7.908,2.04904 5.8392,2.04904 C4.8384,2.04904 4.0584,2.21968 3.5112,2.55448 C2.9592,2.8936 2.6856,3.33856 2.6856,3.89584 C2.6856,4.40344 2.9064,4.7836 3.348,5.03632 C3.792,5.2912 4.6152,5.53744 5.8224,5.77288 C7.032,6.01264 7.9944,6.24592 8.7048,6.4792 C9.4152,6.71032 10.0248,7.07104 10.5312,7.55704 C11.0352,8.04736 11.2896,8.70184 11.2896,9.5248 C11.2896,10.56592 10.824,11.43424 9.8952,12.12328 C8.9616,12.8188 7.7496,13.16224 6.2544,13.16224 Z" id="Shape"></path>
            <path d="M17.9304,13.16224 C16.488,13.16224 15.3264,12.75832 14.448,11.94832 C13.5696,11.14048 13.1304,10.01296 13.1304,8.56576 C13.1304,7.13152 13.5528,6.00616 14.4072,5.19184 C15.2544,4.37968 16.3632,3.97144 17.7384,3.97144 C19.1424,3.97144 20.2608,4.3732 21.0984,5.1724 C21.936,5.9716 22.356,7.10344 22.356,8.56576 L22.356,8.93944 L14.9472,8.93944 C15.0216,9.9568 15.336,10.70848 15.8904,11.20096 C16.4424,11.69128 17.1264,11.93968 17.9328,11.93968 C18.5472,11.93968 19.0992,11.79928 19.5888,11.52064 C20.0808,11.24416 20.3376,10.84456 20.364,10.3348 L22.1712,10.3348 C22.0344,11.23984 21.576,11.93536 20.796,12.43 C20.0088,12.916 19.0536,13.16224 17.9304,13.16224 Z M20.508,7.71472 C20.3664,6.87016 20.0472,6.23944 19.5552,5.81824 C19.0584,5.3992 18.4512,5.18752 17.7384,5.18752 C17.04,5.18752 16.44,5.39704 15.9384,5.81176 C15.4392,6.2308 15.12,6.86368 14.9856,7.71256 L20.508,7.71256 L20.508,7.71472 Z" id="Shape"></path>
            <path d="M28.4856,13.16224 C27.0888,13.16224 25.9752,12.76048 25.1376,11.95912 C24.2976,11.1556 23.88,10.02376 23.88,8.56792 C23.88,7.1056 24.2976,5.97376 25.1376,5.17456 C25.9752,4.37536 27.0888,3.9736 28.4856,3.9736 C29.5632,3.9736 30.4608,4.21768 31.1784,4.70368 C31.9008,5.18968 32.3256,5.88952 32.4504,6.80536 L30.6552,6.80536 C30.6312,6.28048 30.4128,5.88088 29.9904,5.6044 C29.5752,5.33008 29.0712,5.18968 28.4832,5.18968 C27.648,5.18968 26.9736,5.47264 26.4552,6.03856 C25.9344,6.60664 25.6728,7.44904 25.6728,8.56792 C25.6728,9.68464 25.932,10.52488 26.4552,11.0908 C26.9736,11.65672 27.648,11.93968 28.4832,11.93968 C29.0712,11.93968 29.5728,11.80144 29.9904,11.52496 C30.4104,11.24848 30.6288,10.8532 30.6552,10.3348 L32.4504,10.3348 C32.3256,11.24848 31.8984,11.95048 31.1784,12.43648 C30.4584,12.92032 29.5608,13.16224 28.4856,13.16224 Z" id="Shape"></path>
            <path d="M40.4136,11.83816 C39.54,12.71944 38.5632,13.16224 37.476,13.16224 C35.256,13.16224 34.1472,12.08224 34.1472,9.91792 L34.1472,4.17448 L35.8992,4.17448 L35.8992,9.85096 C35.8992,10.56808 36.0408,11.08432 36.3264,11.40184 C36.6096,11.7172 37.0776,11.87272 37.7352,11.87272 C38.712,11.87272 39.6048,11.40184 40.4136,10.4644 L40.4136,4.17232 L42.1584,4.17232 L42.1584,12.95488 L40.4136,12.95488 L40.4136,11.83816 Z" id="Shape"></path>
            <path d="M50.04,5.59576 C49.7904,5.5288 49.4376,5.4964 48.972,5.4964 C48.084,5.4964 47.3184,5.91328 46.6824,6.74704 L46.6824,12.95488 L44.9352,12.95488 L44.9352,4.17232 L46.6824,4.17232 L46.6824,5.39488 C47.4192,4.44448 48.2712,3.96928 49.2432,3.96928 C49.4928,3.96928 49.7568,3.99088 50.04,4.03624 L50.04,5.59576 Z" id="Shape"></path>
            <path d="M55.6272,13.16224 C54.18,13.16224 53.0184,12.75832 52.14,11.94832 C51.264,11.14048 50.8272,10.01296 50.8272,8.56576 C50.8272,7.13152 51.2496,6.00616 52.0992,5.19184 C52.9488,4.37968 54.0624,3.97144 55.4304,3.97144 C56.8344,3.97144 57.9552,4.3732 58.7928,5.1724 C59.628,5.9716 60.048,7.10344 60.048,8.56576 L60.048,8.93944 L52.6392,8.93944 C52.7112,9.9568 53.028,10.70848 53.5824,11.20096 C54.1368,11.69128 54.8184,11.93968 55.6272,11.93968 C56.2392,11.93968 56.7888,11.79928 57.2832,11.52064 C57.7728,11.24416 58.032,10.84456 58.0584,10.3348 L59.8656,10.3348 C59.7288,11.23984 59.2704,11.93536 58.488,12.43 C57.7056,12.916 56.7528,13.16224 55.6272,13.16224 Z M58.2048,7.71472 C58.0632,6.87016 57.744,6.23944 57.2472,5.81824 C56.7552,5.3992 56.148,5.18752 55.4304,5.18752 C54.7344,5.18752 54.1344,5.39704 53.6328,5.81176 C53.1336,6.2308 52.8144,6.86368 52.68,7.71256 L58.2048,7.71256 L58.2048,7.71472 Z" id="Shape"></path>
            <polygon id="Shape" points="76.2576 0.24544 73.992 8.49016 71.4384 0.24544 68.3328 0.24544 65.7816 8.49016 63.516 0.24544 60.312 0.24544 64.4208 13.52944 67.0896 13.52944 69.8904 4.50496 72.684 13.52944 75.348 13.52944 79.4688 0.24544"></polygon>
            <path d="M96.7656,3.47464 C96.4464,3.42496 96.144,3.39904 95.8656,3.39904 C95.1672,3.39904 94.5216,3.59776 93.9312,3.98656 L93.9312,3.59992 L90.9264,3.59992 L90.9264,13.5316 L93.9312,13.5316 L93.9312,6.93712 C94.4208,6.35608 94.9632,6.07096 95.5944,6.07096 C96.0936,6.07096 96.3576,6.11416 96.4848,6.14872 L97.284,6.36472 L97.284,3.55672 L96.7656,3.47464 Z" id="Shape"></path>
            <polygon id="Shape" points="103.908 7.52032 108.3792 3.59776 104.352 3.59776 101.4456 6.30208 101.4456 0.24544 98.4432 0.24544 98.4432 13.52944 101.4456 13.52944 101.4456 9.70624 101.8056 9.38656 104.7744 13.52944 108.384 13.52944"></polygon>
            <path d="M116.6856,8.12728 C116.0424,7.7428 115.1088,7.42528 113.8392,7.15312 C112.3056,6.82048 111.8832,6.65416 111.7728,6.598 C111.7128,6.5656 111.648,6.5332 111.648,6.35608 C111.648,6.21136 111.6912,6.1012 111.9096,5.98888 C112.2,5.83768 112.5888,5.76208 113.064,5.76208 C114.4728,5.76208 114.5112,6.25888 114.528,6.47056 L114.5664,7.00408 L117.5376,7.00408 L117.5184,6.41224 C117.4728,5.03848 116.6424,3.39688 112.9464,3.39688 C111.6936,3.39688 110.6664,3.67984 109.8936,4.23496 C109.0728,4.8268 108.6552,5.58712 108.6552,6.49864 C108.6552,7.5052 109.0224,8.23528 109.7424,8.66728 C110.3424,9.02584 111.2352,9.33472 112.476,9.61336 C113.8608,9.92224 114.4248,10.108 114.648,10.2052 C114.7824,10.26568 114.852,10.33264 114.852,10.5292 C114.852,10.67824 114.8136,10.87696 114.528,11.08 C114.2592,11.26576 113.832,11.36296 113.2536,11.36296 C111.4416,11.36296 111.432,10.66096 111.4296,10.324 L111.4248,9.75592 L108.3912,9.75592 L108.432,10.36504 C108.5328,11.9008 109.452,13.73464 113.2704,13.73464 C114.6192,13.73464 115.7184,13.42792 116.5416,12.81664 C117.4056,12.17944 117.8472,11.35648 117.8472,10.38016 C117.84,9.33688 117.4536,8.58088 116.6856,8.12728 Z" id="Shape"></path>
            <path d="M84.0984,9.06688 C78.0264,11.09512 76.3104,14.22712 80.2944,16.03504 C84.2952,17.85592 92.5104,17.68096 98.5824,15.65488 C99.5808,15.32224 100.4616,14.95936 101.2176,14.58136 L101.244,14.64616 C100.2744,15.2488 99.0192,15.82552 97.5,16.33312 C91.2552,18.41752 82.812,18.60112 78.7008,16.7284 C74.6088,14.86864 76.3728,11.64808 82.6152,9.56152" id="Shape"></path>
            <path d="M117.9456,3.66472 C117.9456,2.81584 118.6728,2.18944 119.5296,2.18944 C120.3792,2.18944 121.1064,2.81584 121.1064,3.66472 C121.1064,4.52224 120.3792,5.14864 119.5296,5.14864 C118.6728,5.14864 117.9456,4.52224 117.9456,3.66472 Z M119.5296,4.9024 C120.2352,4.9024 120.792,4.37752 120.792,3.66472 C120.792,2.96272 120.2352,2.43568 119.5296,2.43568 C118.8144,2.43568 118.26,2.96488 118.26,3.66472 C118.26,4.37752 118.8168,4.9024 119.5296,4.9024 Z M119.2008,4.52224 L118.9296,4.52224 L118.9296,2.81584 L119.6136,2.81584 C120.0408,2.81584 120.2496,2.96488 120.2496,3.30184 C120.2496,3.6064 120.048,3.74032 119.784,3.77272 L120.2952,4.5244 L119.9904,4.5244 L119.5152,3.78352 L119.2008,3.78352 L119.2008,4.52224 L119.2008,4.52224 Z M119.5272,3.5632 C119.7576,3.5632 119.964,3.54808 119.964,3.28456 C119.964,3.07288 119.7624,3.034 119.5728,3.034 L119.2008,3.034 L119.2008,3.5632 L119.5272,3.5632 Z" id="Shape"></path>
        </g>
    </g>
</svg>