<?xml version="1.0" encoding="UTF-8"?>
<svg width="30px" height="30px" viewBox="0 0 30 30" version="1.1" xmlns="http://www.w3.org/2000/svg" xmlns:xlink="http://www.w3.org/1999/xlink">
    <!-- Generator: Sketch 45.2 (43514) - http://www.bohemiancoding.com/sketch -->
    <title>Twitter_Logo_WhiteOnImage</title>
    <desc>Created with Sketch.</desc>
    <defs></defs>
    <g id="Page-1" stroke="none" stroke-width="1" fill="none" fill-rule="evenodd">
        <g id="Twitter_Logo_WhiteOnImage" fill-rule="nonzero">
            <g id="_x31_0_x2013_20_x25__Black_Tint" fill="#444444">
                <rect id="Rectangle-path" x="0" y="0" width="30" height="30"></rect>
            </g>
            <g id="Logo__x2014__FIXED" transform="translate(5.625000, 7.350000)" fill="#FFFFFF">
                <path d="M5.895,15.27 C12.9675,15.27 16.8375,9.405 16.8375,4.3275 C16.8375,4.1625 16.8375,3.9975 16.83,3.8325 C17.58,3.2925 18.2325,2.61 18.75,1.8375 C18.06,2.145 17.3175,2.3475 16.5375,2.445 C17.3325,1.9725 17.94,1.215 18.2325,0.315 C17.49,0.7575 16.665,1.0725 15.7875,1.245 C15.0825,0.495 14.085,0.03 12.9825,0.03 C10.86,0.03 9.135,1.755 9.135,3.8775 C9.135,4.1775 9.1725,4.47 9.2325,4.755 C6.0375,4.5975 3.2025,3.06 1.305,0.735 C0.975,1.305 0.7875,1.965 0.7875,2.67 C0.7875,4.005 1.47,5.1825 2.4975,5.8725 C1.8675,5.85 1.275,5.6775 0.7575,5.3925 C0.7575,5.4075 0.7575,5.4225 0.7575,5.445 C0.7575,7.305 2.085,8.865 3.84,9.2175 C3.5175,9.3075 3.18,9.3525 2.8275,9.3525 C2.58,9.3525 2.34,9.33 2.1075,9.285 C2.595,10.815 4.02,11.925 5.7,11.955 C4.38,12.99 2.7225,13.605 0.9225,13.605 C0.615,13.605 0.3075,13.59 0.0075,13.5525 C1.7025,14.6325 3.7275,15.27 5.895,15.27" id="Shape"></path>
            </g>
        </g>
    </g>
</svg>