<?xml version="1.0" encoding="UTF-8"?>
<svg width="101px" height="21px" viewBox="0 0 101 21" version="1.1" xmlns="http://www.w3.org/2000/svg" xmlns:xlink="http://www.w3.org/1999/xlink">
    <!-- Generator: Sketch 46.2 (44496) - http://www.bohemiancoding.com/sketch -->
    <title>VIRTUSTREAM</title>
    <desc>Created with Sketch.</desc>
    <defs></defs>
    <g id="Page-1" stroke="none" stroke-width="1" fill="none" fill-rule="evenodd">
        <g id="VIRTUSTREAM" fill-rule="nonzero" fill="#FFFFFF">
            <path d="M41.153499,8.54118462 C41.153499,9.05455385 40.7067073,9.47293846 40.153182,9.47293846 C39.5971745,9.47293846 39.1479006,9.05455385 39.1479006,8.54118462 L39.1479006,5.3592 C39.1479006,4.84583077 39.5971745,4.42970769 40.153182,4.42970769 C40.7067073,4.42970769 41.153499,4.84583077 41.153499,5.3592 L41.153499,8.54118462 Z" id="Shape"></path>
            <path d="M43.8243208,7.24532308 C43.8243208,7.75869231 43.3750469,8.17707692 42.8240037,8.17707692 C42.2729606,8.17707692 41.8212045,7.75869231 41.8212045,7.24532308 L41.8212045,4.0656 C41.8212045,3.54996923 42.2704784,3.13384615 42.8240037,3.13384615 C43.3775291,3.13384615 43.8243208,3.54996923 43.8243208,4.0656 L43.8243208,7.24532308 Z" id="Shape"></path>
            <path d="M46.500107,5.51976923 C46.500107,6.03313846 46.050833,6.45152308 45.4948255,6.45152308 C44.9437823,6.45152308 44.4945084,6.03313846 44.4945084,5.51976923 L44.4945084,2.34004615 C44.4945084,1.82667692 44.9437823,1.40603077 45.4948255,1.40603077 C46.050833,1.40603077 46.500107,1.82667692 46.500107,2.34004615 L46.500107,5.51976923 Z" id="Shape"></path>
            <path d="M49.1734109,6.65958462 C49.1734109,7.17521538 48.7216548,7.59133846 48.1681294,7.59133846 C47.6170863,7.59133846 47.1628481,7.17521538 47.1628481,6.65958462 L47.1628481,3.4776 C47.1628481,2.96423077 47.6146041,2.54584615 48.1681294,2.54584615 C48.7191726,2.54584615 49.1734109,2.96423077 49.1734109,3.4776 L49.1734109,6.65958462 Z" id="Shape"></path>
            <path d="M51.8467148,4.6536 C51.8467148,5.16470769 51.3999231,5.58309231 50.8463977,5.58309231 C50.2928725,5.58309231 49.8411163,5.16696923 49.8411163,4.6536 L49.8411163,1.47161538 C49.8411163,0.958246154 50.2903903,0.539861538 50.8463977,0.539861538 C51.4024053,0.539861538 51.8467148,0.955984615 51.8467148,1.47161538 L51.8467148,4.6536 Z" id="Shape"></path>
            <path d="M54.5249832,6.72290769 C54.5249832,7.23627692 54.0757092,7.65466154 53.5172195,7.65466154 C52.9686585,7.65466154 52.5169024,7.23401538 52.5169024,6.72290769 L52.5169024,3.54318462 C52.5169024,3.02981538 52.9686585,2.61143077 53.5172195,2.61143077 C54.0757092,2.61143077 54.5249832,3.03207692 54.5249832,3.54318462 L54.5249832,6.72290769 Z" id="Shape"></path>
            <path d="M57.198287,8.51856923 C57.198287,9.0342 56.7490131,9.45032308 56.1954878,9.45032308 C55.6419625,9.45032308 55.1902064,9.0342 55.1902064,8.51856923 L55.1902064,5.33658462 C55.1902064,4.82321538 55.6394803,4.40483077 56.1954878,4.40483077 C56.746531,4.40483077 57.198287,4.82095385 57.198287,5.33658462 L57.198287,8.51856923 Z" id="Shape"></path>
            <path d="M59.8641445,7.1232 C59.8641445,7.63883077 59.4148705,8.05495385 58.8638274,8.05495385 C58.3078198,8.05495385 57.8610281,7.63883077 57.8610281,7.1232 L57.8610281,3.94121538 C57.8610281,3.42784615 58.3078198,3.00946154 58.8638274,3.00946154 C59.4148705,3.00946154 59.8641445,3.42558462 59.8641445,3.94121538 L59.8641445,7.1232 Z" id="Shape"></path>
            <path d="M62.5300019,6.02409231 C62.5300019,6.53746154 62.0832101,6.95584615 61.5247204,6.95584615 C60.9736773,6.95584615 60.5268856,6.53972308 60.5268856,6.02409231 L60.5268856,2.84210769 C60.5268856,2.32647692 60.9736773,1.91035385 61.5247204,1.91035385 C62.0832101,1.91035385 62.5300019,2.32647692 62.5300019,2.84210769 L62.5300019,6.02409231 Z" id="Shape"></path>
            <path d="M95.2301934,20.3826 C94.9273678,20.3826 94.6791502,20.2898769 94.4706477,20.0976462 C94.2646263,19.9054154 94.16534,19.6860462 94.16534,19.4259692 L94.16534,15.1720154 C94.16534,13.9349538 94.0883919,13.1162769 93.9245685,12.6820615 C93.6440828,11.9538462 93.0011985,11.5671231 92.0753473,11.5671231 C91.1494952,11.5671231 90.5066117,11.9493231 90.2286081,12.6775385 C90.0672667,13.1185385 89.9878366,13.9326923 89.9878366,15.1720154 L89.9878366,19.4259692 C89.9878366,19.6860462 89.8835853,19.9054154 89.6701179,20.0953846 C89.4566513,20.2898769 89.2109158,20.3803385 88.9205011,20.3803385 C88.6350505,20.3803385 88.3967619,20.2876154 88.1882586,20.0953846 C87.9822381,19.9054154 87.8804688,19.6860462 87.8804688,19.4237077 L87.8804688,15.1697538 C87.8804688,13.9326923 87.8035216,13.1185385 87.6396982,12.6798 C87.4411238,12.1709538 86.9570997,11.5648615 85.753244,11.5648615 C84.8199458,11.5648615 84.1820264,11.9470615 83.8940938,12.6752769 C83.7327524,13.1140154 83.6533223,13.9304308 83.6533223,15.1697538 L83.6533223,19.4237077 C83.6533223,19.6837846 83.5515531,19.9054154 83.3455326,20.0953846 C83.134548,20.2876154 82.8888125,20.3803385 82.5859868,20.3803385 C82.2980542,20.3803385 82.0572835,20.2876154 81.851263,20.0953846 C81.6452417,19.9054154 81.5459553,19.6860462 81.5459553,19.4259692 L81.5459553,14.4732 C81.5459553,13.3786154 81.8884952,12.4762615 82.5586828,11.7910154 C83.2958894,11.0334 84.3657069,10.6512 85.740833,10.6512 C87.1358161,10.6512 88.1088293,11.0876769 88.7194447,11.9787231 C88.7591597,12.0375231 88.8311429,12.0737077 88.9056081,12.0737077 C88.9825553,12.0737077 89.0545385,12.0397846 89.0942535,11.9809846 C89.739619,11.0854154 90.7126322,10.6489385 92.0753473,10.6489385 C93.4529553,10.6489385 94.5227729,11.0311385 95.2574975,11.7887538 C95.9326491,12.4717385 96.2751898,13.3763538 96.2751898,14.4709385 L96.2751898,19.4237077 C96.2751898,19.6837846 96.1734205,19.9008923 95.9673992,20.0931231 C95.7588967,20.2898769 95.518126,20.3826 95.2301934,20.3826" id="Shape"></path>
            <path d="M75.1394578,20.3826 C74.0150319,20.3826 73.1388237,20.0682462 72.4611895,19.4214462 C71.8530563,18.8402308 71.552713,18.1662923 71.552713,17.3589231 C71.552713,16.2982615 71.9995047,15.5067231 72.9129456,14.9436 C73.6451876,14.4777231 74.551182,14.2447846 75.5961782,14.2447846 C75.7848237,14.2447846 75.9685047,14.2493077 76.1422571,14.2651385 C76.4599756,14.2900154 76.52203,14.4053538 76.52203,14.5794923 C76.52203,14.7310154 76.4748686,14.8757538 76.1298462,14.9209846 C73.9008518,15.1742769 73.4342026,16.3977692 73.4342026,17.3838 C73.4342026,17.8994308 73.5732045,18.3607846 73.8487261,18.7565538 C74.1763733,19.2608769 74.6678442,19.5141692 75.3057636,19.5141692 C76.7503903,19.5141692 77.4826322,18.1843846 77.4826322,15.5655231 C77.4826322,14.3782154 77.3858274,13.5504923 77.1897355,13.0348615 C76.817409,12.0759692 76.0454522,11.592 74.8937223,11.592 C74.5164315,11.592 74.0547467,11.6711538 73.4838462,11.8272 C72.8384803,12.0058615 72.6672101,12.0397846 72.622531,12.0443077 C72.3817599,12.0420462 72.2353114,11.9515846 72.1558818,11.7525692 C72.0441839,11.4811846 72.1409887,11.3025231 72.4760826,11.1487385 C73.228182,10.8185538 74.2781426,10.6534615 75.5986604,10.6534615 C77.2468255,10.6534615 78.3389832,11.1216 78.9297411,12.0918 C79.3666041,12.8290615 79.59,14.0819538 79.59,15.8278615 C79.59,18.8945077 78.1354447,20.3826 75.1394578,20.3826" id="Shape"></path>
            <path d="M66.7348086,20.3826 C65.3621651,20.3826 64.2600788,19.9755231 63.4732289,19.1726769 C62.616878,18.3132923 62.180015,17.0830154 62.180015,15.5202923 C62.180015,13.9756615 62.7236116,12.7340769 63.7934297,11.8317231 C64.7167993,11.0514923 65.853636,10.6534615 67.1667073,10.6534615 C68.2191501,10.6534615 69.0109643,10.9338923 69.5843471,11.5083231 C70.0783002,12.0081231 70.3165891,12.5870769 70.3165891,13.2836308 C70.3165891,14.2877538 69.8573865,15.0340615 68.9166417,15.5677846 C68.1074522,16.002 67.0450807,16.2417231 65.7593133,16.2733846 C65.6972589,16.2688615 65.6029362,16.2575538 65.4937204,16.1603077 C65.3845047,16.0653231 65.374576,15.9839077 65.374576,15.9318923 C65.374576,15.7916769 65.4291839,15.7057385 65.5582571,15.6446769 C65.5905253,15.6333692 65.7047054,15.6017077 66.1316398,15.5451692 C68.1496492,15.2240308 68.5716191,14.0683846 68.5716191,13.1547231 C68.5716191,12.0850154 68.0106473,11.4970154 66.9954371,11.4970154 C66.3128387,11.4970154 65.7171163,11.8045846 65.2281275,12.4106769 C64.6398518,13.1434154 64.3444728,14.1837231 64.3444728,15.5044615 C64.3444728,16.8206769 64.6795666,17.8474154 65.3423077,18.5643231 C65.8784578,19.1319692 66.5064484,19.4191846 67.1989756,19.4191846 C67.9163245,19.4191846 68.6584953,19.2789692 69.4130769,19.0075846 L69.6712233,18.9465231 C69.8871726,18.9533077 70.0112814,19.0234154 70.0882289,19.1817231 L70.0907111,19.1817231 L70.1056041,19.2088615 C70.1502833,19.2699231 70.1676585,19.3400308 70.1676585,19.4259692 C70.1676585,19.5503538 70.1279437,19.7335385 69.7729925,19.8760154 C69.0556435,20.2107231 68.0329869,20.3826 66.7348086,20.3826" id="Shape"></path>
            <path d="M56.7539775,20.3826 C56.4685272,20.3826 56.2252739,20.2898769 56.0217355,20.0976462 C55.8107505,19.9076769 55.7089812,19.6883077 55.7089812,19.4282308 L55.7089812,14.5206923 C55.7089812,11.9154 56.9823377,10.6512 59.603516,10.6512 C60.8768725,10.6512 61.7530807,10.8615231 62.2023546,11.2708615 C62.3314278,11.3862 62.4381613,11.5490308 62.2445516,11.8611231 C62.1626398,11.9877692 62.0683171,12.0420462 61.926833,12.0420462 C61.8598143,12.0420462 61.7878311,12.0307385 61.7059193,12.0058615 C61.4800412,11.9131385 61.2591275,11.8272 61.0233208,11.739 C60.7180131,11.6078308 60.3456867,11.5399846 59.9261989,11.5399846 C59.0897054,11.5399846 58.5163227,11.8317231 58.2234259,12.4061538 C57.9528686,12.9308308 57.8213133,13.7721231 57.8213133,14.9684769 L57.8213133,19.4237077 C57.8213133,19.6837846 57.7220263,19.9008923 57.5160056,20.0931231 C57.3075028,20.2898769 57.056803,20.3826 56.7539775,20.3826" id="Shape"></path>
            <path d="M53.6884897,20.3826 C53.144893,20.3826 52.5814391,20.2604769 52.0055741,20.0230154 C51.3552439,19.7493692 50.8488799,19.3897846 50.5013752,18.9487846 C50.0421726,18.3517385 49.8187767,17.4742615 49.8361519,16.3412308 L49.8361519,12.18 C49.8361519,11.9900308 49.7021144,11.8543385 49.5085047,11.8543385 L48.6025103,11.8543385 C48.2252195,11.8543385 48.0713245,11.7141231 48.0713245,11.3726308 C48.0713245,11.0153077 48.2202552,10.8683077 48.5900994,10.8683077 L49.5085047,10.8683077 C49.6971501,10.8683077 49.8361519,10.7394 49.8361519,10.5652615 L49.8361519,8.87815385 C49.8361519,8.61129231 49.9379212,8.3874 50.1414596,8.19064615 C50.3474803,7.99163077 50.583287,7.89438462 50.863773,7.89438462 C51.1244015,7.89438462 51.3552439,7.99163077 51.5587823,8.19064615 C51.7697673,8.38966154 51.8665722,8.61355385 51.8665722,8.87815385 L51.8665722,10.5652615 C51.8665722,10.7461846 51.9981275,10.8683077 52.1942195,10.8683077 L53.9540826,10.8683077 C54.326409,10.8683077 54.4728574,11.0130462 54.4728574,11.3726308 C54.4728574,11.7209077 54.3313733,11.8543385 53.9640113,11.8543385 L52.2165591,11.8543385 C52.0130207,11.8543385 51.8690544,11.9877692 51.8690544,12.18 L51.8690544,15.5293385 C51.8690544,17.3928462 52.0403245,17.9401385 52.1718799,18.1911692 C52.5913678,18.9917538 53.3385028,19.4847692 54.3859812,19.6543846 C54.7806473,19.7177077 54.7806473,19.8986308 54.7806473,19.9981385 C54.7806473,20.1451385 54.7508612,20.3057077 54.3810168,20.3373692 C54.199818,20.3690308 53.9789043,20.3826 53.6884897,20.3826" id="Shape"></path>
            <path d="M43.5537636,20.3826 C42.2009775,20.3826 41.1510168,20.2062 40.4411144,19.8601846 C40.2549512,19.7719846 40.1730394,19.6408154 40.1730394,19.4485846 C40.1730394,19.3603846 40.1978612,19.2789692 40.2499869,19.1975538 C40.3815422,18.9962769 40.5329549,18.9736615 40.6297599,18.9736615 C40.7216004,18.9736615 40.8332983,18.9962769 40.9623715,19.0460308 C41.7814897,19.3716923 42.6080544,19.5390462 43.4222083,19.5390462 C43.953394,19.5390462 44.4200431,19.4327538 44.8097448,19.2269538 C45.3111445,18.9306923 45.5643264,18.5123077 45.5643264,17.9785846 C45.5643264,17.5466308 45.2044109,17.1621692 44.4672045,16.8138923 L42.7842889,16.0087846 L42.4988387,15.8753538 C41.8609193,15.5723077 41.3992345,15.2896154 41.1261951,15.0385846 C40.5528124,14.5206923 40.2748086,13.9100769 40.2748086,13.1728154 C40.2748086,12.4446 40.6024559,11.8588615 41.2701613,11.3839385 C41.9527599,10.8999692 42.8463434,10.6557231 43.9310544,10.6557231 C44.923925,10.6557231 45.8224728,10.7982 46.6093227,11.0854154 C47.0561144,11.2482462 47.1082401,11.4653538 47.1082401,11.6191385 C47.1082401,11.7050769 47.0834184,11.7797077 47.0263284,11.8498154 C46.8798799,12.0443077 46.740878,12.0669231 46.6490375,12.0669231 C46.5745722,12.0669231 46.4901782,12.0488308 46.3983377,12.0149077 C45.4774503,11.6847231 44.7650656,11.5241538 44.2165047,11.5241538 C42.4690525,11.5241538 42.1066548,12.3066462 42.1066548,12.9624923 C42.1066548,13.4509846 42.4789812,13.8942462 43.2161876,14.2809692 C43.8491426,14.5365231 44.4721689,14.7966 45.0976773,15.0725077 C45.9192777,15.4388769 46.5100357,15.7916769 46.8426472,16.1150769 C47.2497242,16.5379846 47.4458161,17.0626615 47.4458161,17.7252923 C47.4458161,18.5304 47.0834184,19.1568462 46.3412476,19.6430769 C45.5792195,20.1315692 44.643439,20.3826 43.5537636,20.3826" id="Shape"></path>
            <path d="M34.5062308,20.3826 C33.1608912,20.3826 32.0811445,20.0004 31.2942946,19.2382615 C30.5421951,18.5281385 30.1797974,17.6597077 30.1797974,16.5854769 L30.1797974,11.6078308 C30.1797974,11.3500154 30.2790844,11.1329077 30.4875873,10.9384154 C30.6911257,10.7484462 30.934379,10.6534615 31.2198293,10.6534615 C31.525137,10.6534615 31.7708725,10.7461846 31.9793752,10.9384154 C32.1853959,11.1283846 32.2871651,11.3500154 32.2871651,11.6078308 L32.2871651,15.9432 C32.2871651,17.0671846 32.3641126,17.8248 32.5279362,18.2612769 C32.8431726,19.0980462 33.5257711,19.5390462 34.5062308,19.5390462 C35.4842083,19.5390462 36.1618424,19.0935231 36.4547392,18.2590154 C36.6160807,17.8202769 36.6955103,17.0604 36.6955103,15.9432 L36.6955103,11.6078308 C36.6955103,11.3477538 36.7997618,11.1306462 37.0132289,10.9406769 C37.2291782,10.7484462 37.4749137,10.6557231 37.7628462,10.6557231 C38.0507786,10.6557231 38.2915497,10.7484462 38.4950882,10.9406769 C38.7060732,11.1351692 38.802878,11.3522769 38.802878,11.6100923 L38.802878,16.5877385 C38.802878,17.6597077 38.4404803,18.5281385 37.6958274,19.2382615 C36.901531,19.9981385 35.8292308,20.3826 34.5062308,20.3826" id="Shape"></path>
            <path d="M28.2561107,20.3826 C27.7125141,20.3826 27.1490601,20.2604769 26.5731951,20.0230154 C25.9228649,19.7516308 25.416501,19.3897846 25.0714784,18.9465231 C24.6122758,18.3517385 24.3888799,17.4765231 24.4062552,16.3412308 L24.4062552,12.18 C24.4062552,11.9900308 24.2722177,11.8543385 24.0761257,11.8543385 L23.1676492,11.8543385 C22.9938968,11.8543385 22.8623415,11.8204154 22.7779475,11.7570923 C22.7382327,11.7231692 22.6885891,11.7028154 22.631499,11.7028154 C22.631499,11.7028154 22.6041951,11.7028154 22.5917842,11.7073385 C22.5198011,11.7186462 22.4627111,11.7570923 22.432925,11.8158923 C22.4205141,11.8362462 22.4130675,11.8543385 22.4006566,11.8679077 C22.3286736,11.9855077 22.2293865,12.0443077 22.0854203,12.0443077 C22.0258481,12.0443077 21.9563471,12.033 21.8669887,12.0081231 C21.6411107,11.9154 21.4177148,11.8294615 21.1843903,11.7412615 C20.8766004,11.6100923 20.5067561,11.5422462 20.0847861,11.5422462 C19.2507749,11.5422462 18.6823565,11.8339846 18.3844953,12.4084154 C18.1114559,12.9353538 17.9823827,13.7743846 17.9823827,14.9707385 L17.9823827,19.4259692 C17.9823827,19.6860462 17.8806135,19.9054154 17.6745929,20.0953846 C17.4685722,20.2876154 17.2228368,20.3803385 16.9150469,20.3803385 C16.6271144,20.3803385 16.3913077,20.2876154 16.1828049,20.0953846 C15.9718198,19.9054154 15.875015,19.6860462 15.875015,19.4259692 L15.875015,14.5184308 C15.875015,11.9131385 17.1458893,10.6489385 19.7670675,10.6489385 C20.9957448,10.6489385 21.8545779,10.8434308 22.3137805,11.2256308 C22.3584596,11.2595538 22.4105853,11.2776462 22.4627111,11.2776462 C22.4627111,11.2776462 22.4999437,11.2753846 22.5222833,11.2686 C22.5967486,11.2505077 22.6538387,11.1984923 22.6761782,11.1283846 C22.7208574,10.9972154 22.8151801,10.8660462 23.1626848,10.8660462 L24.0835722,10.8660462 C24.2722177,10.8660462 24.4112195,10.7371385 24.4112195,10.563 L24.4112195,8.87589231 C24.4112195,8.60903077 24.5105066,8.3874 24.7165272,8.18838462 C24.9225478,7.98936923 25.1608368,7.89212308 25.4388405,7.89212308 C25.6969869,7.89212308 25.9253471,7.98936923 26.1313678,8.18838462 C26.3373883,8.3874 26.4391576,8.61129231 26.4391576,8.87589231 L26.4391576,10.563 C26.4391576,10.7394 26.570713,10.8660462 26.7668049,10.8660462 L28.5291501,10.8660462 C28.89403,10.8660462 29.0454428,11.0107846 29.0454428,11.3703692 C29.0454428,11.7186462 28.9014766,11.8520769 28.5365966,11.8520769 L26.7891445,11.8520769 C26.5831238,11.8520769 26.4416398,11.9809846 26.4416398,12.1777385 L26.4416398,15.5270769 C26.4416398,17.3973692 26.6153921,17.9401385 26.7444653,18.1889077 C27.1639531,18.9894923 27.908606,19.4825077 28.9585666,19.6521231 C29.3532327,19.7154462 29.3532327,19.8963692 29.3532327,19.9958769 C29.3532327,20.1428769 29.3234465,20.3034462 28.9536023,20.3351077 C28.767439,20.3690308 28.5440431,20.3826 28.2561107,20.3826" id="Shape"></path>
            <path d="M12.1616792,20.3826 C11.8737467,20.3826 11.6280113,20.2853538 11.4269549,20.0976462 C11.2234165,19.9144615 11.1216473,19.6928308 11.1216473,19.4282308 L11.1216473,11.6304462 C11.1216473,11.3522769 11.2234165,11.1283846 11.4294371,10.9384154 C11.6304934,10.7484462 11.8737467,10.6534615 12.1616792,10.6534615 C12.4496116,10.6534615 12.6928649,10.7461846 12.9088143,10.9384154 C13.1222814,11.1283846 13.229015,11.3545385 13.229015,11.6304462 L13.229015,19.4282308 C13.229015,19.6883077 13.1222814,19.9054154 12.9088143,20.0953846 C12.6928649,20.2898769 12.4496116,20.3826 12.1616792,20.3826" id="Shape"></path>
            <path d="M4.73748968,20.3826 C3.79674484,20.3826 2.78153471,19.2789692 1.80107505,17.1893077 C0.927348967,15.3190154 0.383752344,13.4555077 0.182696058,11.6575846 C0.155392117,11.4020308 0.24971482,11.1758769 0.463181985,10.9678154 C0.689060037,10.7552308 0.939759854,10.6512 1.23265666,10.6512 C1.87554034,10.6512 2.20070544,10.9610308 2.29006379,11.6530615 C2.40920826,12.5735077 2.61771107,13.5188308 2.91060788,14.4551077 C3.25066604,15.5655231 3.62547467,16.5402462 4.02014071,17.3498769 C4.61089869,18.5846769 4.92365291,18.7520308 5.16938837,18.7520308 C5.40271295,18.7520308 5.64596623,18.5462308 6.18956285,17.4991385 C6.61897936,16.6533231 7.02853846,15.6378923 7.40334711,14.4867692 C7.67886864,13.6590462 7.93701502,12.5237538 8.17530396,11.1148154 C8.22991179,10.7891538 8.41607502,10.6512 8.79833018,10.6512 C8.98201128,10.6512 9.22030022,10.6738154 9.32951597,10.7914154 C9.39653473,10.8637846 9.41887428,10.9746 9.39653473,11.1283846 C9.14831707,13.1366308 8.50543341,15.1968923 7.49766982,17.2548923 C6.23920638,19.8398308 5.30094371,20.3826 4.73748968,20.3826" id="Shape"></path>
            <path d="M12.17409,7.69536923 C11.8414784,7.69536923 11.5684391,7.59133846 11.3375966,7.37649231 C11.104272,7.16390769 10.9925741,6.90835385 10.9925741,6.59852308 C10.9925741,6.28416923 11.104272,6.03313846 11.3375966,5.81829231 C11.5684391,5.60344615 11.8414784,5.49941538 12.17409,5.49941538 C12.4918086,5.49941538 12.7549193,5.60344615 12.9857618,5.81829231 C13.2166041,6.03313846 13.328302,6.28643077 13.328302,6.59852308 C13.328302,6.90835385 13.2166041,7.16390769 12.9857618,7.37649231 C12.7549193,7.59133846 12.4918086,7.69536923 12.17409,7.69536923" id="Shape"></path>
            <path d="M97.3177033,18.6186 L97.3177033,18.6072923 C97.3177033,17.7117231 98.099589,16.9563692 99.0825312,16.9563692 C100.075401,16.9563692 100.847358,17.7049385 100.847358,18.6027692 L100.847358,18.6072923 C100.847358,19.5073846 100.070437,20.2627385 99.0825312,20.2627385 C98.084696,20.2627385 97.3177033,19.5164308 97.3177033,18.6186 M100.509782,18.6072923 L100.509782,18.6027692 C100.509782,17.8655077 99.899167,17.2616769 99.0825312,17.2616769 C98.2733414,17.2616769 97.650315,17.8768154 97.650315,18.6072923 L97.650315,18.6163385 C97.650315,19.3513385 98.2634124,19.9551692 99.0825312,19.9551692 C99.886756,19.9551692 100.509782,19.3422923 100.509782,18.6072923" id="Shape"></path>
            <path d="M98.4098608,17.9582308 C98.4098608,17.8587231 98.4892908,17.7795692 98.5985062,17.7795692 L99.1867824,17.7795692 C99.407696,17.7795692 99.5764843,17.8406308 99.6856996,17.9446615 C99.7800227,18.0328615 99.832148,18.1595077 99.832148,18.3065077 L99.832148,18.3110308 C99.832148,18.5598 99.6981106,18.7135846 99.4945722,18.795 L99.7527187,19.089 C99.7874688,19.1342308 99.8122908,19.1681538 99.8122908,19.2246923 C99.8122908,19.3196769 99.7229326,19.3852615 99.6335744,19.3852615 C99.5491802,19.3852615 99.4920901,19.3445538 99.449893,19.2948 L99.0825312,18.8651077 L98.7846696,18.8651077 L98.7846696,19.2111231 C98.7846696,19.3083692 98.7002754,19.3852615 98.5985062,19.3852615 C98.4892908,19.3852615 98.4098608,19.3083692 98.4098608,19.2111231 L98.4098608,17.9582308 L98.4098608,17.9582308 Z M99.1644425,18.5530154 C99.3481238,18.5530154 99.447411,18.4670769 99.447411,18.3313846 L99.447411,18.3246 C99.447411,18.1776 99.3381948,18.0984462 99.1569963,18.0984462 L98.7797055,18.0984462 L98.7797055,18.5530154 L99.1644425,18.5530154 L99.1644425,18.5530154 Z" id="Shape"></path>
        </g>
    </g>
</svg>