<?xml version="1.0" encoding="UTF-8"?>
<svg width="125px" height="26px" viewBox="0 0 125 26" version="1.1" xmlns="http://www.w3.org/2000/svg" xmlns:xlink="http://www.w3.org/1999/xlink">
    <!-- Generator: Sketch 46.1 (44463) - http://www.bohemiancoding.com/sketch -->
    <title>Group 3</title>
    <desc>Created with Sketch.</desc>
    <defs></defs>
    <g id="Page-1" stroke="none" stroke-width="1" fill="none" fill-rule="evenodd">
        <g id="Group-3" transform="translate(-1.000000, -2.000000)" fill-rule="nonzero" fill="#FFFFFF">
            <path d="M51.9519512,12.5748 C51.9519512,13.2104 51.3987805,13.7284 50.7134634,13.7284 C50.0250732,13.7284 49.4688293,13.2104 49.4688293,12.5748 L49.4688293,8.6352 C49.4688293,7.9996 50.0250732,7.4844 50.7134634,7.4844 C51.3987805,7.4844 51.9519512,7.9996 51.9519512,8.6352 L51.9519512,12.5748 Z" id="Shape"></path>
            <path d="M55.2586829,10.9704 C55.2586829,11.606 54.702439,12.124 54.0201951,12.124 C53.3379512,12.124 52.7786341,11.606 52.7786341,10.9704 L52.7786341,7.0336 C52.7786341,6.3952 53.334878,5.88 54.0201951,5.88 C54.7055122,5.88 55.2586829,6.3952 55.2586829,7.0336 L55.2586829,10.9704 Z" id="Shape"></path>
            <path d="M58.571561,8.834 C58.571561,9.4696 58.0153171,9.9876 57.3269268,9.9876 C56.6446829,9.9876 56.088439,9.4696 56.088439,8.834 L56.088439,4.8972 C56.088439,4.2616 56.6446829,3.7408 57.3269268,3.7408 C58.0153171,3.7408 58.571561,4.2616 58.571561,4.8972 L58.571561,8.834 Z" id="Shape"></path>
            <path d="M61.8813659,10.2452 C61.8813659,10.8836 61.3220488,11.3988 60.6367317,11.3988 C59.9544878,11.3988 59.3920976,10.8836 59.3920976,10.2452 L59.3920976,6.3056 C59.3920976,5.67 59.9514146,5.152 60.6367317,5.152 C61.3189756,5.152 61.8813659,5.67 61.8813659,6.3056 L61.8813659,10.2452 Z" id="Shape"></path>
            <path d="M65.1911707,7.7616 C65.1911707,8.3944 64.638,8.9124 63.9526829,8.9124 C63.2673659,8.9124 62.7080488,8.3972 62.7080488,7.7616 L62.7080488,3.822 C62.7080488,3.1864 63.2642927,2.6684 63.9526829,2.6684 C64.6410732,2.6684 65.1911707,3.1836 65.1911707,3.822 L65.1911707,7.7616 Z" id="Shape"></path>
            <path d="M68.507122,10.3236 C68.507122,10.9592 67.950878,11.4772 67.2594146,11.4772 C66.5802439,11.4772 66.0209268,10.9564 66.0209268,10.3236 L66.0209268,6.3868 C66.0209268,5.7512 66.5802439,5.2332 67.2594146,5.2332 C67.950878,5.2332 68.507122,5.754 68.507122,6.3868 L68.507122,10.3236 Z" id="Shape"></path>
            <path d="M71.8169268,12.5468 C71.8169268,13.1852 71.2606829,13.7004 70.5753659,13.7004 C69.8900488,13.7004 69.3307317,13.1852 69.3307317,12.5468 L69.3307317,8.6072 C69.3307317,7.9716 69.8869756,7.4536 70.5753659,7.4536 C71.2576098,7.4536 71.8169268,7.9688 71.8169268,8.6072 L71.8169268,12.5468 Z" id="Shape"></path>
            <path d="M75.1175122,10.8192 C75.1175122,11.4576 74.5612683,11.9728 73.8790244,11.9728 C73.1906341,11.9728 72.6374634,11.4576 72.6374634,10.8192 L72.6374634,6.8796 C72.6374634,6.244 73.1906341,5.726 73.8790244,5.726 C74.5612683,5.726 75.1175122,6.2412 75.1175122,6.8796 L75.1175122,10.8192 Z" id="Shape"></path>
            <path d="M78.4180976,9.4584 C78.4180976,10.094 77.8649268,10.612 77.1734634,10.612 C76.4912195,10.612 75.9380488,10.0968 75.9380488,9.4584 L75.9380488,5.5188 C75.9380488,4.8804 76.4912195,4.3652 77.1734634,4.3652 C77.8649268,4.3652 78.4180976,4.8804 78.4180976,5.5188 L78.4180976,9.4584 Z" id="Shape"></path>
            <path d="M118.904049,27.2356 C118.529122,27.2356 118.221805,27.1208 117.963659,26.8828 C117.708585,26.6448 117.585659,26.3732 117.585659,26.0512 L117.585659,20.7844 C117.585659,19.2528 117.49039,18.2392 117.287561,17.7016 C116.940293,16.8 116.144341,16.3212 114.998049,16.3212 C113.851756,16.3212 113.055805,16.7944 112.71161,17.696 C112.511854,18.242 112.413512,19.25 112.413512,20.7844 L112.413512,26.0512 C112.413512,26.3732 112.284439,26.6448 112.020146,26.88 C111.755854,27.1208 111.45161,27.2328 111.092049,27.2328 C110.738634,27.2328 110.44361,27.118 110.185463,26.88 C109.93039,26.6448 109.80439,26.3732 109.80439,26.0484 L109.80439,20.7816 C109.80439,19.25 109.709122,18.242 109.506293,17.6988 C109.260439,17.0688 108.661171,16.3184 107.170683,16.3184 C106.015171,16.3184 105.225366,16.7916 104.868878,17.6932 C104.669122,18.2364 104.57078,19.2472 104.57078,20.7816 L104.57078,26.0484 C104.57078,26.3704 104.44478,26.6448 104.189707,26.88 C103.928488,27.118 103.624244,27.2328 103.249317,27.2328 C102.892829,27.2328 102.594732,27.118 102.339659,26.88 C102.084585,26.6448 101.961659,26.3732 101.961659,26.0512 L101.961659,19.9192 C101.961659,18.564 102.385756,17.4468 103.215512,16.5984 C104.128244,15.6604 105.45278,15.1872 107.155317,15.1872 C108.882439,15.1872 110.087122,15.7276 110.843122,16.8308 C110.892293,16.9036 110.981415,16.9484 111.07361,16.9484 C111.168878,16.9484 111.258,16.9064 111.307171,16.8336 C112.106195,15.7248 113.310878,15.1844 114.998049,15.1844 C116.703659,15.1844 118.028195,15.6576 118.937854,16.5956 C119.773756,17.4412 120.197854,18.5612 120.197854,19.9164 L120.197854,26.0484 C120.197854,26.3704 120.071854,26.6392 119.81678,26.8772 C119.558634,27.1208 119.260537,27.2356 118.904049,27.2356" id="Shape"></path>
            <path d="M94.0298049,27.2356 C92.6376585,27.2356 91.5528293,26.8464 90.7138537,26.0456 C89.9609268,25.326 89.5890732,24.4916 89.5890732,23.492 C89.5890732,22.1788 90.1422439,21.1988 91.2731707,20.5016 C92.1797561,19.9248 93.3014634,19.6364 94.5952683,19.6364 C94.8288293,19.6364 95.0562439,19.642 95.2713659,19.6616 C95.6647317,19.6924 95.741561,19.8352 95.741561,20.0508 C95.741561,20.2384 95.6831707,20.4176 95.256,20.4736 C92.4962927,20.7872 91.9185366,22.302 91.9185366,23.5228 C91.9185366,24.1612 92.0906341,24.7324 92.4317561,25.2224 C92.8374146,25.8468 93.4459024,26.1604 94.2357073,26.1604 C96.0242927,26.1604 96.930878,24.514 96.930878,21.2716 C96.930878,19.8016 96.8110244,18.7768 96.5682439,18.1384 C96.1072683,16.9512 95.1515122,16.352 93.725561,16.352 C93.258439,16.352 92.6868293,16.45 91.98,16.6432 C91.1809756,16.8644 90.9689268,16.9064 90.9136098,16.912 C90.6155122,16.9092 90.4341951,16.7972 90.3358537,16.5508 C90.197561,16.2148 90.3174146,15.9936 90.7322927,15.8032 C91.6634634,15.3944 92.9634146,15.19 94.5983415,15.19 C96.6389268,15.19 97.991122,15.7696 98.7225366,16.9708 C99.2634146,17.8836 99.54,19.4348 99.54,21.5964 C99.54,25.3932 97.739122,27.2356 94.0298049,27.2356" id="Shape"></path>
            <path d="M83.6240488,27.2356 C81.9245854,27.2356 80.5600976,26.7316 79.5859024,25.7376 C78.5256585,24.6736 77.9847805,23.1504 77.9847805,21.2156 C77.9847805,19.3032 78.6578049,17.766 79.9823415,16.6488 C81.125561,15.6828 82.5330732,15.19 84.1587805,15.19 C85.4618049,15.19 86.4421463,15.5372 87.1520488,16.2484 C87.7636098,16.8672 88.0586341,17.584 88.0586341,18.4464 C88.0586341,19.6896 87.4900976,20.6136 86.3253659,21.2744 C85.3235122,21.812 84.0081951,22.1088 82.4162927,22.148 C82.3394634,22.1424 82.2226829,22.1284 82.0874634,22.008 C81.9522439,21.8904 81.9399512,21.7896 81.9399512,21.7252 C81.9399512,21.5516 82.007561,21.4452 82.1673659,21.3696 C82.2073171,21.3556 82.3486829,21.3164 82.8772683,21.2464 C85.3757561,20.8488 85.8981951,19.418 85.8981951,18.2868 C85.8981951,16.9624 85.2036585,16.2344 83.9467317,16.2344 C83.1016098,16.2344 82.3640488,16.6152 81.7586341,17.3656 C81.0302927,18.2728 80.6645854,19.5608 80.6645854,21.196 C80.6645854,22.8256 81.0794634,24.0968 81.9,24.9844 C82.5638049,25.6872 83.3413171,26.0428 84.1987317,26.0428 C85.086878,26.0428 86.0057561,25.8692 86.94,25.5332 L87.2596098,25.4576 C87.5269756,25.466 87.6806341,25.5528 87.7759024,25.7488 L87.7789756,25.7488 L87.7974146,25.7824 C87.8527317,25.858 87.8742439,25.9448 87.8742439,26.0512 C87.8742439,26.2052 87.8250732,26.432 87.3856098,26.6084 C86.4974634,27.0228 85.2313171,27.2356 83.6240488,27.2356" id="Shape"></path>
            <path d="M71.2668293,27.2356 C70.9134146,27.2356 70.6122439,27.1208 70.3602439,26.8828 C70.0990244,26.6476 69.9730244,26.376 69.9730244,26.054 L69.9730244,19.978 C69.9730244,16.7524 71.549561,15.1872 74.7948293,15.1872 C76.3713659,15.1872 77.4561951,15.4476 78.012439,15.9544 C78.1722439,16.0972 78.3043902,16.2988 78.0646829,16.6852 C77.9632683,16.842 77.8464878,16.9092 77.6713171,16.9092 C77.5883415,16.9092 77.4992195,16.8952 77.3978049,16.8644 C77.1181463,16.7496 76.8446341,16.6432 76.5526829,16.534 C76.1746829,16.3716 75.7137073,16.2876 75.1943415,16.2876 C74.1586829,16.2876 73.4487805,16.6488 73.0861463,17.36 C72.7511707,18.0096 72.5882927,19.0512 72.5882927,20.5324 L72.5882927,26.0484 C72.5882927,26.3704 72.4653659,26.6392 72.2102927,26.8772 C71.9521463,27.1208 71.6417561,27.2356 71.2668293,27.2356" id="Shape"></path>
            <path d="M67.4714634,27.2356 C66.798439,27.2356 66.1008293,27.0844 65.3878537,26.7904 C64.5826829,26.4516 63.9557561,26.0064 63.5255122,25.4604 C62.9569756,24.7212 62.6803902,23.6348 62.7019024,22.232 L62.7019024,17.08 C62.7019024,16.8448 62.5359512,16.6768 62.2962439,16.6768 L61.1745366,16.6768 C60.7074146,16.6768 60.516878,16.5032 60.516878,16.0804 C60.516878,15.638 60.7012683,15.456 61.1591707,15.456 L62.2962439,15.456 C62.5298049,15.456 62.7019024,15.2964 62.7019024,15.0808 L62.7019024,12.992 C62.7019024,12.6616 62.8279024,12.3844 63.0799024,12.1408 C63.3349756,11.8944 63.6269268,11.774 63.9741951,11.774 C64.296878,11.774 64.5826829,11.8944 64.8346829,12.1408 C65.0959024,12.3872 65.2157561,12.6644 65.2157561,12.992 L65.2157561,15.0808 C65.2157561,15.3048 65.3786341,15.456 65.6214146,15.456 L67.8002927,15.456 C68.2612683,15.456 68.4425854,15.6352 68.4425854,16.0804 C68.4425854,16.5116 68.2674146,16.6768 67.8125854,16.6768 L65.6490732,16.6768 C65.3970732,16.6768 65.2188293,16.842 65.2188293,17.08 L65.2188293,21.2268 C65.2188293,23.534 65.430878,24.2116 65.5937561,24.5224 C66.113122,25.5136 67.0381463,26.124 68.3350244,26.334 C68.8236585,26.4124 68.8236585,26.6364 68.8236585,26.7596 C68.8236585,26.9416 68.7867805,27.1404 68.328878,27.1796 C68.1045366,27.2188 67.8310244,27.2356 67.4714634,27.2356" id="Shape"></path>
            <path d="M54.9237073,27.2356 C53.2488293,27.2356 51.948878,27.0172 51.0699512,26.5888 C50.8394634,26.4796 50.7380488,26.3172 50.7380488,26.0792 C50.7380488,25.97 50.7687805,25.8692 50.8333171,25.7684 C50.9961951,25.5192 51.1836585,25.4912 51.3035122,25.4912 C51.4172195,25.4912 51.5555122,25.5192 51.7153171,25.5808 C52.7294634,25.984 53.7528293,26.1912 54.7608293,26.1912 C55.4184878,26.1912 55.9962439,26.0596 56.4787317,25.8048 C57.0995122,25.438 57.4129756,24.92 57.4129756,24.2592 C57.4129756,23.7244 56.9673659,23.2484 56.0546341,22.8172 L53.9710244,21.8204 L53.6176098,21.6552 C52.8278049,21.28 52.2561951,20.93 51.9181463,20.6192 C51.2082439,19.978 50.8640488,19.222 50.8640488,18.3092 C50.8640488,17.4076 51.2697073,16.6824 52.0963902,16.0944 C52.9415122,15.4952 54.0478537,15.1928 55.3908293,15.1928 C56.6200976,15.1928 57.7325854,15.3692 58.7067805,15.7248 C59.2599512,15.9264 59.3244878,16.1952 59.3244878,16.3856 C59.3244878,16.492 59.2937561,16.5844 59.2230732,16.6712 C59.0417561,16.912 58.8696585,16.94 58.7559512,16.94 C58.6637561,16.94 58.5592683,16.9176 58.445561,16.8756 C57.3054146,16.4668 56.4234146,16.268 55.7442439,16.268 C53.5807317,16.268 53.1320488,17.2368 53.1320488,18.0488 C53.1320488,18.6536 53.5930244,19.2024 54.5057561,19.6812 C55.2894146,19.9976 56.0607805,20.3196 56.8352195,20.6612 C57.852439,21.1148 58.5838537,21.5516 58.9956585,21.952 C59.4996585,22.4756 59.742439,23.1252 59.742439,23.9456 C59.742439,24.9424 59.2937561,25.718 58.374878,26.32 C57.4314146,26.9248 56.2728293,27.2356 54.9237073,27.2356" id="Shape"></path>
            <path d="M43.722,27.2356 C42.0563415,27.2356 40.7195122,26.7624 39.7453171,25.8188 C38.8141463,24.9396 38.3654634,23.8644 38.3654634,22.5344 L38.3654634,16.3716 C38.3654634,16.0524 38.4883902,15.7836 38.7465366,15.5428 C38.9985366,15.3076 39.2997073,15.19 39.653122,15.19 C40.031122,15.19 40.3353659,15.3048 40.5935122,15.5428 C40.8485854,15.778 40.9745854,16.0524 40.9745854,16.3716 L40.9745854,21.7392 C40.9745854,23.1308 41.0698537,24.0688 41.2726829,24.6092 C41.6629756,25.6452 42.5080976,26.1912 43.722,26.1912 C44.9328293,26.1912 45.7718049,25.6396 46.134439,24.6064 C46.3341951,24.0632 46.4325366,23.1224 46.4325366,21.7392 L46.4325366,16.3716 C46.4325366,16.0496 46.5616098,15.7808 46.8259024,15.5456 C47.0932683,15.3076 47.3975122,15.1928 47.754,15.1928 C48.1104878,15.1928 48.4085854,15.3076 48.6605854,15.5456 C48.9218049,15.7864 49.0416585,16.0552 49.0416585,16.3744 L49.0416585,22.5372 C49.0416585,23.8644 48.5929756,24.9396 47.6710244,25.8188 C46.6876098,26.7596 45.36,27.2356 43.722,27.2356" id="Shape"></path>
            <path d="M35.9837561,27.2356 C35.3107317,27.2356 34.613122,27.0844 33.9001463,26.7904 C33.0949756,26.4544 32.4680488,26.0064 32.040878,25.4576 C31.4723415,24.7212 31.1957561,23.6376 31.2172683,22.232 L31.2172683,17.08 C31.2172683,16.8448 31.0513171,16.6768 30.8085366,16.6768 L29.6837561,16.6768 C29.4686341,16.6768 29.3057561,16.6348 29.2012683,16.5564 C29.1520976,16.5144 29.0906341,16.4892 29.0199512,16.4892 C29.0199512,16.4892 28.9861463,16.4892 28.9707805,16.4948 C28.8816585,16.5088 28.8109756,16.5564 28.7740976,16.6292 C28.7587317,16.6544 28.7495122,16.6768 28.7341463,16.6936 C28.6450244,16.8392 28.5220976,16.912 28.3438537,16.912 C28.2700976,16.912 28.1840488,16.898 28.0734146,16.8672 C27.7937561,16.7524 27.5171707,16.646 27.2282927,16.5368 C26.8472195,16.3744 26.3893171,16.2904 25.866878,16.2904 C24.8342927,16.2904 24.1305366,16.6516 23.7617561,17.3628 C23.4237073,18.0152 23.2639024,19.054 23.2639024,20.5352 L23.2639024,26.0512 C23.2639024,26.3732 23.1379024,26.6448 22.8828293,26.88 C22.6277561,27.118 22.3235122,27.2328 21.942439,27.2328 C21.5859512,27.2328 21.294,27.118 21.0358537,26.88 C20.7746341,26.6448 20.6547805,26.3732 20.6547805,26.0512 L20.6547805,19.9752 C20.6547805,16.7496 22.2282439,15.1844 25.4735122,15.1844 C26.9947317,15.1844 28.0580488,15.4252 28.6265854,15.8984 C28.6819024,15.9404 28.746439,15.9628 28.8109756,15.9628 C28.8109756,15.9628 28.8570732,15.96 28.8847317,15.9516 C28.9769268,15.9292 29.0476098,15.8648 29.0752683,15.778 C29.1305854,15.6156 29.2473659,15.4532 29.6776098,15.4532 L30.8177561,15.4532 C31.0513171,15.4532 31.2234146,15.2936 31.2234146,15.078 L31.2234146,12.9892 C31.2234146,12.6588 31.3463415,12.3844 31.6014146,12.138 C31.8564878,11.8916 32.1515122,11.7712 32.4957073,11.7712 C32.8153171,11.7712 33.0980488,11.8916 33.353122,12.138 C33.6081951,12.3844 33.7341951,12.6616 33.7341951,12.9892 L33.7341951,15.078 C33.7341951,15.2964 33.8970732,15.4532 34.1398537,15.4532 L36.3218049,15.4532 C36.773561,15.4532 36.9610244,15.6324 36.9610244,16.0776 C36.9610244,16.5088 36.7827805,16.674 36.3310244,16.674 L34.1675122,16.674 C33.912439,16.674 33.7372683,16.8336 33.7372683,17.0772 L33.7372683,21.224 C33.7372683,23.5396 33.9523902,24.2116 34.1121951,24.5196 C34.631561,25.5108 35.5535122,26.1212 36.8534634,26.3312 C37.3420976,26.4096 37.3420976,26.6336 37.3420976,26.7568 C37.3420976,26.9388 37.3052195,27.1376 36.8473171,27.1768 C36.6168293,27.2188 36.3402439,27.2356 35.9837561,27.2356" id="Shape"></path>
            <path d="M16.0573171,27.2356 C15.7008293,27.2356 15.3965854,27.1152 15.1476585,26.8828 C14.8956585,26.656 14.7696585,26.3816 14.7696585,26.054 L14.7696585,16.3996 C14.7696585,16.0552 14.8956585,15.778 15.1507317,15.5428 C15.3996585,15.3076 15.7008293,15.19 16.0573171,15.19 C16.4138049,15.19 16.7149756,15.3048 16.9823415,15.5428 C17.2466341,15.778 17.3787805,16.058 17.3787805,16.3996 L17.3787805,26.054 C17.3787805,26.376 17.2466341,26.6448 16.9823415,26.88 C16.7149756,27.1208 16.4138049,27.2356 16.0573171,27.2356" id="Shape"></path>
            <path d="M6.86546341,27.2356 C5.70073171,27.2356 4.44380488,25.8692 3.22990244,23.282 C2.14814634,20.9664 1.47512195,18.6592 1.22619512,16.4332 C1.19239024,16.1168 1.30917073,15.8368 1.57346341,15.5792 C1.85312195,15.316 2.1635122,15.1872 2.52614634,15.1872 C3.32209756,15.1872 3.72468293,15.5708 3.83531707,16.4276 C3.98282927,17.5672 4.24097561,18.7376 4.60360976,19.8968 C5.02463415,21.2716 5.48868293,22.4784 5.97731707,23.4808 C6.70873171,25.0096 7.09595122,25.2168 7.40019512,25.2168 C7.68907317,25.2168 7.9902439,24.962 8.66326829,23.6656 C9.19492683,22.6184 9.702,21.3612 10.1660488,19.936 C10.5071707,18.9112 10.8267805,17.5056 11.1218049,15.7612 C11.1894146,15.358 11.4199024,15.1872 11.8931707,15.1872 C12.1205854,15.1872 12.4156098,15.2152 12.5508293,15.3608 C12.6338049,15.4504 12.6614634,15.5876 12.6338049,15.778 C12.3264878,18.2644 11.5305366,20.8152 10.2828293,23.3632 C8.72473171,26.5636 7.56307317,27.2356 6.86546341,27.2356" id="Shape"></path>
            <path d="M16.0726829,11.5276 C15.660878,11.5276 15.3228293,11.3988 15.0370244,11.1328 C14.7481463,10.8696 14.6098537,10.5532 14.6098537,10.1696 C14.6098537,9.7804 14.7481463,9.4696 15.0370244,9.2036 C15.3228293,8.9376 15.660878,8.8088 16.0726829,8.8088 C16.4660488,8.8088 16.7918049,8.9376 17.0776098,9.2036 C17.3634146,9.4696 17.5017073,9.7832 17.5017073,10.1696 C17.5017073,10.5532 17.3634146,10.8696 17.0776098,11.1328 C16.7918049,11.3988 16.4660488,11.5276 16.0726829,11.5276" id="Shape"></path>
            <path d="M121.488585,25.0516 L121.488585,25.0376 C121.488585,23.9288 122.456634,22.9936 123.67361,22.9936 C124.902878,22.9936 125.858634,23.9204 125.858634,25.032 L125.858634,25.0376 C125.858634,26.152 124.896732,27.0872 123.67361,27.0872 C122.438195,27.0872 121.488585,26.1632 121.488585,25.0516 M125.440683,25.0376 L125.440683,25.032 C125.440683,24.1192 124.684683,23.3716 123.67361,23.3716 C122.671756,23.3716 121.90039,24.1332 121.90039,25.0376 L121.90039,25.0488 C121.90039,25.9588 122.659463,26.7064 123.67361,26.7064 C124.669317,26.7064 125.440683,25.9476 125.440683,25.0376" id="Shape"></path>
            <path d="M122.84078,24.234 C122.84078,24.1108 122.939122,24.0128 123.074341,24.0128 L123.802683,24.0128 C124.076195,24.0128 124.285171,24.0884 124.42039,24.2172 C124.537171,24.3264 124.601707,24.4832 124.601707,24.6652 L124.601707,24.6708 C124.601707,24.9788 124.435756,25.1692 124.183756,25.27 L124.503366,25.634 C124.54639,25.69 124.577122,25.732 124.577122,25.802 C124.577122,25.9196 124.466488,26.0008 124.355854,26.0008 C124.251366,26.0008 124.180683,25.9504 124.128439,25.8888 L123.67361,25.3568 L123.304829,25.3568 L123.304829,25.7852 C123.304829,25.9056 123.200341,26.0008 123.074341,26.0008 C122.939122,26.0008 122.84078,25.9056 122.84078,25.7852 L122.84078,24.234 L122.84078,24.234 Z M123.775024,24.9704 C124.002439,24.9704 124.125366,24.864 124.125366,24.696 L124.125366,24.6876 C124.125366,24.5056 123.990146,24.4076 123.765805,24.4076 L123.298683,24.4076 L123.298683,24.9704 L123.775024,24.9704 L123.775024,24.9704 Z" id="Shape"></path>
        </g>
    </g>
</svg>