<?xml version="1.0" encoding="UTF-8"?>
<svg width="102px" height="18px" viewBox="0 0 102 18" version="1.1" xmlns="http://www.w3.org/2000/svg" xmlns:xlink="http://www.w3.org/1999/xlink">
    <!-- Generator: Sketch 46.2 (44496) - http://www.bohemiancoding.com/sketch -->
    <title>VMWARE</title>
    <desc>Created with Sketch.</desc>
    <defs></defs>
    <g id="Page-1" stroke="none" stroke-width="1" fill="none" fill-rule="evenodd">
        <g id="VMWARE" fill-rule="nonzero" fill="#FFFFFF">
            <path d="M44.069537,16.2282857 L39.6618584,2.88514285 C39.6062791,2.7 39.5217019,2.45828572 39.5217019,2.24485715 C39.5217019,1.66885715 39.9687527,1.116 40.6139556,1.116 C41.1745814,1.116 41.5418879,1.51457143 41.7134588,2.09571428 L45.3647759,13.5874285 L49.0450909,2.05971428 C49.2166618,1.512 49.5525539,1.116 50.1107632,1.116 L50.2243382,1.116 C50.8163785,1.116 51.183685,1.51457143 51.3504228,2.05971428 L54.9993234,13.5874285 L58.7158859,2.02885715 C58.8560423,1.54028572 59.1629366,1.11342857 59.7549768,1.11342857 C60.3711818,1.11342857 60.8230655,1.62771428 60.8230655,2.21142857 C60.8230655,2.42485715 60.7360718,2.66914285 60.6829091,2.85428572 L56.2438161,16.2257143 C56.016666,16.9277143 55.5671987,17.2928572 55.0621522,17.2928572 L54.9799915,17.2928572 C54.4145328,17.2928572 53.9940634,16.9277143 53.7959112,16.2257143 L50.173592,4.88828572 L46.5150254,16.2257143 C46.3217061,16.9277143 45.8964038,17.2928572 45.335778,17.2928572 L45.2801987,17.2928572 C44.7437378,17.2954285 44.2966871,16.9277143 44.069537,16.2282857" id="Shape"></path>
            <path d="M76.2306089,2.28085715 C76.2306089,1.638 76.709074,1.08771428 77.2962812,1.08771428 C77.9221522,1.08771428 78.4006173,1.60714285 78.4006173,2.28085715 L78.4006173,4.98857143 C79.4687061,2.358 81.8392835,1.116 83.4075859,1.116 C84.0624545,1.116 84.48534,1.638 84.48534,2.30914285 C84.48534,2.952 84.0914525,3.40971428 83.521161,3.50228572 C80.7035328,3.87257143 78.4006173,6.16628572 78.4006173,10.7202857 L78.4006173,16.0817143 C78.4006173,16.7245715 77.9487336,17.2748572 77.3325286,17.2748572 C76.713907,17.2748572 76.2330254,16.7528572 76.2330254,16.0817143 L76.2330254,2.28085715 L76.2306089,2.28085715 Z" id="Shape"></path>
            <path d="M91.4375839,17.4214285 C87.5204525,17.4214285 84.3210188,14.1222857 84.3210188,9.28285715 L84.3210188,9.21857146 C84.3210188,4.71085715 87.2159744,1.08 91.1645198,1.08 C95.3837125,1.08 97.7832875,4.86 97.7832875,9.00514285 C97.7832875,9.64285715 97.3096552,10.098 96.7901097,10.098 L86.4765286,10.098 C86.7737569,13.4845715 88.9558478,15.39 91.497996,15.39 C93.2620336,15.39 94.5548566,14.6314285 95.6060296,13.5745715 C95.7727677,13.4254285 95.9660869,13.3045715 96.2174021,13.3045715 C96.7393636,13.3045715 97.155,13.7597143 97.155,14.3074285 C97.155,14.58 97.0438418,14.85 96.8191077,15.0608572 C95.4658735,16.4802857 93.8637401,17.4214285 91.4375839,17.4214285 L91.4375839,17.4214285 Z M95.6591926,8.37 C95.4368755,5.526 93.9459003,3.04714285 91.1089407,3.04714285 C88.6223725,3.04714285 86.7471758,5.31514285 86.4765286,8.37 L95.6591926,8.37 Z" id="Shape"></path>
            <path d="M60.8641459,12.5228572 L60.8641459,12.4585715 C60.8641459,9.13885715 63.391795,7.36457143 67.0648605,7.36457143 C68.9183087,7.36457143 70.2377125,7.63971428 71.5305349,8.04085715 L71.5305349,7.488 C71.5305349,4.65428572 69.9284017,3.19114285 67.2098499,3.19114285 C65.7454566,3.19114285 64.8972685,3.39171428 63.8267632,3.90857143 C63.6914397,3.96771428 63.5512833,4.00114285 63.4377082,4.00114285 C62.9326618,4.00114285 62.480778,3.54342857 62.480778,2.99571428 C62.480778,2.50971428 62.6789302,2.20885715 63.0728182,2.01857143 C64.500964,1.34228572 65.5763024,1.11857143 67.432167,1.11857143 C69.4789345,1.11857143 71.0520698,1.69714285 72.1177421,2.85685715 C73.1012537,3.92657143 73.6087167,5.44885715 73.6087167,7.45971428 L73.6087167,16.1562857 C73.6087167,16.8248572 73.156833,17.316 72.5672093,17.316 C71.9510042,17.316 71.5329514,16.8274285 71.5329514,16.218 L71.5329514,14.7137143 C70.5228584,16.1485715 68.836148,17.4265715 66.284334,17.4265715 C63.5899471,17.4265715 60.8641459,15.7551428 60.8641459,12.5228572 M71.5595328,11.304 L71.5595328,9.77914285 C70.491444,9.44485715 69.0536321,9.108 67.2895941,9.108 C64.5710423,9.108 63.0534863,10.3885715 63.0534863,12.3685715 L63.0534863,12.4302857 C63.0534863,14.4102857 64.7377801,15.57 66.7023869,15.57 C69.3677759,15.5674285 71.5595328,13.8008572 71.5595328,11.304" id="Shape"></path>
            <path d="M4.74598731,2.10857143 C4.26993869,0.977142854 3.09310783,0.465428572 1.99843763,0.995142854 C0.898934457,1.52485715 0.49779704,2.84657143 0.990761097,3.978 L5.59417547,14.8525715 C6.3239556,16.5574285 7.08515011,17.4497143 8.51812895,17.4497143 C10.0477675,17.4497143 10.7171353,16.4777143 11.439666,14.8525715 C11.439666,14.8525715 15.4558731,5.35371428 15.494537,5.256 C15.5356173,5.15057143 15.6661078,4.84457143 16.0744948,4.84971428 C16.4176364,4.85228572 16.7100317,5.15057143 16.7100317,5.55428572 L16.7100317,14.8448572 C16.7100317,16.2771428 17.4422284,17.4497143 18.8462093,17.4497143 C20.2526067,17.4497143 21.0113848,16.2771428 21.0113848,14.8448572 L21.0113848,7.24371428 C21.0113848,5.77542857 21.9803974,4.82142857 23.2973848,4.82142857 C24.6167885,4.82142857 25.4963911,5.80628572 25.4963911,7.24371428 L25.4963911,14.8448572 C25.4963911,16.2771428 26.2310042,17.4497143 27.6325687,17.4497143 C29.0389662,17.4497143 29.8049937,16.2771428 29.8049937,14.8448572 L29.8049937,7.24371428 C29.8049937,5.77542857 30.7691733,4.82142857 32.0885772,4.82142857 C33.4055645,4.82142857 34.2827505,5.80628572 34.2827505,7.24371428 L34.2827505,14.8448572 C34.2827505,16.2771428 35.0173636,17.4497143 36.4261776,17.4497143 C37.8277421,17.4497143 38.5961861,16.2771428 38.5961861,14.8448572 L38.5961861,6.192 C38.5961861,3.01114285 36.2376913,0.784285715 33.4055645,0.784285715 C30.5734376,0.784285715 28.8021501,2.90828572 28.8021501,2.90828572 C27.8597188,1.584 26.5620634,0.786857143 24.3654736,0.786857143 C22.0456427,0.786857143 20.0157907,2.90828572 20.0157907,2.90828572 C19.0757759,1.584 17.4712262,0.786857143 16.1397399,0.786857143 C14.085723,0.786857143 12.454592,1.76914285 11.4565814,4.24285715 L8.51571245,11.772 L4.74598731,2.10857143 Z" id="Shape"></path>
            <path d="M97.9596916,3.05228572 L97.9596916,3.03685715 C97.9596916,1.97228572 98.7547165,1.07485715 99.7551434,1.07485715 C100.765237,1.07485715 101.550596,1.962 101.550596,3.02914285 L101.550596,3.03428572 C101.550596,4.10142857 100.760404,4.99885715 99.7551434,4.99885715 C98.7378014,5.00142857 97.9596916,4.11685715 97.9596916,3.05228572 M101.205038,3.03685715 L101.205038,3.03171428 C101.205038,2.15742857 100.584,1.43742857 99.7551434,1.43742857 C98.9311205,1.43742857 98.298,2.16771428 98.298,3.03428572 L98.298,3.04457143 C98.298,3.91628572 98.9214545,4.63371428 99.7551434,4.63371428 C100.571918,4.63885715 101.205038,3.91114285 101.205038,3.03685715" id="Shape"></path>
            <path d="M99.0688606,2.26542857 C99.0688606,2.14714285 99.1510208,2.05457143 99.2621798,2.05457143 L99.8614694,2.05457143 C100.086203,2.05457143 100.257774,2.12657143 100.368933,2.25 C100.465592,2.35542857 100.518755,2.50457143 100.518755,2.67942857 L100.518755,2.68457143 C100.518755,2.98028572 100.381015,3.16285715 100.173197,3.258 L100.436594,3.60771428 C100.470425,3.66171428 100.497006,3.70285715 100.497006,3.76714285 C100.497006,3.88028572 100.407596,3.95742857 100.31577,3.95742857 C100.231193,3.95742857 100.173197,3.91114285 100.1297,3.84942857 L99.7551434,3.34028572 L99.450666,3.34028572 L99.450666,3.75171428 C99.450666,3.86742857 99.3660889,3.95742857 99.2621798,3.95742857 C99.1510208,3.95742857 99.0688606,3.86742857 99.0688606,3.75171428 L99.0688606,2.26542857 L99.0688606,2.26542857 Z M99.8348883,2.97257143 C100.020958,2.97257143 100.124867,2.87228572 100.124867,2.71028572 L100.124867,2.70257143 C100.124867,2.52771428 100.013708,2.43257143 99.8300553,2.43257143 L99.4482491,2.43257143 L99.4482491,2.97257143 L99.8348883,2.97257143 L99.8348883,2.97257143 Z" id="Shape"></path>
        </g>
    </g>
</svg>