<?xml version="1.0" encoding="UTF-8"?>
<svg width="125px" height="22px" viewBox="0 0 125 22" version="1.1" xmlns="http://www.w3.org/2000/svg" xmlns:xlink="http://www.w3.org/1999/xlink">
    <!-- Generator: Sketch 46.1 (44463) - http://www.bohemiancoding.com/sketch -->
    <title>Group 2</title>
    <desc>Created with Sketch.</desc>
    <defs></defs>
    <g id="Page-1" stroke="none" stroke-width="1" fill="none" fill-rule="evenodd">
        <g id="Group-2" fill-rule="nonzero" fill="#FFFFFF">
            <path d="M53.8627674,19.8345714 L48.4756047,3.52628571 C48.4076744,3.3 48.3043023,3.00457143 48.3043023,2.74371429 C48.3043023,2.03971429 48.8506977,1.364 49.6392791,1.364 C50.3244884,1.364 50.7734186,1.85114286 50.9831163,2.56142857 L55.4458372,16.6068571 L59.944,2.51742857 C60.1536977,1.848 60.5642326,1.364 61.2464884,1.364 L61.3853023,1.364 C62.108907,1.364 62.5578372,1.85114286 62.7616279,2.51742857 L67.2213953,16.6068571 L71.7638605,2.47971429 C71.9351628,1.88257143 72.3102558,1.36085714 73.0338605,1.36085714 C73.787,1.36085714 74.3393023,1.98942857 74.3393023,2.70285714 C74.3393023,2.96371429 74.2329767,3.26228571 74.168,3.48857143 L68.7424419,19.8314286 C68.464814,20.6894286 67.9154651,21.1357143 67.298186,21.1357143 L67.1977674,21.1357143 C66.5066512,21.1357143 65.9927442,20.6894286 65.7505581,19.8314286 L61.3232791,5.97457143 L56.8516977,19.8314286 C56.6154186,20.6894286 56.0956047,21.1357143 55.4103953,21.1357143 L55.3424651,21.1357143 C54.6867907,21.1388571 54.1403953,20.6894286 53.8627674,19.8345714" id="Shape"></path>
            <path d="M93.1707442,2.78771429 C93.1707442,2.002 93.7555349,1.32942857 94.4732326,1.32942857 C95.238186,1.32942857 95.8229767,1.96428571 95.8229767,2.78771429 L95.8229767,6.09714286 C97.1284186,2.882 100.025791,1.364 101.942605,1.364 C102.743,1.364 103.25986,2.002 103.25986,2.82228571 C103.25986,3.608 102.778442,4.16742857 102.081419,4.28057143 C98.6376512,4.73314286 95.8229767,7.53657143 95.8229767,13.1025714 L95.8229767,19.6554286 C95.8229767,20.4411429 95.2706744,21.1137143 94.5175349,21.1137143 C93.7614419,21.1137143 93.1736977,20.4757143 93.1736977,19.6554286 L93.1736977,2.78771429 L93.1707442,2.78771429 Z" id="Shape"></path>
            <path d="M111.757047,21.2928571 C106.969442,21.2928571 103.059023,17.2605714 103.059023,11.3457143 L103.059023,11.2671429 C103.059023,5.75771429 106.597302,1.32 111.423302,1.32 C116.580093,1.32 119.512907,5.94 119.512907,11.0062857 C119.512907,11.7857143 118.934023,12.342 118.299023,12.342 L105.693535,12.342 C106.056814,16.4811429 108.723814,18.81 111.830884,18.81 C113.98693,18.81 115.567047,17.8828571 116.851814,16.5911429 C117.055605,16.4088571 117.291884,16.2611429 117.599047,16.2611429 C118.237,16.2611429 118.745,16.8174286 118.745,17.4868571 C118.745,17.82 118.60914,18.15 118.334465,18.4077143 C116.680512,20.1425714 114.722349,21.2928571 111.757047,21.2928571 L111.757047,21.2928571 Z M116.916791,10.23 C116.64507,6.754 114.822767,3.72428571 111.355372,3.72428571 C108.316233,3.72428571 106.024326,6.49628571 105.693535,10.23 L116.916791,10.23 Z" id="Shape"></path>
            <path d="M74.3895116,15.3057143 L74.3895116,15.2271429 C74.3895116,11.1697143 77.4788605,9.00114286 81.9681628,9.00114286 C84.2334884,9.00114286 85.846093,9.33742857 87.4262093,9.82771429 L87.4262093,9.152 C87.4262093,5.68857143 85.4680465,3.90028571 82.1453721,3.90028571 C80.3555581,3.90028571 79.3188837,4.14542857 78.0104884,4.77714286 C77.845093,4.84942857 77.6737907,4.89028571 77.5349767,4.89028571 C76.9176977,4.89028571 76.3653953,4.33085714 76.3653953,3.66142857 C76.3653953,3.06742857 76.6075814,2.69971429 77.089,2.46714286 C78.8345116,1.64057143 80.148814,1.36714286 82.417093,1.36714286 C84.9186977,1.36714286 86.8414186,2.07428571 88.143907,3.49171429 C89.3459767,4.79914286 89.9662093,6.65971429 89.9662093,9.11742857 L89.9662093,19.7465714 C89.9662093,20.5637143 89.413907,21.164 88.6932558,21.164 C87.9401163,21.164 87.4291628,20.5668571 87.4291628,19.822 L87.4291628,17.9834286 C86.1946047,19.7371429 84.1330698,21.2991429 81.014186,21.2991429 C77.7210465,21.2991429 74.3895116,19.2562857 74.3895116,15.3057143 M87.4616512,13.816 L87.4616512,11.9522857 C86.1562093,11.5437143 84.3988837,11.132 82.2428372,11.132 C78.9201628,11.132 77.0653721,12.6971429 77.0653721,15.1171429 L77.0653721,15.1925714 C77.0653721,17.6125714 79.1239535,19.03 81.5251395,19.03 C84.7828372,19.0268571 87.4616512,16.8677143 87.4616512,13.816" id="Shape"></path>
            <path d="M5.80065116,2.57714286 C5.21881395,1.19428571 3.78046512,0.568857143 2.44253488,1.21628571 C1.09869767,1.86371429 0.608418605,3.47914286 1.21093023,4.862 L6.83732558,18.1531429 C7.72927907,20.2368571 8.65962791,21.3274286 10.4110465,21.3274286 C12.2806047,21.3274286 13.0987209,20.1394286 13.981814,18.1531429 C13.981814,18.1531429 18.8905116,6.54342857 18.9377674,6.424 C18.9879767,6.29514286 19.1474651,5.92114286 19.6466047,5.92742857 C20.066,5.93057143 20.4233721,6.29514286 20.4233721,6.78857143 L20.4233721,18.1437143 C20.4233721,19.8942857 21.3182791,21.3274286 23.0342558,21.3274286 C24.753186,21.3274286 25.6805814,19.8942857 25.6805814,18.1437143 L25.6805814,8.85342857 C25.6805814,7.05885714 26.8649302,5.89285714 28.4745814,5.89285714 C30.087186,5.89285714 31.1622558,7.09657143 31.1622558,8.85342857 L31.1622558,18.1437143 C31.1622558,19.8942857 32.0601163,21.3274286 33.7731395,21.3274286 C35.4920698,21.3274286 36.4283256,19.8942857 36.4283256,18.1437143 L36.4283256,8.85342857 C36.4283256,7.05885714 37.6067674,5.89285714 39.2193721,5.89285714 C40.8290233,5.89285714 41.9011395,7.09657143 41.9011395,8.85342857 L41.9011395,18.1437143 C41.9011395,19.8942857 42.799,21.3274286 44.5208837,21.3274286 C46.233907,21.3274286 47.1731163,19.8942857 47.1731163,18.1437143 L47.1731163,7.568 C47.1731163,3.68028571 44.2905116,0.958571429 40.8290233,0.958571429 C37.3675349,0.958571429 35.2026279,3.55457143 35.2026279,3.55457143 C34.0507674,1.936 32.4647442,0.961714286 29.7800233,0.961714286 C26.9446744,0.961714286 24.4637442,3.55457143 24.4637442,3.55457143 C23.3148372,1.936 21.3537209,0.961714286 19.7263488,0.961714286 C17.2158837,0.961714286 15.2222791,2.16228571 14.0024884,5.18571429 L10.408093,14.388 L5.80065116,2.57714286 Z" id="Shape"></path>
            <path d="M119.728512,3.73057143 L119.728512,3.71171429 C119.728512,2.41057143 120.700209,1.31371429 121.922953,1.31371429 C123.157512,1.31371429 124.117395,2.398 124.117395,3.70228571 L124.117395,3.70857143 C124.117395,5.01285714 123.151605,6.10971429 121.922953,6.10971429 C120.679535,6.11285714 119.728512,5.03171429 119.728512,3.73057143 M123.695047,3.71171429 L123.695047,3.70542857 C123.695047,2.63685714 122.936,1.75685714 121.922953,1.75685714 C120.915814,1.75685714 120.142,2.64942857 120.142,3.70857143 L120.142,3.72114286 C120.142,4.78657143 120.904,5.66342857 121.922953,5.66342857 C122.921233,5.66971429 123.695047,4.78028571 123.695047,3.71171429" id="Shape"></path>
            <path d="M121.084163,2.76885714 C121.084163,2.62428571 121.184581,2.51114286 121.320442,2.51114286 L122.052907,2.51114286 C122.327581,2.51114286 122.537279,2.59914286 122.67314,2.75 C122.791279,2.87885714 122.856256,3.06114286 122.856256,3.27485714 L122.856256,3.28114286 C122.856256,3.64257143 122.687907,3.86571429 122.433907,3.982 L122.755837,4.40942857 C122.797186,4.47542857 122.829674,4.52571429 122.829674,4.60428571 C122.829674,4.74257143 122.720395,4.83685714 122.608163,4.83685714 C122.504791,4.83685714 122.433907,4.78028571 122.380744,4.70485714 L121.922953,4.08257143 L121.550814,4.08257143 L121.550814,4.58542857 C121.550814,4.72685714 121.447442,4.83685714 121.320442,4.83685714 C121.184581,4.83685714 121.084163,4.72685714 121.084163,4.58542857 L121.084163,2.76885714 L121.084163,2.76885714 Z M122.020419,3.63314286 C122.247837,3.63314286 122.374837,3.51057143 122.374837,3.31257143 L122.374837,3.30314286 C122.374837,3.08942857 122.238977,2.97314286 122.014512,2.97314286 L121.54786,2.97314286 L121.54786,3.63314286 L122.020419,3.63314286 L122.020419,3.63314286 Z" id="Shape"></path>
        </g>
    </g>
</svg>