<?xml version="1.0" encoding="UTF-8"?>
<svg width="97px" height="52px" viewBox="0 0 97 52" version="1.1" xmlns="http://www.w3.org/2000/svg" xmlns:xlink="http://www.w3.org/1999/xlink">
    <!-- Generator: Sketch 45.2 (43514) - http://www.bohemiancoding.com/sketch -->
    <title>vrHeadset</title>
    <desc>Created with Sketch.</desc>
    <defs></defs>
    <g id="Page-1" stroke="none" stroke-width="1" fill="none" fill-rule="evenodd">
        <g id="vrHeadset" fill-rule="nonzero" fill="#4D4D4F">
            <path d="M17.8813993,4.77367123 L79.1264176,4.77367123 L79.1264176,3.55184932 C79.1264176,2.42654795 78.215044,1.51084932 77.0951026,1.51084932 L19.9134249,1.51084932 C18.7927729,1.51084932 17.8813993,2.42636986 17.8813993,3.55184932 L17.8813993,4.77367123 Z M3.64265201,13.0170959 C2.522,13.0170959 1.60991575,13.9326164 1.60991575,15.0580959 L1.60991575,19.7170822 C1.60991575,20.8423836 2.522,21.7586164 3.64265201,21.7586164 L4.98661722,21.7586164 L4.72723993,18.7189315 C4.49664286,16.7785479 4.73132601,14.8260548 5.38385531,13.0170959 L3.64265201,13.0170959 L3.64265201,13.0170959 Z M92.0220879,21.7586164 L93.3580586,21.7586164 C94.478,21.7586164 95.3900842,20.8423836 95.3900842,19.7170822 L95.3900842,15.0580959 C95.3900842,13.9327945 94.478,13.0170959 93.3580586,13.0170959 L91.6236062,13.0170959 C92.2761355,14.8294384 92.5108187,16.7892329 92.279511,18.7436849 L92.0220879,21.7586164 Z M42.9779286,47.8141781 L54.0307766,47.8141781 C53.8055092,46.5782877 52.7228755,45.6492329 51.4437546,45.6492329 L45.5649505,45.6492329 C44.285119,45.6492329 43.202663,46.5782877 42.9779286,47.8141781 L42.9779286,47.8141781 Z M45.5649505,44.1451507 L51.4437546,44.1451507 C53.6134634,44.1451507 55.4243077,45.8476164 55.5653663,48.0205753 C55.6549048,49.4046301 56.8077125,50.4891507 58.1898736,50.4891507 L73.0191484,50.4891507 C81.3197546,50.4891507 88.3204542,44.2491507 89.3021795,35.9740274 L90.7872033,18.5908904 C91.1595696,15.4459589 90.178022,12.3106438 88.0985623,9.96334247 C86.0237216,7.62138356 83.042304,6.27757534 79.9196502,6.27757534 L17.088522,6.27757534 C13.9658681,6.27757534 10.9844505,7.62138356 8.90889927,9.96405479 C6.82943956,12.3106438 5.84913553,15.446137 6.218837,18.566137 L7.70865751,35.9987808 C8.68682967,44.2489726 15.687707,50.4889726 23.9895568,50.4889726 L38.8182985,50.4889726 C40.1997491,50.4889726 41.3525568,49.4044521 41.4433388,48.0196849 C41.5838645,45.8476164 43.3945311,44.1451507 45.5649505,44.1451507 L45.5649505,44.1451507 Z M73.0191484,51.9932329 L58.1898736,51.9932329 C56.4399652,51.9932329 54.9234963,50.8866301 54.3283498,49.3182603 L42.6798223,49.3182603 C42.0841429,50.8866301 40.5674963,51.9932329 38.8182985,51.9932329 L23.9895568,51.9932329 C14.9280513,51.9932329 7.28672527,45.1828356 6.21688278,36.1517534 L5.11488462,23.2626986 L3.64247436,23.2626986 C1.69394689,23.2626986 0.109258242,21.6722466 0.109258242,19.7170822 L0.109258242,15.0580959 C0.109258242,13.1036438 1.69394689,11.5131918 3.64247436,11.5131918 L6.04029304,11.5131918 C6.51108059,10.6023014 7.09610073,9.74572603 7.78753663,8.96554795 C9.99011172,6.47952055 13.0900256,4.98291781 16.3810971,4.79379452 L16.3810971,3.55184932 C16.3810971,1.59739726 17.9657857,0.00694520548 19.9136026,0.00694520548 L77.0952802,0.00694520548 C79.0423864,0.00694520548 80.6270751,1.59739726 80.6270751,3.55184932 L80.6270751,4.79379452 C83.9174359,4.98273973 87.0180604,6.47880822 89.2206355,8.96483562 C89.9120714,9.74572603 90.496381,10.6023014 90.9671685,11.5131918 L93.3580586,11.5131918 C95.3058755,11.5131918 96.8905641,13.1036438 96.8905641,15.0580959 L96.8905641,19.7170822 C96.8905641,21.6722466 95.3058755,23.2626986 93.3580586,23.2626986 L91.8931099,23.2626986 L90.7944872,36.127 C89.7207363,45.1826575 82.0792326,51.9932329 73.0191484,51.9932329 L73.0191484,51.9932329 Z" id="Shape"></path>
        </g>
    </g>
</svg>