<?xml version="1.0" standalone="no"?>
<!DOCTYPE svg PUBLIC "-//W3C//DTD SVG 20010904//EN"
 "http://www.w3.org/TR/2001/REC-SVG-20010904/DTD/svg10.dtd">
<svg version="1.0" xmlns="http://www.w3.org/2000/svg"
 width="260.000000pt" height="260.000000pt" viewBox="0 0 260.000000 260.000000"
 preserveAspectRatio="xMidYMid meet">
<metadata>
Created by potrace 1.11, written by Peter Selinger 2001-2013
</metadata>
<g transform="translate(0.000000,260.000000) scale(0.100000,-0.100000)"
fill="#000000" stroke="none">
<path d="M929 1870 c-107 -83 -202 -157 -212 -165 -9 -8 -19 -15 -21 -15 -3 0
-16 24 -29 54 -30 65 -93 136 -150 169 -78 46 -132 55 -326 57 l-181 1 0 -384
0 -384 193 2 c217 3 263 13 352 82 48 36 125 143 125 173 0 9 3 19 6 22 3 4
100 -68 216 -158 115 -90 214 -164 220 -164 5 0 103 72 216 160 113 88 208
156 211 151 3 -5 5 -66 4 -135 -1 -69 2 -127 5 -127 19 -4 469 -5 480 -1 8 3
12 28 12 77 l0 72 -147 1 c-82 0 -154 0 -160 1 -10 1 -13 69 -13 306 l0 305
-88 0 -89 0 1 -137 c1 -124 -1 -140 -19 -160 -11 -12 -105 -87 -208 -167
l-189 -146 -44 37 c-25 20 -41 39 -37 43 4 4 97 75 206 160 108 84 197 154
197 156 0 1 -27 24 -60 49 l-61 47 -37 -28 c-20 -16 -44 -34 -52 -41 -31 -25
-256 -200 -291 -226 l-35 -27 -42 31 c-23 17 -42 34 -42 38 0 4 89 77 198 161
108 84 199 155 202 158 5 4 -43 47 -91 83 l-27 19 -193 -150z m-538 -68 c71
-28 129 -112 134 -200 7 -95 -50 -194 -129 -227 -28 -12 -130 -20 -196 -16
-13 1 -15 31 -14 224 1 122 2 225 3 228 2 10 173 2 202 -9z"/>
<path d="M2109 1963 c-4 -26 -3 -746 1 -752 3 -4 114 -7 248 -7 l242 0 0 77 0
76 -142 1 c-79 0 -151 0 -160 1 -17 1 -18 23 -18 306 l0 305 -85 0 c-47 0 -86
-3 -86 -7z"/>
<path d="M32 1002 c-45 -7 -16 -26 39 -27 l54 -1 3 -154 c2 -168 6 -190 24
-172 8 8 12 64 12 169 l1 158 57 0 c58 0 83 10 55 21 -18 6 -207 11 -245 6z"/>
<path d="M736 837 c2 -206 1 -198 19 -191 10 4 15 19 14 43 -4 110 1 142 26
166 28 29 64 32 95 7 19 -15 22 -28 23 -114 1 -66 5 -99 13 -102 18 -7 21 9
18 112 -1 87 -3 96 -27 120 -32 31 -96 35 -128 7 -21 -20 -22 -19 -21 73 1 33
-3 42 -16 42 -15 0 -17 -16 -16 -163z"/>
<path d="M1507 993 c-3 -5 -5 -83 -5 -175 0 -135 2 -167 14 -172 17 -6 16 -19
18 187 1 123 -2 167 -11 167 -6 0 -14 -3 -16 -7z"/>
<path d="M2097 974 c-9 -10 4 -34 19 -34 8 0 14 9 14 20 0 19 -19 27 -33 14z"/>
<path d="M314 903 c-12 -2 -34 -17 -49 -33 -22 -23 -28 -40 -30 -82 -5 -93 43
-148 126 -148 39 0 95 50 85 75 -6 16 -10 15 -34 -14 -20 -24 -36 -33 -60 -33
-38 -1 -78 31 -85 68 -5 27 -8 26 88 25 108 -2 114 2 95 69 -14 51 -76 84
-136 73z m80 -45 c13 -13 27 -33 31 -45 6 -23 5 -23 -80 -23 -85 0 -86 0 -80
23 12 36 46 67 76 67 15 0 39 -10 53 -22z"/>
<path d="M541 893 c-48 -24 -65 -65 -62 -150 2 -76 98 -126 170 -89 37 20 60
61 44 77 -8 8 -16 3 -27 -19 -20 -39 -62 -54 -103 -37 -39 16 -53 42 -53 94 0
69 33 111 89 111 24 0 71 -37 71 -56 0 -15 16 -19 24 -6 9 15 -5 47 -29 64
-33 25 -86 29 -124 11z"/>
<path d="M1080 902 c-8 -2 -22 -11 -32 -19 -14 -13 -17 -12 -26 4 -19 34 -27
2 -27 -118 -1 -101 2 -119 15 -119 12 0 15 16 16 91 2 79 5 93 25 115 28 30
72 31 99 4 17 -17 20 -33 20 -115 0 -88 4 -101 27 -92 10 3 11 157 0 189 -16
49 -68 76 -117 60z"/>
<path d="M1303 895 c-78 -33 -94 -163 -27 -226 20 -19 36 -24 76 -24 43 0 53
4 78 32 95 106 -2 270 -127 218z m101 -40 c25 -23 30 -38 29 -98 -2 -82 -105
-119 -149 -52 -33 51 -12 156 34 168 38 10 60 6 86 -18z"/>
<path d="M1655 901 c-56 -17 -85 -59 -85 -124 0 -59 21 -102 60 -122 63 -32
131 -8 160 58 47 104 -35 218 -135 188z m87 -51 c28 -28 30 -35 26 -85 -4 -41
-10 -60 -28 -75 -29 -25 -80 -26 -107 0 -44 40 -41 134 4 170 36 28 69 25 105
-10z"/>
<path d="M1900 901 c-57 -23 -84 -78 -74 -151 7 -56 27 -88 62 -101 34 -13 89
-5 113 16 17 16 17 15 12 -17 -7 -49 -28 -75 -65 -80 -26 -4 -38 0 -61 23 -33
33 -52 30 -36 -5 24 -53 114 -63 159 -18 32 33 39 74 39 230 -1 81 -4 102 -15
102 -8 0 -14 -7 -14 -15 0 -8 -4 -15 -10 -15 -5 0 -10 4 -10 9 0 18 -73 33
-100 22z m92 -52 c17 -22 24 -67 19 -120 -2 -29 -40 -59 -74 -59 -61 1 -91 49
-80 130 10 76 93 106 135 49z"/>
<path d="M2222 893 c-40 -20 -63 -76 -56 -140 4 -38 12 -55 38 -80 29 -27 40
-31 80 -29 47 2 96 34 96 63 0 22 -27 15 -44 -12 -32 -49 -117 -26 -139 37 -9
26 9 31 102 32 l86 1 -2 40 c-5 76 -89 123 -161 88z m100 -33 c14 -11 28 -31
30 -45 l5 -26 -81 3 c-75 3 -81 5 -78 23 4 27 48 65 76 65 13 0 35 -9 48 -20z"/>
<path d="M2470 902 c-28 -5 -60 -37 -60 -62 0 -31 33 -58 92 -74 47 -14 59
-21 64 -42 7 -29 -11 -54 -42 -56 -41 -3 -74 12 -80 37 -3 14 -12 25 -20 25
-21 0 -17 -37 6 -60 56 -56 170 -26 170 45 0 37 -28 62 -80 75 -59 14 -80 32
-73 60 10 39 96 39 108 0 7 -23 35 -27 35 -5 0 18 -35 55 -52 56 -7 0 -20 2
-28 3 -8 1 -26 0 -40 -2z"/>
<path d="M2099 883 c0 -10 -1 -66 -2 -126 -2 -96 0 -107 16 -107 15 0 17 13
17 125 0 104 -2 125 -15 125 -8 0 -15 -8 -16 -17z"/>
</g>
</svg>
